<?xml version="1.0" encoding="UTF-8" standalone="no"?>
<!-- Created with Inkscape (http://www.inkscape.org/) -->

<svg
   xmlns:dc="http://purl.org/dc/elements/1.1/"
   xmlns:cc="http://creativecommons.org/ns#"
   xmlns:rdf="http://www.w3.org/1999/02/22-rdf-syntax-ns#"
   xmlns:svg="http://www.w3.org/2000/svg"
   xmlns="http://www.w3.org/2000/svg"
   xmlns:sodipodi="http://sodipodi.sourceforge.net/DTD/sodipodi-0.dtd"
   xmlns:inkscape="http://www.inkscape.org/namespaces/inkscape"
   version="1.1"
   id="svg5465"
   xml:space="preserve"
   width="497.47729"
   height="161.10918"
   viewBox="0 0 497.47729 161.10918"
   sodipodi:docname="mapping.svg"
   inkscape:version="0.92.5 (2060ec1f9f, 2020-04-08)"><metadata
     id="metadata5471"><rdf:RDF><cc:Work
         rdf:about=""><dc:format>image/svg+xml</dc:format><dc:type
           rdf:resource="http://purl.org/dc/dcmitype/StillImage" /><dc:title></dc:title></cc:Work></rdf:RDF></metadata><defs
     id="defs5469" /><sodipodi:namedview
     pagecolor="#ffffff"
     bordercolor="#666666"
     borderopacity="1"
     objecttolerance="10"
     gridtolerance="10"
     guidetolerance="10"
     inkscape:pageopacity="0"
     inkscape:pageshadow="2"
     inkscape:window-width="2560"
     inkscape:window-height="1017"
     id="namedview5467"
     showgrid="false"
     inkscape:zoom="1.5140615"
     inkscape:cx="316.16345"
     inkscape:cy="32.123896"
     inkscape:window-x="-8"
     inkscape:window-y="-8"
     inkscape:window-maximized="1"
     inkscape:current-layer="g5473" /><g
     id="g5473"
     inkscape:groupmode="layer"
     inkscape:label="mapping"
     transform="matrix(1.3333333,0,0,1.3333333,0,2.0277293e-6)"><g
       id="g5475"
       transform="translate(38.142441)"><g
         id="g5477"><path
           d="M 37.5,0.375 H 74.621 V 37.5 H 37.5 Z"
           style="fill:#f2f2f2;fill-opacity:1;fill-rule:nonzero;stroke:#000000;stroke-width:0.75;stroke-linecap:butt;stroke-linejoin:miter;stroke-miterlimit:4;stroke-dasharray:none;stroke-opacity:1"
           id="path5479"
           inkscape:connector-curvature="0" /></g><g
         id="g5481"><path
           d="m 74.621,0.375 h 37.125 V 37.5 H 74.621 Z"
           style="fill:#e5e5e5;fill-opacity:1;fill-rule:nonzero;stroke:#000000;stroke-width:0.75;stroke-linecap:butt;stroke-linejoin:miter;stroke-miterlimit:4;stroke-dasharray:none;stroke-opacity:1"
           id="path5483"
           inkscape:connector-curvature="0" /></g><g
         id="g5485"><path
           d="m 148.867,0.375 h 37.125 V 37.5 h -37.125 z"
           style="fill:#f2f2f2;fill-opacity:1;fill-rule:nonzero;stroke:#000000;stroke-width:0.75;stroke-linecap:butt;stroke-linejoin:miter;stroke-miterlimit:4;stroke-dasharray:none;stroke-opacity:1"
           id="path5487"
           inkscape:connector-curvature="0" /></g><g
         id="g5489"><path
           d="m 111.746,0.375 h 37.121 V 37.5 h -37.121 z"
           style="fill:#f2f2f2;fill-opacity:1;fill-rule:nonzero;stroke:#000000;stroke-width:0.75;stroke-linecap:butt;stroke-linejoin:miter;stroke-miterlimit:4;stroke-dasharray:none;stroke-opacity:1"
           id="path5491"
           inkscape:connector-curvature="0" /></g><g
         id="g5493"><path
           d="m 260.238,0.375 h 37.121 V 37.5 h -37.121 z"
           style="fill:#666666;fill-opacity:1;fill-rule:nonzero;stroke:#000000;stroke-width:0.75;stroke-linecap:butt;stroke-linejoin:miter;stroke-miterlimit:4;stroke-dasharray:none;stroke-opacity:1"
           id="path5495"
           inkscape:connector-curvature="0" /></g><g
         id="g5497"><path
           d="m 223.113,0.375 h 37.125 V 37.5 h -37.125 z"
           style="fill:#b2b2b2;fill-opacity:1;fill-rule:nonzero;stroke:#000000;stroke-width:0.75;stroke-linecap:butt;stroke-linejoin:miter;stroke-miterlimit:4;stroke-dasharray:none;stroke-opacity:1"
           id="path5499"
           inkscape:connector-curvature="0" /></g><g
         id="g5501"><path
           d="m 185.992,0.375 h 37.121 V 37.5 h -37.121 z"
           style="fill:#ffffff;fill-opacity:1;fill-rule:nonzero;stroke:#000000;stroke-width:0.75;stroke-linecap:butt;stroke-linejoin:miter;stroke-miterlimit:4;stroke-dasharray:none;stroke-opacity:1"
           id="path5503"
           inkscape:connector-curvature="0" /></g><g
         id="g5505"><path
           d="m 297.359,0.375 h 37.125 V 37.5 h -37.125 z"
           style="fill:#b2b2b2;fill-opacity:1;fill-rule:nonzero;stroke:#000000;stroke-width:0.75;stroke-linecap:butt;stroke-linejoin:miter;stroke-miterlimit:4;stroke-dasharray:none;stroke-opacity:1"
           id="path5507"
           inkscape:connector-curvature="0" /></g><g
         id="g5509"><path
           d="M 0.375,0.375 H 37.5 V 37.5 H 0.375 Z"
           style="fill:#ffffff;fill-opacity:1;fill-rule:nonzero;stroke:#000000;stroke-width:0.75;stroke-linecap:butt;stroke-linejoin:miter;stroke-miterlimit:4;stroke-dasharray:none;stroke-opacity:1"
           id="path5511"
           inkscape:connector-curvature="0" /></g><g
         id="g5513"><path
           d="m 37.5,83.332 h 37.121 v 37.125 H 37.5 Z"
           style="fill:#b2b2b2;fill-opacity:1;fill-rule:nonzero;stroke:#000000;stroke-width:0.75;stroke-linecap:butt;stroke-linejoin:miter;stroke-miterlimit:4;stroke-dasharray:none;stroke-opacity:1"
           id="path5515"
           inkscape:connector-curvature="0" /></g><g
         id="g5517"><path
           d="m 74.621,83.332 h 37.125 v 37.125 H 74.621 Z"
           style="fill:#666666;fill-opacity:1;fill-rule:nonzero;stroke:#000000;stroke-width:0.75;stroke-linecap:butt;stroke-linejoin:miter;stroke-miterlimit:4;stroke-dasharray:none;stroke-opacity:1"
           id="path5519"
           inkscape:connector-curvature="0" /></g><g
         id="g5521"><path
           d="m 148.867,83.332 h 37.125 v 37.125 h -37.125 z"
           style="fill:#f2f2f2;fill-opacity:1;fill-rule:nonzero;stroke:#000000;stroke-width:0.75;stroke-linecap:butt;stroke-linejoin:miter;stroke-miterlimit:4;stroke-dasharray:none;stroke-opacity:1"
           id="path5523"
           inkscape:connector-curvature="0" /></g><g
         id="g5525"><path
           d="m 111.746,83.332 h 37.121 v 37.125 h -37.121 z"
           style="fill:#b2b2b2;fill-opacity:1;fill-rule:nonzero;stroke:#000000;stroke-width:0.75;stroke-linecap:butt;stroke-linejoin:miter;stroke-miterlimit:4;stroke-dasharray:none;stroke-opacity:1"
           id="path5527"
           inkscape:connector-curvature="0" /></g><g
         id="g5529"><path
           d="m 260.238,83.332 h 37.121 v 37.125 h -37.121 z"
           style="fill:#e5e5e5;fill-opacity:1;fill-rule:nonzero;stroke:#000000;stroke-width:0.75;stroke-linecap:butt;stroke-linejoin:miter;stroke-miterlimit:4;stroke-dasharray:none;stroke-opacity:1"
           id="path5531"
           inkscape:connector-curvature="0" /></g><g
         id="g5533"><path
           d="m 223.113,83.332 h 37.125 v 37.125 h -37.125 z"
           style="fill:#f2f2f2;fill-opacity:1;fill-rule:nonzero;stroke:#000000;stroke-width:0.75;stroke-linecap:butt;stroke-linejoin:miter;stroke-miterlimit:4;stroke-dasharray:none;stroke-opacity:1"
           id="path5535"
           inkscape:connector-curvature="0" /></g><g
         id="g5537"><path
           d="m 185.992,83.332 h 37.121 v 37.125 h -37.121 z"
           style="fill:#ffffff;fill-opacity:1;fill-rule:nonzero;stroke:#000000;stroke-width:0.75;stroke-linecap:butt;stroke-linejoin:miter;stroke-miterlimit:4;stroke-dasharray:none;stroke-opacity:1"
           id="path5539"
           inkscape:connector-curvature="0" /></g><g
         id="g5541"><path
           d="m 297.359,83.332 h 37.125 v 37.125 h -37.125 z"
           style="fill:#f2f2f2;fill-opacity:1;fill-rule:nonzero;stroke:#000000;stroke-width:0.75;stroke-linecap:butt;stroke-linejoin:miter;stroke-miterlimit:4;stroke-dasharray:none;stroke-opacity:1"
           id="path5543"
           inkscape:connector-curvature="0" /></g><g
         id="g5545"><path
           d="M 0.375,83.332 H 37.5 v 37.125 H 0.375 Z"
           style="fill:#ffffff;fill-opacity:1;fill-rule:nonzero;stroke:#000000;stroke-width:0.75;stroke-linecap:butt;stroke-linejoin:miter;stroke-miterlimit:4;stroke-dasharray:none;stroke-opacity:1"
           id="path5547"
           inkscape:connector-curvature="0" /></g><g
         id="g5549"><path
           d="m 200.641,78.008 h 7.132 l -3.183,4.937 z"
           style="fill:#000000;fill-opacity:1;fill-rule:nonzero;stroke:#000000;stroke-width:0.52499998;stroke-linecap:butt;stroke-linejoin:miter;stroke-miterlimit:4;stroke-dasharray:none;stroke-opacity:1"
           id="path5551"
           inkscape:connector-curvature="0" /></g><g
         id="g5553"><path
           d="m 57.367,37.125 c 0,0 1.207,21.367 -19.304,21.469 -18.637,0.094 -18.372,19.191 -18.372,19.191"
           style="fill:none;stroke:#000000;stroke-width:0.52499998;stroke-linecap:butt;stroke-linejoin:miter;stroke-miterlimit:4;stroke-dasharray:none;stroke-opacity:1"
           id="path5555"
           inkscape:connector-curvature="0" /></g><g
         id="g5557"><path
           d="m 16.102,77.887 h 7.132 l -3.183,4.933 z"
           style="fill:#000000;fill-opacity:1;fill-rule:nonzero;stroke:#000000;stroke-width:0.52499998;stroke-linecap:butt;stroke-linejoin:miter;stroke-miterlimit:4;stroke-dasharray:none;stroke-opacity:1"
           id="path5559"
           inkscape:connector-curvature="0" /></g><g
         id="g5561"><path
           d="m 279.957,37.391 c 0,0 9.231,18.836 -95.129,18.836 -94.578,0 -90.301,21.734 -90.301,21.734"
           style="fill:none;stroke:#000000;stroke-width:0.52157199;stroke-linecap:butt;stroke-linejoin:miter;stroke-miterlimit:4;stroke-dasharray:none;stroke-opacity:1"
           id="path5563"
           inkscape:connector-curvature="0" /></g><g
         id="g5565"><path
           d="m 90.375,77.727 h 7.133 l -3.184,4.937 z"
           style="fill:#000000;fill-opacity:1;fill-rule:nonzero;stroke:#000000;stroke-width:0.52499998;stroke-linecap:butt;stroke-linejoin:miter;stroke-miterlimit:4;stroke-dasharray:none;stroke-opacity:1"
           id="path5567"
           inkscape:connector-curvature="0" /></g><g
         id="g5569"><path
           d="m 241.688,37.344 c 0,0 10.363,16.433 -93.993,16.433 -94.578,0 -91.437,24.676 -91.437,24.676"
           style="fill:none;stroke:#000000;stroke-width:0.52499998;stroke-linecap:butt;stroke-linejoin:miter;stroke-miterlimit:4;stroke-dasharray:none;stroke-opacity:1"
           id="path5571"
           inkscape:connector-curvature="0" /></g><g
         id="g5573"><path
           d="m 52.27,77.781 h 7.132 l -3.183,4.938 z"
           style="fill:#000000;fill-opacity:1;fill-rule:nonzero;stroke:#000000;stroke-width:0.52499998;stroke-linecap:butt;stroke-linejoin:miter;stroke-miterlimit:4;stroke-dasharray:none;stroke-opacity:1"
           id="path5575"
           inkscape:connector-curvature="0" /></g><g
         id="g5577"><path
           d="m 316.289,37.477 c 0,0 9.227,22.211 -95.129,22.211 -94.578,0 -90.301,18.894 -90.301,18.894"
           style="fill:none;stroke:#000000;stroke-width:0.52499998;stroke-linecap:butt;stroke-linejoin:miter;stroke-miterlimit:4;stroke-dasharray:none;stroke-opacity:1"
           id="path5579"
           inkscape:connector-curvature="0" /></g><g
         id="g5581"><path
           d="m 126.609,77.684 h 7.137 l -3.187,4.937 z"
           style="fill:#000000;fill-opacity:1;fill-rule:nonzero;stroke:#000000;stroke-width:0.52499998;stroke-linecap:butt;stroke-linejoin:miter;stroke-miterlimit:4;stroke-dasharray:none;stroke-opacity:1"
           id="path5583"
           inkscape:connector-curvature="0" /></g><g
         id="g5585"><path
           d="M 204.629,78.348 V 37.633"
           style="fill:none;stroke:#000000;stroke-width:0.52499998;stroke-linecap:butt;stroke-linejoin:miter;stroke-miterlimit:4;stroke-dasharray:none;stroke-opacity:1"
           id="path5587"
           inkscape:connector-curvature="0" /></g><g
         id="g5589"><path
           d="m 164.645,77.953 h 7.136 l -3.187,4.938 z"
           style="fill:#000000;fill-opacity:1;fill-rule:nonzero;stroke:#000000;stroke-width:0.52499998;stroke-linecap:butt;stroke-linejoin:miter;stroke-miterlimit:4;stroke-dasharray:none;stroke-opacity:1"
           id="path5591"
           inkscape:connector-curvature="0" /></g><g
         id="g5593"><path
           d="M 168.637,78.289 V 37.578"
           style="fill:none;stroke:#000000;stroke-width:0.52499998;stroke-linecap:butt;stroke-linejoin:miter;stroke-miterlimit:4;stroke-dasharray:none;stroke-opacity:1"
           id="path5595"
           inkscape:connector-curvature="0" /></g><g
         id="g5597"><path
           d="M 19.691,77.785 V 37.539"
           style="fill:none;stroke:#000000;stroke-width:0.52196902;stroke-linecap:butt;stroke-linejoin:miter;stroke-miterlimit:4;stroke-dasharray:none;stroke-opacity:1"
           id="path5599"
           inkscape:connector-curvature="0" /></g></g><path
       style="fill:#000000;fill-opacity:0;stroke:none;stroke-width:0.52499998;stroke-miterlimit:4;stroke-dasharray:none;stroke-opacity:1"
       id="path4662"
       d="m 18.890688,10.041173 c 0.09535,-0.04237 0.192386,-0.08114 0.286049,-0.1271263 0.203188,-0.09976 0.402239,-0.207729 0.602836,-0.312597 0.09387,-0.04907 0.37067,-0.205185 0.279009,-0.152098 -2.147289,1.2436193 -2.419177,1.4172643 -1.610836,0.9129063 0.34703,-0.210715 0.626415,-0.4743593 0.782528,-0.8510303 0.0065,-0.015 0.0041,-0.05029 0.01956,-0.04499 0.02134,0.0073 0.01893,0.04093 0.02839,0.06139 0.711507,-0.331513 1.408926,-0.695112 2.134521,-0.994539 0.04808,-0.01985 -0.04618,0.09328 -0.06653,0.141151 -0.05588,0.131511 -0.103359,0.266428 -0.154855,0.399713 -0.237215,0.727683 -0.538499,1.4328713 -0.86223,2.1257083 -0.563807,1.158335 -1.093634,2.331344 -1.573803,3.526698 -0.606957,1.515266 -1.181489,3.041579 -1.73361,4.577456 -0.507739,1.306371 -1.031086,2.609149 -1.65039,3.867129 -0.451602,0.894561 -0.975569,1.742565 -1.605206,2.521809 -0.958059,1.136725 -2.312848,1.69884 -3.59321,2.433893 -0.4170577,0.16992 -0.8637323,0.337045 -1.308808,0.197908 -0.3363434,-0.173773 -0.4385826,-0.504238 -0.4950388,-0.853217 -0.032452,-0.394617 -0.041829,-0.792622 -0.014079,-1.18771 0.062103,-0.480789 0.3552108,-0.844653 0.6589416,-1.200156 0.719578,-0.822723 1.7535832,-1.158659 2.7200282,-1.704131 0,0 -1.9364128,1.535349 -1.9364128,1.535349 v 0 c 4.1203638,-2.402709 2.0431798,-1.3338 1.4840528,-0.792648 -0.278916,0.33264 -0.605691,0.625938 -0.714692,1.064871 -0.0576,0.372957 -0.02264,0.755322 -0.01035,1.131183 0.02862,0.247365 0.05716,0.520121 0.336528,0.59354 0.420057,0.02801 0.823486,-0.144567 1.194133,-0.325068 -3.6282914,2.122265 -1.759445,1.122364 -1.079636,0.562701 0.234262,-0.192858 0.296848,-0.27492 0.510644,-0.502167 0.656463,-0.755232 1.185559,-1.595856 1.65157,-2.480631 0.639114,-1.246346 1.156285,-2.550109 1.678447,-3.848764 0.560121,-1.533675 1.12331,-3.065128 1.727672,-4.582291 0.465,-1.196507 0.982294,-2.370327 1.538094,-3.527549 0.323877,-0.678686 0.627627,-1.375525 0.842106,-2.09657 0.03109,-0.08112 0.200634,-0.5628133 0.201069,-0.5630813 0.508104,-0.311751 2.255343,-2.148872 2.319567,-1.077323 -0.154923,0.412207 -0.343848,0.761578 -0.738558,0.997866 -1.193463,0.8120923 -2.482739,1.4696183 -3.7676,2.1220313 0,0 1.920083,-1.549612 1.920083,-1.549612 z"
       inkscape:connector-curvature="0" /><path
       style="fill:#000000;fill-opacity:1;stroke:none;stroke-width:0.52499998;stroke-miterlimit:4;stroke-dasharray:none;stroke-opacity:1"
       id="path4700"
       d="m 16.403,96.285862 c -0.01735,0.346635 -0.0218,0.693637 -0.03755,1.04043 -0.02337,0.61221 -0.06104,1.223722 -0.09112,1.83561 -0.03801,0.753052 -0.08339,1.505678 -0.140699,2.257508 -0.07533,0.80866 -0.153543,1.61688 -0.240903,2.42432 -0.08643,0.83161 -0.276163,1.64479 -0.503398,2.44763 -0.143561,0.49267 -0.310425,0.97919 -0.518375,1.44868 -0.121035,0.27326 -0.180234,0.38123 -0.314771,0.64608 -0.24912,0.47113 -0.523282,0.93088 -0.853186,1.35055 -0.05635,0.0717 -0.116624,0.14019 -0.174936,0.21028 -0.200726,0.22211 -0.416355,0.44103 -0.677395,0.59309 -1.543704,0.89921 -1.044408,0.67539 -1.753271,0.98352 -0.229563,0.0913 -0.472801,0.12648 -0.717624,0.14176 -0.02514,7.5e-4 -0.05028,0.002 -0.07542,0.002 0,0 1.386704,-1.01787 1.386704,-1.01787 v 0 c 0.02303,-7.5e-4 0.04605,-0.003 0.06908,-0.004 0.228169,-0.0227 0.451539,-0.0737 0.659602,-0.17322 0.590665,-0.29157 0.173968,-0.0901 -1.134389,0.67465 -0.05746,0.0336 0.116752,-0.064 0.173071,-0.0995 0.202234,-0.12732 0.384678,-0.2808 0.54639,-0.45687 0.0614,-0.0678 0.125136,-0.13359 0.184185,-0.20346 0.345047,-0.40836 0.625891,-0.86556 0.883564,-1.33242 0.351738,-0.66321 0.659071,-1.3494 0.863503,-2.07381 0.09728,-0.32676 0.142873,-0.46602 0.22509,-0.79857 0.131982,-0.53385 0.2206,-1.07709 0.285205,-1.62294 0.103399,-0.80337 0.165675,-1.61103 0.241882,-2.41728 0.05741,-0.74772 0.100584,-1.4964 0.13005,-2.245743 0.01984,-0.606045 0.05608,-1.21158 0.06071,-1.818053 0.004,-0.336232 0.01045,-0.673117 -0.0139,-1.00881 0,0 1.537895,-0.783592 1.537895,-0.783592 z"
       inkscape:connector-curvature="0" /><path
       style="fill:#000000;fill-opacity:1;stroke:none;stroke-width:0.52499998;stroke-miterlimit:4;stroke-dasharray:none;stroke-opacity:1"
       id="path4702"
       d="m 10.91574,97.590224 c -0.103785,-0.201825 -0.138198,-0.42507 -0.164669,-0.64764 -0.01835,-0.244567 -0.03957,-0.49239 0.0041,-0.735712 0.01065,-0.0594 0.02695,-0.117675 0.04043,-0.17652 0.122157,-0.408825 0.325576,-0.784643 0.55617,-1.14117 0.253124,-0.365198 0.574619,-0.67743 0.934724,-0.93663 0.08071,-0.05813 0.165038,-0.111008 0.247557,-0.166515 0.740565,-0.45075 1.483011,-0.906 2.281476,-1.247333 0.334087,-0.142822 0.676708,-0.256335 1.022778,-0.365602 0.745562,-0.230685 1.517336,-0.356513 2.290442,-0.449865 0.652604,-0.06458 1.309514,-0.102173 1.965452,-0.07892 0.12996,0.0045 0.25969,0.01432 0.389535,0.02145 0.480795,0.03923 0.962203,0.101828 1.427529,0.233235 0.246283,0.06952 0.369753,0.12225 0.607148,0.212393 0.349543,0.14868 0.688615,0.33291 0.980362,0.578595 0.168796,0.142147 0.224934,0.212917 0.374838,0.374812 0.302409,0.360398 0.549562,0.766838 0.736245,1.198665 0.03898,0.09016 0.07246,0.182603 0.108702,0.273908 0.161845,0.457545 0.267304,0.937965 0.28974,1.423762 0.0044,0.0965 0.002,0.1932 0.0028,0.2898 -0.01611,0.534263 -0.136972,1.059533 -0.335595,1.555035 -0.04301,0.107303 -0.09342,0.211485 -0.140137,0.317228 -0.270798,0.556072 -0.614015,1.076182 -1.024886,1.538962 -0.08525,0.096 -0.17629,0.18675 -0.264436,0.280125 -0.934178,0.929203 -2.137304,1.505613 -3.269394,2.148813 -0.413958,0.20646 -0.848379,0.37048 -1.299569,0.47394 -0.237766,0.0545 -0.33777,0.0656 -0.574606,0.10171 -0.377869,0.039 -0.759612,0.0874 -1.139029,0.0457 -0.186705,-0.0127 -0.340233,-0.0971 -0.460783,-0.23617 -0.08311,-0.10296 -0.119639,-0.22167 -0.111882,-0.35244 0.0054,-0.02 0.0081,-0.041 0.01623,-0.06 0.0089,-0.0211 0.01481,-0.0476 0.03447,-0.0593 1.287345,-0.76365 1.067505,-0.86124 1.925448,-0.91683 0.441533,-0.0242 0.88149,0.0263 1.314959,0.10599 0.485674,0.10434 0.94083,0.30841 1.368496,0.55677 0.281889,0.17955 0.549531,0.38931 0.75581,0.65484 0.03918,0.0505 0.07382,0.10425 0.110733,0.15636 0.22251,0.32697 0.403225,0.68059 0.595369,1.02591 0.214248,0.40242 0.405876,0.81589 0.618876,1.21905 0.153167,0.27235 0.289722,0.55384 0.45711,0.81802 0.111425,0.17585 0.130269,0.19667 0.251583,0.36482 0.181655,0.2253 0.367055,0.44922 0.581913,0.6441 0.128867,0.11689 0.200624,0.16755 0.338526,0.27351 0.234339,0.16398 0.488141,0.30171 0.762819,0.38478 0.163262,0.0494 0.230963,0.056 0.39836,0.0854 0.341559,0.0464 0.679752,-0.0134 1.000188,-0.13407 0.07289,-0.0275 0.143545,-0.0605 0.215319,-0.0908 0.51268,-0.25827 1.533692,-0.80471 -0.741209,0.4476 -0.07938,0.0437 0.152757,-0.0976 0.227037,-0.14949 0.190076,-0.13278 0.261689,-0.19629 0.4422,-0.34272 0.07054,-0.0636 0.141083,-0.12723 0.211623,-0.19086 0,0 1.52632,-0.62583 1.52632,-0.62583 v 0 c -0.06902,0.0663 -0.138048,0.13263 -0.207072,0.19893 -0.173407,0.14793 -0.251424,0.21921 -0.433266,0.35574 -0.717635,0.5388 -1.521023,0.96195 -2.335558,1.33525 -0.07589,0.0277 -0.150711,0.0584 -0.227673,0.0829 -0.341841,0.10883 -0.699168,0.13901 -1.052493,0.0713 -0.179113,-0.0398 -0.238789,-0.0474 -0.412618,-0.10915 -0.283335,-0.10073 -0.543935,-0.2538 -0.787502,-0.42848 -0.361005,-0.28443 -0.671487,-0.5875 -0.945013,-0.95884 -0.127376,-0.17874 -0.14009,-0.19062 -0.256164,-0.37743 -0.16664,-0.26823 -0.305229,-0.55203 -0.460419,-0.82677 -0.213545,-0.40125 -0.407006,-0.81249 -0.624603,-1.21158 -0.190115,-0.33921 -0.375737,-0.68283 -0.593007,-1.00542 -0.0347,-0.0478 -0.06744,-0.0971 -0.104076,-0.1434 -0.196022,-0.24785 -0.446951,-0.44658 -0.71297,-0.6141 -0.415737,-0.23577 -0.855855,-0.43002 -1.330004,-0.51168 -0.434697,-0.0671 -0.87562,-0.10505 -1.314308,-0.0496 -0.102526,0.0154 -0.171811,0.0214 -0.269516,0.0518 -0.0323,0.0101 -0.123225,0.0552 -0.09417,0.0379 0.465297,-0.27754 0.939975,-0.53925 1.403886,-0.8191 0.02597,-0.0157 -0.101952,0.0131 -0.08909,0.0186 -0.06473,0.0572 -0.02902,0.13506 0.01828,0.19342 0.103015,0.1007 0.231745,0.13334 0.374014,0.14295 0.35877,0.0246 0.719322,-0.004 1.075353,-0.0505 0.231485,-0.0381 0.319427,-0.0477 0.551694,-0.10659 0.438452,-0.11109 0.858833,-0.28272 1.260311,-0.48978 -0.34811,0.20547 -0.696528,0.4104 -1.044326,0.61641 -0.113589,0.0673 0.229466,-0.13074 0.341697,-0.20025 0.434607,-0.2692 0.847674,-0.57709 1.218185,-0.9297 0.08927,-0.0901 0.181567,-0.17733 0.267819,-0.27036 0.413161,-0.445555 0.75651,-0.951003 1.031284,-1.492345 0.0475,-0.101648 0.09895,-0.201563 0.142503,-0.304973 0.20016,-0.475245 0.326012,-0.979897 0.346635,-1.49595 8.25e-4,-0.09289 0.0053,-0.185835 0.0025,-0.2787 -0.0139,-0.470317 -0.109589,-0.937657 -0.264408,-1.38096 -0.03476,-0.08815 -0.06664,-0.17748 -0.104261,-0.264442 -0.180024,-0.416123 -0.421486,-0.805913 -0.717339,-1.14942 -0.149436,-0.156413 -0.195153,-0.213533 -0.361401,-0.351068 -0.28125,-0.232665 -0.601767,-0.41109 -0.93939,-0.547777 -0.242646,-0.09038 -0.337213,-0.13167 -0.58905,-0.200558 -0.455521,-0.124597 -0.925965,-0.184387 -1.396047,-0.21813 -0.128095,-0.006 -0.256099,-0.01417 -0.384285,-0.0174 -0.651679,-0.01628 -1.304052,0.0261 -1.951623,0.09616 -0.770119,0.102473 -1.538447,0.235313 -2.27826,0.479055 -0.458914,0.15462 -0.892497,0.319868 -1.327789,0.533648 -0.09841,0.0483 -0.386581,0.20655 -0.293036,0.14937 0.372925,-0.227955 0.754536,-0.44139 1.131804,-0.662078 -0.08248,0.05152 -0.166755,0.100313 -0.247455,0.154598 -0.357892,0.240742 -0.682966,0.532252 -0.941707,0.87825 -0.04306,0.06277 -0.08808,0.124282 -0.12919,0.18837 -0.179047,0.279105 -0.317589,0.582195 -0.432796,0.892477 -0.01457,0.05288 -0.03188,0.105083 -0.0437,0.158648 -0.05041,0.22839 -0.03205,0.46176 -0.01465,0.692692 0.02099,0.19866 0.04389,0.403995 0.154194,0.57612 0,0 -1.497199,0.861113 -1.497199,0.861113 z"
       inkscape:connector-curvature="0" /><path
       style="fill:#000000;fill-opacity:1;stroke:none;stroke-width:0.52499998;stroke-miterlimit:4;stroke-dasharray:none;stroke-opacity:1"
       id="path4740"
       d="m 14.680306,13.397837 c 0.554062,-1.041355 1.113251,-1.123902 2.290288,-1.807047 0.336043,-0.08626 0.649774,0.02049 0.955744,0.15559 0.317183,0.142583 0.618018,0.322126 0.944532,0.442488 0.311096,0.110406 0.627441,0.181486 0.955162,0.217507 0.341207,0.05377 0.667857,-0.02609 0.991436,-0.128721 0.05533,-0.02383 0.110031,-0.04922 0.166014,-0.07149 0.197702,-0.07865 0.151281,-0.04519 0.341706,-0.137661 0.05345,-0.02596 0.208759,-0.113591 0.157297,-0.08388 -1.527339,0.881769 -1.762258,1.032598 -1.197286,0.67671 0.237204,-0.174159 0.45967,-0.367043 0.594708,-0.631665 0.08363,-0.203531 0.09937,-0.415649 0.03824,-0.626348 -0.07761,-0.180315 -0.247866,-0.272541 -0.440228,-0.257646 0.06104,-0.107411 -0.283079,0.151874 -0.22164,0.117534 0.477014,-0.266613 0.941737,-0.554979 1.420803,-0.817887 0.03271,-0.01796 -0.05441,0.05146 -0.07756,0.08072 -0.02531,0.032 -0.04481,0.06819 -0.06722,0.102285 -0.148764,0.259786 -0.257304,0.539205 -0.377785,0.812446 -0.196253,0.390886 -0.345692,0.802886 -0.483438,1.217303 -0.209912,0.612849 -0.363296,1.242487 -0.529886,1.867935 -0.252336,0.887859 -0.400242,1.799479 -0.603585,2.698622 -0.283716,1.073885 -0.614577,2.13531 -0.964326,3.189387 -0.335797,1.012248 -0.772785,1.985712 -1.290189,2.917158 -0.327148,0.571965 -0.732192,1.075755 -1.262095,1.467639 -0.843085,0.55026 -1.503577,1.071546 -2.458804,1.117026 -0.324173,0.0297 -0.450601,-0.117336 -0.643492,-0.342105 -0.165475,-0.199626 -0.232068,-0.440841 -0.269101,-0.691851 -0.03505,-0.253329 -0.03325,-0.49692 0.05879,-0.736974 0.377019,-0.556125 1.509353,-0.93981 1.805551,-1.091796 0.03578,-0.01837 0.479486,-0.07742 0.53575,-0.08599 0.604482,-0.102345 1.067133,-0.0079 1.64877,0.150673 0.834146,0.293085 1.648439,0.64077 2.458477,0.99456 1.022139,0.483473 2.060842,0.932978 3.126056,1.31271 1.034606,0.39063 2.126124,0.528428 3.221453,0.605228 0.678429,0.02572 1.363539,-0.01358 2.02597,-0.17178 0.368552,-0.08804 0.585206,-0.179813 0.940081,-0.310493 0.544082,-0.173002 2.576146,-1.35087 0.240985,-0.0531 0,0 1.587708,-0.617535 1.587708,-0.617535 v 0 c -1.032777,0.611685 -2.039499,1.29726 -3.171411,1.717958 -0.394925,0.135202 -0.548364,0.201045 -0.957377,0.287977 -0.672288,0.142898 -1.363723,0.172335 -2.048272,0.135443 -1.104287,-0.089 -2.201649,-0.245565 -3.242389,-0.646418 -1.067583,-0.386917 -2.108856,-0.840945 -3.139768,-1.316527 -0.808506,-0.347265 -1.620789,-0.693165 -2.459339,-0.961665 -0.566295,-0.13767 -1.041816,-0.198203 -1.620228,-0.08215 -0.09634,0.01755 -0.275621,0.04852 -0.373117,0.07223 -0.05028,0.01223 -0.193129,0.0702 -0.149219,0.04282 2.309628,-1.44015 1.707553,-0.969609 1.163832,-0.70071 -0.137276,0.197115 -0.130545,0.40953 -0.105164,0.641751 0.02448,0.219525 0.06966,0.430764 0.218327,0.60318 0.186249,0.21252 0.26158,0.235419 0.551964,0.207429 0.784743,-0.08338 1.703128,-0.76644 -0.559342,0.55296 0.560115,-0.348705 0.974029,-0.84483 1.316851,-1.405215 0.532406,-0.9189 0.975635,-1.886364 1.316806,-2.892936 0.349648,-1.047559 0.672886,-2.104402 0.962128,-3.170264 0.207798,-0.896443 0.344746,-1.807981 0.586903,-2.69677 0.162942,-0.625934 0.312815,-1.255874 0.513984,-1.870948 0.131346,-0.417685 0.270567,-0.838176 0.466743,-1.229921 0.123598,-0.274487 0.226193,-0.557238 0.367065,-0.823649 0.33077,-0.717028 1.187109,-1.220142 1.967006,-1.209927 0.244232,0.0627 0.442591,0.190898 0.546336,0.429879 0.08175,0.243383 0.08826,0.489194 0.01559,0.737126 -0.107099,0.30802 -0.313801,0.518926 -0.560519,0.726613 -0.756016,0.54716 -1.580223,1.020677 -2.467959,1.313 -0.34266,0.0856 -0.682424,0.140361 -1.034931,0.07361 -0.335477,-0.04899 -0.661666,-0.13289 -0.978946,-0.253754 -0.321477,-0.135205 -0.626532,-0.306298 -0.94755,-0.443175 -0.287689,-0.10843 -0.573765,-0.181611 -0.863528,-0.03283 2.660075,-1.57047 1.433774,-0.959738 1.042847,-0.551718 -0.155784,0.162597 -0.280779,0.351222 -0.387945,0.548422 0,0 -1.58825,0.718576 -1.58825,0.718576 z"
       inkscape:connector-curvature="0" /></g></svg>