<?xml version="1.0" encoding="UTF-8" standalone="no"?>
<!-- Created with Inkscape (http://www.inkscape.org/) -->

<svg
   xmlns:dc="http://purl.org/dc/elements/1.1/"
   xmlns:cc="http://creativecommons.org/ns#"
   xmlns:rdf="http://www.w3.org/1999/02/22-rdf-syntax-ns#"
   xmlns:svg="http://www.w3.org/2000/svg"
   xmlns="http://www.w3.org/2000/svg"
   xmlns:sodipodi="http://sodipodi.sourceforge.net/DTD/sodipodi-0.dtd"
   xmlns:inkscape="http://www.inkscape.org/namespaces/inkscape"
   version="1.1"
   id="svg4742"
   xml:space="preserve"
   width="497.47729"
   height="161.10918"
   viewBox="0 0 497.47729 161.10918"
   sodipodi:docname="onestereoknown.svg"
   inkscape:version="0.92.5 (2060ec1f9f, 2020-04-08)"><metadata
     id="metadata4748"><rdf:RDF><cc:Work
         rdf:about=""><dc:format>image/svg+xml</dc:format><dc:type
           rdf:resource="http://purl.org/dc/dcmitype/StillImage" /><dc:title></dc:title></cc:Work></rdf:RDF></metadata><defs
     id="defs4746" /><sodipodi:namedview
     pagecolor="#ffffff"
     bordercolor="#666666"
     borderopacity="1"
     objecttolerance="10"
     gridtolerance="10"
     guidetolerance="10"
     inkscape:pageopacity="0"
     inkscape:pageshadow="2"
     inkscape:window-width="2560"
     inkscape:window-height="1017"
     id="namedview4744"
     showgrid="false"
     inkscape:zoom="2.1412063"
     inkscape:cx="129.23594"
     inkscape:cy="19.883514"
     inkscape:window-x="-8"
     inkscape:window-y="-8"
     inkscape:window-maximized="1"
     inkscape:current-layer="g4752" /><g
     id="g4750"
     inkscape:groupmode="layer"
     inkscape:label="allclosed"
     transform="matrix(1.3333333,0,0,1.3333333,0,2.0277293e-6)"><g
       id="g4752"
       transform="translate(38.529684)"><g
         id="g4754"><path
           d="M 37.5,0.375 H 74.621 V 37.5 H 37.5 Z"
           style="fill:#d6d6d6;stroke:#000000;stroke-width:0.75;stroke-linecap:butt;stroke-linejoin:miter;stroke-miterlimit:4;stroke-dasharray:none;stroke-opacity:1;fill-opacity:1"
           id="path4756"
           inkscape:connector-curvature="0" /></g><g
         id="g4758"><path
           d="m 74.621,0.375 h 37.125 V 37.5 H 74.621 Z"
           style="fill:#d6d6d6;stroke:#000000;stroke-width:0.75;stroke-linecap:butt;stroke-linejoin:miter;stroke-miterlimit:4;stroke-dasharray:none;stroke-opacity:1;fill-opacity:1"
           id="path4760"
           inkscape:connector-curvature="0" /></g><g
         id="g4762"><path
           d="m 148.867,0.375 h 37.125 V 37.5 h -37.125 z"
           style="fill:#d6d6d6;stroke:#000000;stroke-width:0.75;stroke-linecap:butt;stroke-linejoin:miter;stroke-miterlimit:4;stroke-dasharray:none;stroke-opacity:1;fill-opacity:1"
           id="path4764"
           inkscape:connector-curvature="0" /></g><g
         id="g4766"><path
           d="m 111.746,0.375 h 37.121 V 37.5 h -37.121 z"
           style="fill:#d6d6d6;stroke:#000000;stroke-width:0.75;stroke-linecap:butt;stroke-linejoin:miter;stroke-miterlimit:4;stroke-dasharray:none;stroke-opacity:1;fill-opacity:1"
           id="path4768"
           inkscape:connector-curvature="0" /></g><g
         id="g4770"><path
           d="m 260.238,0.375 h 37.121 V 37.5 h -37.121 z"
           style="fill:#d6d6d6;stroke:#000000;stroke-width:0.75;stroke-linecap:butt;stroke-linejoin:miter;stroke-miterlimit:4;stroke-dasharray:none;stroke-opacity:1;fill-opacity:1"
           id="path4772"
           inkscape:connector-curvature="0" /></g><g
         id="g4774"><path
           d="m 223.113,0.375 h 37.125 V 37.5 h -37.125 z"
           style="fill:#d6d6d6;stroke:#000000;stroke-width:0.75;stroke-linecap:butt;stroke-linejoin:miter;stroke-miterlimit:4;stroke-dasharray:none;stroke-opacity:1;fill-opacity:1"
           id="path4776"
           inkscape:connector-curvature="0" /></g><g
         id="g4778"><path
           d="m 185.992,0.375 h 37.121 V 37.5 h -37.121 z"
           style="fill:#d6d6d6;stroke:#000000;stroke-width:0.75;stroke-linecap:butt;stroke-linejoin:miter;stroke-miterlimit:4;stroke-dasharray:none;stroke-opacity:1;fill-opacity:1"
           id="path4780"
           inkscape:connector-curvature="0" /></g><g
         id="g4782"><path
           d="m 297.359,0.375 h 37.125 V 37.5 h -37.125 z"
           style="fill:#d6d6d6;stroke:#000000;stroke-width:0.75;stroke-linecap:butt;stroke-linejoin:miter;stroke-miterlimit:4;stroke-dasharray:none;stroke-opacity:1;fill-opacity:1"
           id="path4784"
           inkscape:connector-curvature="0" /></g><g
         id="g4786"
         style="fill:#d6d6d6;fill-opacity:1"><path
           d="M 0.375,0.375 H 37.5 V 37.5 H 0.375 Z"
           style="fill:#ffffff;stroke:#000000;stroke-width:0.75;stroke-linecap:butt;stroke-linejoin:miter;stroke-miterlimit:4;stroke-dasharray:none;stroke-opacity:1;fill-opacity:0.58838397"
           id="path4788"
           inkscape:connector-curvature="0" /></g><path
         d="m 37.5,83.332 h 37.121 v 37.125 H 37.5 Z"
         style="fill:#000000;fill-opacity:0.17676799;fill-rule:nonzero;stroke:none"
         id="path4790"
         inkscape:connector-curvature="0" /><g
         id="g4792"><path
           d="m 37.5,83.332 h 37.121 v 37.125 H 37.5 Z"
           style="fill:none;stroke:#000000;stroke-width:0.75;stroke-linecap:butt;stroke-linejoin:miter;stroke-miterlimit:4;stroke-dasharray:none;stroke-opacity:1"
           id="path4794"
           inkscape:connector-curvature="0" /></g><path
         d="m 74.621,83.332 h 37.125 v 37.125 H 74.621 Z"
         style="fill:#000000;fill-opacity:0.17676799;fill-rule:nonzero;stroke:none"
         id="path4796"
         inkscape:connector-curvature="0" /><g
         id="g4798"><path
           d="m 74.621,83.332 h 37.125 v 37.125 H 74.621 Z"
           style="fill:none;stroke:#000000;stroke-width:0.75;stroke-linecap:butt;stroke-linejoin:miter;stroke-miterlimit:4;stroke-dasharray:none;stroke-opacity:1"
           id="path4800"
           inkscape:connector-curvature="0" /></g><path
         d="m 148.867,83.332 h 37.125 v 37.125 h -37.125 z"
         style="fill:#000000;fill-opacity:0.17676799;fill-rule:nonzero;stroke:none"
         id="path4802"
         inkscape:connector-curvature="0" /><g
         id="g4804"><path
           d="m 148.867,83.332 h 37.125 v 37.125 h -37.125 z"
           style="fill:none;stroke:#000000;stroke-width:0.75;stroke-linecap:butt;stroke-linejoin:miter;stroke-miterlimit:4;stroke-dasharray:none;stroke-opacity:1"
           id="path4806"
           inkscape:connector-curvature="0" /></g><path
         d="m 111.746,83.332 h 37.121 v 37.125 h -37.121 z"
         style="fill:#000000;fill-opacity:0.17676799;fill-rule:nonzero;stroke:none"
         id="path4808"
         inkscape:connector-curvature="0" /><g
         id="g4810"><path
           d="m 111.746,83.332 h 37.121 v 37.125 h -37.121 z"
           style="fill:none;stroke:#000000;stroke-width:0.75;stroke-linecap:butt;stroke-linejoin:miter;stroke-miterlimit:4;stroke-dasharray:none;stroke-opacity:1"
           id="path4812"
           inkscape:connector-curvature="0" /></g><path
         d="m 260.238,83.332 h 37.121 v 37.125 h -37.121 z"
         style="fill:#000000;fill-opacity:0.17676799;fill-rule:nonzero;stroke:none"
         id="path4814"
         inkscape:connector-curvature="0" /><g
         id="g4816"><path
           d="m 260.238,83.332 h 37.121 v 37.125 h -37.121 z"
           style="fill:none;stroke:#000000;stroke-width:0.75;stroke-linecap:butt;stroke-linejoin:miter;stroke-miterlimit:4;stroke-dasharray:none;stroke-opacity:1"
           id="path4818"
           inkscape:connector-curvature="0" /></g><path
         d="m 223.113,83.332 h 37.125 v 37.125 h -37.125 z"
         style="fill:#000000;fill-opacity:0.17676799;fill-rule:nonzero;stroke:none"
         id="path4820"
         inkscape:connector-curvature="0" /><g
         id="g4822"><path
           d="m 223.113,83.332 h 37.125 v 37.125 h -37.125 z"
           style="fill:none;stroke:#000000;stroke-width:0.75;stroke-linecap:butt;stroke-linejoin:miter;stroke-miterlimit:4;stroke-dasharray:none;stroke-opacity:1"
           id="path4824"
           inkscape:connector-curvature="0" /></g><path
         d="m 185.992,83.332 h 37.121 v 37.125 h -37.121 z"
         style="fill:#000000;fill-opacity:0.17676799;fill-rule:nonzero;stroke:none"
         id="path4826"
         inkscape:connector-curvature="0" /><g
         id="g4828"><path
           d="m 185.992,83.332 h 37.121 v 37.125 h -37.121 z"
           style="fill:none;stroke:#000000;stroke-width:0.75;stroke-linecap:butt;stroke-linejoin:miter;stroke-miterlimit:4;stroke-dasharray:none;stroke-opacity:1"
           id="path4830"
           inkscape:connector-curvature="0" /></g><path
         d="m 297.359,83.332 h 37.125 v 37.125 h -37.125 z"
         style="fill:#000000;fill-opacity:0.17676799;fill-rule:nonzero;stroke:none"
         id="path4832"
         inkscape:connector-curvature="0" /><g
         id="g4834"><path
           d="m 297.359,83.332 h 37.125 v 37.125 h -37.125 z"
           style="fill:none;stroke:#000000;stroke-width:0.75;stroke-linecap:butt;stroke-linejoin:miter;stroke-miterlimit:4;stroke-dasharray:none;stroke-opacity:1"
           id="path4836"
           inkscape:connector-curvature="0" /></g><path
         d="M 0.375,83.332 H 37.5 v 37.125 H 0.375 Z"
         style="fill:#ffffff;fill-opacity:0.58838397;fill-rule:nonzero;stroke:none"
         id="path4838"
         inkscape:connector-curvature="0" /><g
         id="g4840"><path
           d="M 0.375,83.332 H 37.5 v 37.125 H 0.375 Z"
           style="fill:none;stroke:#000000;stroke-width:0.75;stroke-linecap:butt;stroke-linejoin:miter;stroke-miterlimit:4;stroke-dasharray:none;stroke-opacity:1"
           id="path4842"
           inkscape:connector-curvature="0" /></g><path
         d="m 47.23,91.605 c 1.184,1.04 2.305,2.157 3.403,3.286 1.347,1.379 2.613,2.836 3.875,4.289 1.23,1.504 2.527,2.953 3.894,4.332 1.004,1.027 2,2.074 3.043,3.066 0.668,0.649 1.43,1.188 2.11,1.824 0.402,0.207 0.578,0.797 1.019,0.922 0,0 -3.351,2.184 -3.351,2.184 -0.395,-0.293 -0.668,-0.711 -1.055,-1.016 -0.676,-0.637 -1.418,-1.195 -2.086,-1.844 -1.031,-1.007 -2.016,-2.062 -3.019,-3.097 -1.36,-1.395 -2.653,-2.852 -3.895,-4.356 -1.258,-1.453 -2.527,-2.894 -3.875,-4.261 -1.098,-1.125 -2.211,-2.246 -3.438,-3.235 0,0 3.375,-2.094 3.375,-2.094 z"
         style="fill:#000000;fill-opacity:1;fill-rule:nonzero;stroke:none"
         id="path4866"
         inkscape:connector-curvature="0" /><path
         d="m 62.438,91.656 c -0.864,1.629 -1.715,3.266 -2.622,4.875 -1.062,1.942 -2.277,3.789 -3.527,5.614 -1.234,1.718 -2.519,3.398 -3.797,5.085 -1.066,1.383 -2.203,2.696 -3.429,3.934 -0.747,0.754 -1.614,1.367 -2.504,1.938 -0.438,0.269 -0.231,0.136 -0.633,0.402 0,0 -3.696,1.461 -3.696,1.461 0.391,-0.305 0.18,-0.16 0.629,-0.43 0.914,-0.531 1.789,-1.148 2.571,-1.867 1.242,-1.223 2.41,-2.516 3.484,-3.895 1.274,-1.687 2.563,-3.371 3.813,-5.074 1.253,-1.816 2.476,-3.644 3.535,-5.582 0.894,-1.582 1.734,-3.191 2.562,-4.812 0,0 3.614,-1.649 3.614,-1.649 z"
         style="fill:#000000;fill-opacity:1;fill-rule:nonzero;stroke:none"
         id="path4868"
         inkscape:connector-curvature="0" /><path
         d="m 84.465,90.801 c 1.183,1.039 2.305,2.156 3.402,3.289 1.348,1.375 2.61,2.832 3.871,4.289 1.235,1.5 2.528,2.949 3.895,4.328 1.008,1.031 2,2.074 3.043,3.07 0.672,0.645 1.433,1.184 2.109,1.821 0.406,0.211 0.578,0.797 1.02,0.925 0,0 -3.352,2.18 -3.352,2.18 -0.39,-0.293 -0.668,-0.711 -1.055,-1.015 -0.675,-0.637 -1.418,-1.196 -2.082,-1.844 -1.031,-1.008 -2.015,-2.063 -3.019,-3.094 -1.359,-1.398 -2.656,-2.852 -3.895,-4.359 -1.257,-1.45 -2.527,-2.891 -3.879,-4.262 -1.097,-1.121 -2.21,-2.246 -3.433,-3.234 0,0 3.375,-2.094 3.375,-2.094 z"
         style="fill:#000000;fill-opacity:1;fill-rule:nonzero;stroke:none"
         id="path4870"
         inkscape:connector-curvature="0" /><path
         d="m 99.668,90.852 c -0.859,1.632 -1.715,3.265 -2.621,4.875 -1.063,1.941 -2.274,3.789 -3.524,5.613 -1.234,1.719 -2.523,3.402 -3.8,5.09 -1.063,1.379 -2.203,2.691 -3.426,3.929 -0.746,0.758 -1.613,1.371 -2.504,1.942 -0.441,0.269 -0.23,0.133 -0.633,0.398 0,0 -3.699,1.465 -3.699,1.465 0.391,-0.309 0.184,-0.16 0.629,-0.434 0.918,-0.531 1.793,-1.148 2.57,-1.863 1.246,-1.226 2.41,-2.519 3.485,-3.898 1.277,-1.688 2.562,-3.367 3.816,-5.074 1.25,-1.813 2.477,-3.645 3.535,-5.582 0.891,-1.583 1.734,-3.192 2.559,-4.809 0,0 3.613,-1.652 3.613,-1.652 z"
         style="fill:#000000;fill-opacity:1;fill-rule:nonzero;stroke:none"
         id="path4872"
         inkscape:connector-curvature="0" /><path
         d="m 123.035,90.801 c 1.184,1.039 2.305,2.156 3.403,3.289 1.347,1.375 2.609,2.832 3.875,4.289 1.23,1.5 2.523,2.949 3.89,4.328 1.008,1.031 2.004,2.074 3.047,3.07 0.668,0.645 1.43,1.184 2.109,1.821 0.403,0.211 0.575,0.797 1.016,0.925 0,0 -3.352,2.18 -3.352,2.18 -0.39,-0.293 -0.668,-0.711 -1.05,-1.015 -0.676,-0.637 -1.422,-1.196 -2.086,-1.844 -1.032,-1.008 -2.016,-2.063 -3.02,-3.094 -1.359,-1.398 -2.656,-2.852 -3.894,-4.359 -1.258,-1.45 -2.528,-2.891 -3.875,-4.262 -1.102,-1.121 -2.211,-2.246 -3.438,-3.234 0,0 3.375,-2.094 3.375,-2.094 z"
         style="fill:#000000;fill-opacity:1;fill-rule:nonzero;stroke:none"
         id="path4874"
         inkscape:connector-curvature="0" /><path
         d="m 138.242,90.852 c -0.863,1.632 -1.719,3.265 -2.625,4.875 -1.058,1.941 -2.273,3.789 -3.523,5.613 -1.235,1.719 -2.524,3.402 -3.801,5.09 -1.063,1.379 -2.203,2.691 -3.426,3.929 -0.746,0.758 -1.613,1.371 -2.504,1.942 -0.441,0.269 -0.23,0.133 -0.633,0.398 0,0 -3.699,1.465 -3.699,1.465 0.395,-0.309 0.184,-0.16 0.633,-0.434 0.914,-0.531 1.789,-1.148 2.57,-1.863 1.243,-1.226 2.407,-2.519 3.481,-3.898 1.277,-1.688 2.562,-3.367 3.816,-5.074 1.25,-1.813 2.477,-3.645 3.535,-5.582 0.895,-1.583 1.735,-3.192 2.563,-4.809 0,0 3.613,-1.652 3.613,-1.652 z"
         style="fill:#000000;fill-opacity:1;fill-rule:nonzero;stroke:none"
         id="path4876"
         inkscape:connector-curvature="0" /><path
         d="m 159.195,90.266 c 1.184,1.039 2.305,2.156 3.403,3.289 1.347,1.375 2.613,2.832 3.875,4.285 1.23,1.504 2.523,2.953 3.894,4.332 1.004,1.031 2,2.074 3.043,3.066 0.668,0.649 1.43,1.188 2.11,1.825 0.402,0.21 0.578,0.796 1.015,0.921 0,0 -3.351,2.184 -3.351,2.184 -0.391,-0.293 -0.664,-0.711 -1.051,-1.016 -0.676,-0.636 -1.418,-1.195 -2.086,-1.843 -1.031,-1.008 -2.016,-2.063 -3.02,-3.098 -1.359,-1.395 -2.656,-2.852 -3.894,-4.356 -1.258,-1.449 -2.528,-2.89 -3.875,-4.261 -1.102,-1.121 -2.211,-2.246 -3.438,-3.235 0,0 3.375,-2.093 3.375,-2.093 z"
         style="fill:#000000;fill-opacity:1;fill-rule:nonzero;stroke:none"
         id="path4878"
         inkscape:connector-curvature="0" /><path
         d="m 174.402,90.316 c -0.863,1.629 -1.718,3.266 -2.621,4.875 -1.062,1.942 -2.277,3.789 -3.527,5.614 -1.234,1.718 -2.52,3.402 -3.797,5.09 -1.066,1.378 -2.207,2.691 -3.43,3.929 -0.746,0.758 -1.613,1.371 -2.504,1.942 -0.441,0.265 -0.23,0.132 -0.632,0.398 0,0 -3.696,1.461 -3.696,1.461 0.391,-0.305 0.18,-0.16 0.629,-0.43 0.914,-0.531 1.789,-1.148 2.571,-1.863 1.242,-1.227 2.406,-2.519 3.48,-3.898 1.277,-1.688 2.566,-3.368 3.816,-5.075 1.25,-1.816 2.477,-3.644 3.536,-5.582 0.894,-1.582 1.734,-3.191 2.562,-4.812 0,0 3.613,-1.649 3.613,-1.649 z"
         style="fill:#000000;fill-opacity:1;fill-rule:nonzero;stroke:none"
         id="path4880"
         inkscape:connector-curvature="0" /><path
         d="m 198.84,89.996 c 1.183,1.043 2.305,2.156 3.402,3.289 1.348,1.379 2.61,2.832 3.871,4.289 1.235,1.504 2.528,2.949 3.895,4.328 1.008,1.032 2,2.078 3.043,3.071 0.672,0.648 1.433,1.183 2.109,1.82 0.406,0.211 0.578,0.797 1.02,0.926 0,0 -3.352,2.183 -3.352,2.183 -0.39,-0.297 -0.668,-0.714 -1.055,-1.019 -0.675,-0.637 -1.418,-1.195 -2.082,-1.84 -1.031,-1.008 -2.015,-2.063 -3.019,-3.098 -1.359,-1.398 -2.656,-2.851 -3.895,-4.359 -1.257,-1.449 -2.527,-2.891 -3.879,-4.258 -1.097,-1.125 -2.21,-2.25 -3.433,-3.234 0,0 3.375,-2.098 3.375,-2.098 z"
         style="fill:#000000;fill-opacity:1;fill-rule:nonzero;stroke:none"
         id="path4882"
         inkscape:connector-curvature="0" /><path
         d="m 214.043,90.047 c -0.859,1.633 -1.715,3.269 -2.621,4.875 -1.063,1.945 -2.274,3.793 -3.524,5.617 -1.234,1.719 -2.523,3.399 -3.8,5.086 -1.063,1.379 -2.203,2.691 -3.426,3.934 -0.746,0.754 -1.613,1.367 -2.504,1.937 -0.441,0.27 -0.23,0.133 -0.633,0.402 0,0 -3.699,1.461 -3.699,1.461 0.391,-0.304 0.184,-0.16 0.629,-0.433 0.918,-0.531 1.793,-1.145 2.57,-1.863 1.246,-1.227 2.41,-2.52 3.485,-3.899 1.277,-1.687 2.562,-3.367 3.816,-5.074 1.25,-1.813 2.477,-3.645 3.535,-5.578 0.891,-1.586 1.734,-3.196 2.559,-4.813 0,0 3.613,-1.652 3.613,-1.652 z"
         style="fill:#000000;fill-opacity:1;fill-rule:nonzero;stroke:none"
         id="path4884"
         inkscape:connector-curvature="0" /><path
         d="m 235.07,90.563 c 1.184,1.042 2.305,2.156 3.403,3.289 1.347,1.378 2.613,2.836 3.875,4.289 1.23,1.504 2.527,2.949 3.894,4.328 1.004,1.031 2,2.078 3.043,3.07 0.668,0.649 1.43,1.188 2.11,1.82 0.402,0.211 0.578,0.797 1.019,0.926 0,0 -3.351,2.184 -3.351,2.184 -0.395,-0.297 -0.668,-0.711 -1.055,-1.02 -0.676,-0.633 -1.418,-1.195 -2.086,-1.84 -1.031,-1.007 -2.016,-2.062 -3.02,-3.097 -1.359,-1.399 -2.656,-2.852 -3.894,-4.356 -1.258,-1.453 -2.528,-2.894 -3.875,-4.261 -1.098,-1.125 -2.211,-2.25 -3.438,-3.235 0,0 3.375,-2.097 3.375,-2.097 z"
         style="fill:#000000;fill-opacity:1;fill-rule:nonzero;stroke:none"
         id="path4886"
         inkscape:connector-curvature="0" /><path
         d="m 250.277,90.613 c -0.863,1.633 -1.714,3.27 -2.621,4.879 -1.062,1.942 -2.277,3.789 -3.527,5.613 -1.234,1.719 -2.52,3.399 -3.797,5.086 -1.066,1.383 -2.203,2.696 -3.43,3.934 -0.746,0.754 -1.613,1.367 -2.504,1.938 -0.441,0.269 -0.23,0.136 -0.632,0.402 0,0 -3.696,1.461 -3.696,1.461 0.391,-0.305 0.18,-0.16 0.629,-0.434 0.914,-0.531 1.789,-1.144 2.571,-1.863 1.242,-1.227 2.41,-2.52 3.484,-3.895 1.273,-1.691 2.562,-3.371 3.812,-5.078 1.25,-1.812 2.477,-3.644 3.536,-5.578 0.894,-1.586 1.734,-3.195 2.562,-4.812 0,0 3.613,-1.653 3.613,-1.653 z"
         style="fill:#000000;fill-opacity:1;fill-rule:nonzero;stroke:none"
         id="path4888"
         inkscape:connector-curvature="0" /><path
         d="m 270.867,90.184 c 1.184,1.043 2.305,2.156 3.403,3.289 1.347,1.379 2.613,2.836 3.875,4.289 1.23,1.504 2.527,2.949 3.894,4.328 1.008,1.031 2,2.078 3.043,3.07 0.668,0.649 1.43,1.188 2.109,1.82 0.403,0.211 0.579,0.797 1.02,0.926 0,0 -3.352,2.184 -3.352,2.184 -0.394,-0.297 -0.668,-0.711 -1.054,-1.02 -0.676,-0.632 -1.418,-1.195 -2.086,-1.84 -1.031,-1.007 -2.016,-2.062 -3.02,-3.097 -1.359,-1.399 -2.652,-2.852 -3.894,-4.356 -1.258,-1.453 -2.528,-2.894 -3.875,-4.261 -1.098,-1.125 -2.211,-2.25 -3.438,-3.235 0,0 3.375,-2.097 3.375,-2.097 z"
         style="fill:#000000;fill-opacity:1;fill-rule:nonzero;stroke:none"
         id="path4890"
         inkscape:connector-curvature="0" /><path
         d="m 286.074,90.234 c -0.863,1.633 -1.715,3.27 -2.621,4.879 -1.062,1.942 -2.277,3.789 -3.527,5.614 -1.235,1.718 -2.52,3.398 -3.797,5.086 -1.066,1.382 -2.203,2.695 -3.43,3.933 -0.746,0.754 -1.613,1.367 -2.504,1.938 -0.437,0.269 -0.23,0.136 -0.632,0.402 0,0 -3.696,1.461 -3.696,1.461 0.391,-0.305 0.184,-0.16 0.629,-0.434 0.914,-0.531 1.789,-1.144 2.57,-1.863 1.243,-1.227 2.411,-2.516 3.485,-3.895 1.277,-1.687 2.562,-3.371 3.812,-5.078 1.254,-1.812 2.481,-3.644 3.535,-5.578 0.895,-1.586 1.735,-3.195 2.563,-4.812 0,0 3.613,-1.653 3.613,-1.653 z"
         style="fill:#000000;fill-opacity:1;fill-rule:nonzero;stroke:none"
         id="path4892"
         inkscape:connector-curvature="0" /><path
         d="m 309.316,89.809 c 1.184,1.039 2.305,2.156 3.403,3.285 1.347,1.379 2.613,2.836 3.875,4.289 1.23,1.504 2.527,2.949 3.894,4.328 1.004,1.031 2,2.078 3.043,3.07 0.668,0.649 1.43,1.188 2.11,1.821 0.402,0.211 0.578,0.796 1.019,0.925 0,0 -3.351,2.184 -3.351,2.184 -0.395,-0.297 -0.668,-0.711 -1.055,-1.02 -0.676,-0.632 -1.418,-1.195 -2.086,-1.839 -1.031,-1.008 -2.016,-2.063 -3.02,-3.098 -1.359,-1.399 -2.652,-2.852 -3.894,-4.356 -1.258,-1.453 -2.527,-2.894 -3.875,-4.261 -1.098,-1.125 -2.211,-2.25 -3.438,-3.235 0,0 3.375,-2.093 3.375,-2.093 z"
         style="fill:#000000;fill-opacity:1;fill-rule:nonzero;stroke:none"
         id="path4894"
         inkscape:connector-curvature="0" /><path
         d="m 324.523,89.855 c -0.863,1.633 -1.714,3.27 -2.621,4.879 -1.062,1.942 -2.277,3.789 -3.527,5.614 -1.234,1.718 -2.52,3.398 -3.797,5.086 -1.066,1.382 -2.203,2.695 -3.43,3.933 -0.746,0.754 -1.613,1.367 -2.503,1.938 -0.438,0.269 -0.231,0.136 -0.633,0.402 0,0 -3.696,1.461 -3.696,1.461 0.391,-0.305 0.18,-0.16 0.629,-0.43 0.914,-0.535 1.789,-1.148 2.571,-1.867 1.242,-1.226 2.41,-2.516 3.484,-3.894 1.273,-1.688 2.563,-3.372 3.813,-5.079 1.253,-1.812 2.476,-3.644 3.535,-5.578 0.894,-1.586 1.734,-3.195 2.562,-4.812 0,0 3.613,-1.653 3.613,-1.653 z"
         style="fill:#000000;fill-opacity:1;fill-rule:nonzero;stroke:none"
         id="path4896"
         inkscape:connector-curvature="0" /><path
         d="m 48.294963,8.4498005 c 1.184,1.0390001 2.305,2.1560005 3.403,3.2850005 1.347,1.378999 2.613,2.835999 3.875,4.288999 1.23,1.504001 2.527,2.949 3.894,4.328001 1.004,1.031 2,2.078 3.043,3.069999 0.668,0.649 1.43,1.188 2.11,1.821 0.402,0.211 0.578,0.796 1.019,0.925 0,0 -3.351,2.184 -3.351,2.184 -0.395,-0.297 -0.668,-0.711 -1.055,-1.02 -0.676,-0.631999 -1.418,-1.195 -2.086,-1.839 -1.031,-1.008 -2.016,-2.062999 -3.02,-3.097999 -1.359,-1.399 -2.652,-2.852001 -3.894,-4.356 -1.258,-1.453 -2.527,-2.894001 -3.875,-4.261001 -1.098,-1.125 -2.211,-2.249999 -3.438,-3.234999 0,0 3.375,-2.0930005 3.375,-2.0930005 z"
         style="fill:#000000;fill-opacity:1;fill-rule:nonzero;stroke:none;stroke-width:0.99999994"
         id="path4894-5"
         inkscape:connector-curvature="0" /><path
         d="m 63.501963,8.4958005 c -0.863,1.6330005 -1.714,3.2699995 -2.621,4.8789995 -1.062,1.942001 -2.277,3.789 -3.527,5.614001 -1.234,1.717999 -2.52,3.397999 -3.797,5.086 -1.066,1.381999 -2.203,2.694999 -3.43,3.933 -0.746,0.753999 -1.613,1.366999 -2.503,1.938 -0.438,0.268999 -0.231,0.136 -0.633,0.402 0,0 -3.696,1.461 -3.696,1.461 0.391,-0.305 0.18,-0.160001 0.629,-0.430001 0.914,-0.534999 1.789,-1.147999 2.571,-1.866999 1.242,-1.226001 2.41,-2.516001 3.484,-3.894001 1.273,-1.688 2.563,-3.372 3.813,-5.079 1.253,-1.812 2.476,-3.643999 3.535,-5.578 0.894,-1.586 1.734,-3.195 2.562,-4.811999 0,0 3.613,-1.6530005 3.613,-1.6530005 z"
         style="fill:#000000;fill-opacity:1;fill-rule:nonzero;stroke:none;stroke-width:0.99999994"
         id="path4896-3"
         inkscape:connector-curvature="0" /><path
         d="m 85.423567,8.2746656 c 1.184,1.039 2.305,2.1560004 3.403,3.2850004 1.347,1.379 2.613,2.836 3.875,4.288999 1.23,1.504001 2.527,2.949 3.894,4.328001 1.004,1.031 2,2.078 3.043,3.069999 0.667993,0.649 1.430003,1.188 2.110003,1.821 0.402,0.211 0.578,0.796 1.019,0.925 0,0 -3.351003,2.184 -3.351003,2.184 -0.395,-0.297 -0.668,-0.711 -1.055,-1.02 -0.676,-0.631999 -1.418,-1.195 -2.086,-1.839 -1.031,-1.008 -2.016,-2.062999 -3.02,-3.097999 -1.359,-1.399 -2.652,-2.852001 -3.894,-4.356 -1.258,-1.453 -2.527,-2.894 -3.875,-4.261 -1.098,-1.125001 -2.211,-2.25 -3.438,-3.235 0,0 3.375,-2.0930004 3.375,-2.0930004 z"
         style="fill:#000000;fill-opacity:1;fill-rule:nonzero;stroke:none;stroke-width:0.99999994"
         id="path4894-72"
         inkscape:connector-curvature="0" /><path
         d="m 100.63057,8.3206656 c -0.863003,1.633 -1.714003,3.2700004 -2.621003,4.8790004 -1.062,1.942 -2.277,3.788999 -3.527,5.614 -1.234,1.717999 -2.52,3.397999 -3.797,5.086 -1.066,1.381999 -2.203,2.694999 -3.43,3.933 -0.746,0.753999 -1.613,1.366999 -2.503,1.938 -0.438,0.268999 -0.231,0.136 -0.633,0.402 0,0 -3.696,1.461 -3.696,1.461 0.391,-0.305 0.18,-0.160001 0.629,-0.430001 0.914,-0.534999 1.789,-1.147999 2.571,-1.866999 1.242,-1.226001 2.41,-2.516001 3.484,-3.894001 1.273,-1.688 2.563,-3.372 3.813,-5.079 1.253,-1.812 2.476,-3.643999 3.535,-5.577999 0.894,-1.586 1.734,-3.195 2.562,-4.8120004 0,0 3.613003,-1.653 3.613003,-1.653 z"
         style="fill:#000000;fill-opacity:1;fill-rule:nonzero;stroke:none;stroke-width:0.99999994"
         id="path4896-4"
         inkscape:connector-curvature="0" /><path
         d="m 125.00406,7.7492609 c 1.184,1.039 2.305,2.156 3.403,3.2850001 1.347,1.379 2.613,2.836 3.875,4.289 1.23,1.504 2.527,2.949 3.894,4.328001 1.004,1.031 2,2.078 3.043,3.069999 0.668,0.649 1.43,1.188 2.11,1.821 0.402,0.211 0.578,0.796 1.019,0.925 0,0 -3.351,2.184 -3.351,2.184 -0.395,-0.297 -0.668,-0.711 -1.055,-1.02 -0.676,-0.631999 -1.418,-1.195 -2.086,-1.839 -1.031,-1.008 -2.016,-2.062999 -3.02,-3.097999 -1.359,-1.399 -2.652,-2.852001 -3.894,-4.356001 -1.258,-1.453 -2.527,-2.894 -3.875,-4.261 -1.098,-1.125 -2.211,-2.25 -3.438,-3.2350001 0,0 3.375,-2.093 3.375,-2.093 z"
         style="fill:#000000;fill-opacity:1;fill-rule:nonzero;stroke:none;stroke-width:0.99999994"
         id="path4894-8"
         inkscape:connector-curvature="0" /><path
         d="m 140.21106,7.7952609 c -0.863,1.633 -1.714,3.2700001 -2.621,4.8790001 -1.062,1.942 -2.277,3.789 -3.527,5.614001 -1.234,1.717999 -2.52,3.397999 -3.797,5.086 -1.066,1.381999 -2.203,2.694999 -3.43,3.933 -0.746,0.753999 -1.613,1.366999 -2.503,1.938 -0.438,0.268999 -0.231,0.136 -0.633,0.402 0,0 -3.696,1.461 -3.696,1.461 0.391,-0.305 0.18,-0.160001 0.629,-0.430001 0.914,-0.534999 1.789,-1.147999 2.571,-1.866999 1.242,-1.226001 2.41,-2.516001 3.484,-3.894001 1.273,-1.688 2.563,-3.372 3.813,-5.079 1.253,-1.812 2.476,-3.644 3.535,-5.578 0.894,-1.586 1.734,-3.195 2.562,-4.8120001 0,0 3.613,-1.653 3.613,-1.653 z"
         style="fill:#000000;fill-opacity:1;fill-rule:nonzero;stroke:none;stroke-width:0.99999994"
         id="path4896-0"
         inkscape:connector-curvature="0" /><path
         d="m 160.81915,6.873586 c 1.184,1.0390001 2.305,2.1559997 3.403,3.285001 1.347,1.379 2.613,2.836 3.875,4.289 1.23,1.504 2.527,2.949 3.894,4.328001 1.004,1.031 2,2.078 3.043,3.069998 0.668,0.649001 1.43,1.188 2.11,1.821 0.402,0.211001 0.578,0.796001 1.019,0.925001 0,0 -3.351,2.184 -3.351,2.184 -0.395,-0.297 -0.668,-0.711 -1.055,-1.02 -0.676,-0.632 -1.418,-1.195001 -2.086,-1.839 -1.031,-1.008 -2.016,-2.063 -3.02,-3.098 -1.359,-1.398999 -2.652,-2.852 -3.894,-4.356001 -1.258,-1.452999 -2.527,-2.893999 -3.875,-4.260999 -1.098,-1.125 -2.211,-2.2500003 -3.438,-3.2350013 0,0 3.375,-2.0929997 3.375,-2.0929997 z"
         style="fill:#000000;fill-opacity:1;fill-rule:nonzero;stroke:none;stroke-width:0.99999994"
         id="path4894-7-1"
         inkscape:connector-curvature="0" /><path
         d="m 176.02615,6.919586 c -0.863,1.6329997 -1.714,3.270001 -2.621,4.879001 -1.062,1.942 -2.277,3.789 -3.527,5.614 -1.234,1.718 -2.52,3.397999 -3.797,5.086 -1.066,1.382 -2.203,2.694999 -3.43,3.933 -0.746,0.753999 -1.613,1.367 -2.503,1.938001 -0.438,0.268999 -0.231,0.136 -0.633,0.402 0,0 -3.696,1.461 -3.696,1.461 0.391,-0.305001 0.18,-0.160002 0.629,-0.430001 0.914,-0.534999 1.789,-1.147999 2.571,-1.866999 1.242,-1.226001 2.41,-2.516001 3.484,-3.894002 1.273,-1.687999 2.563,-3.372 3.813,-5.078999 1.253,-1.812 2.476,-3.644 3.535,-5.578 0.894,-1.586 1.734,-3.195 2.562,-4.8120013 0,0 3.613,-1.6529997 3.613,-1.6529997 z"
         style="fill:#000000;fill-opacity:1;fill-rule:nonzero;stroke:none;stroke-width:0.99999994"
         id="path4896-8-3"
         inkscape:connector-curvature="0" /><path
         d="m 196.72181,7.5741257 c 1.184,1.039 2.305,2.156001 3.403,3.2850013 1.347,1.378999 2.613,2.835999 3.875,4.288999 1.23,1.504 2.527,2.949 3.894,4.328001 1.004,1.031 2,2.078 3.043,3.069998 0.668,0.649001 1.43,1.188 2.11,1.821 0.402,0.211001 0.578,0.796001 1.019,0.925001 0,0 -3.351,2.184 -3.351,2.184 -0.395,-0.297 -0.668,-0.711 -1.055,-1.02 -0.676,-0.632 -1.418,-1.195001 -2.086,-1.839 -1.031,-1.008 -2.016,-2.063 -3.02,-3.098 -1.359,-1.398999 -2.652,-2.852 -3.894,-4.355999 -1.258,-1.453001 -2.527,-2.894001 -3.875,-4.261001 -1.098,-1.125 -2.211,-2.249999 -3.438,-3.2349993 0,0 3.375,-2.093001 3.375,-2.093001 z"
         style="fill:#000000;fill-opacity:1;fill-rule:nonzero;stroke:none;stroke-width:0.99999994"
         id="path4894-5-4"
         inkscape:connector-curvature="0" /><path
         d="m 211.92881,7.6201257 c -0.863,1.633001 -1.714,3.2700003 -2.621,4.8789993 -1.062,1.942001 -2.277,3.789001 -3.527,5.614002 -1.234,1.717999 -2.52,3.397998 -3.797,5.085999 -1.066,1.382 -2.203,2.694999 -3.43,3.933 -0.746,0.754 -1.613,1.367 -2.503,1.938001 -0.438,0.268999 -0.231,0.136 -0.633,0.402 0,0 -3.696,1.461 -3.696,1.461 0.391,-0.305001 0.18,-0.160002 0.629,-0.430002 0.914,-0.534999 1.789,-1.147998 2.571,-1.866998 1.242,-1.226001 2.41,-2.516001 3.484,-3.894002 1.273,-1.687999 2.563,-3.372 3.813,-5.078999 1.253,-1.812 2.476,-3.644 3.535,-5.578 0.894,-1.586001 1.734,-3.195 2.562,-4.8119993 0,0 3.613,-1.653001 3.613,-1.653001 z"
         style="fill:#000000;fill-opacity:1;fill-rule:nonzero;stroke:none;stroke-width:0.99999994"
         id="path4896-3-1"
         inkscape:connector-curvature="0" /><path
         d="m 233.85041,7.3989908 c 1.184,1.0389999 2.30501,2.1559999 3.40301,3.2850002 1.347,1.379001 2.613,2.836001 3.87499,4.288999 1.23,1.504002 2.52701,2.949001 3.894,4.328002 1.00401,1.031 2.00001,2.078 3.04301,3.069999 0.66799,0.648999 1.43,1.188 2.11,1.821 0.402,0.210999 0.578,0.795999 1.019,0.924999 0,0 -3.351,2.184 -3.351,2.184 -0.395,-0.297 -0.668,-0.711 -1.055,-1.02 -0.676,-0.631998 -1.41801,-1.194999 -2.086,-1.839 -1.031,-1.008 -2.016,-2.062998 -3.02,-3.097998 -1.359,-1.399 -2.652,-2.852001 -3.894,-4.356001 -1.258,-1.452999 -2.527,-2.893999 -3.87501,-4.260999 -1.098,-1.125001 -2.211,-2.250001 -3.43799,-3.2350013 0,0 3.37499,-2.0929999 3.37499,-2.0929999 z"
         style="fill:#000000;fill-opacity:1;fill-rule:nonzero;stroke:none;stroke-width:0.99999994"
         id="path4894-72-0"
         inkscape:connector-curvature="0" /><path
         d="m 249.05742,7.4449908 c -0.863,1.6329999 -1.714,3.2700012 -2.621,4.8790012 -1.062,1.942 -2.277,3.788998 -3.527,5.614 -1.234,1.717999 -2.52,3.397999 -3.79701,5.086 -1.06599,1.381998 -2.20299,2.694999 -3.43,3.933 -0.746,0.753999 -1.613,1.366999 -2.50299,1.938 -0.438,0.268999 -0.231,0.136 -0.633,0.402 0,0 -3.696,1.461 -3.696,1.461 0.39099,-0.305 0.18,-0.160001 0.629,-0.430001 0.91399,-0.534999 1.789,-1.147999 2.57099,-1.866999 1.242,-1.226002 2.41001,-2.516002 3.48401,-3.894001 1.273,-1.688001 2.563,-3.372 3.813,-5.079 1.25299,-1.812001 2.476,-3.643999 3.535,-5.577999 0.894,-1.586 1.734,-3.195 2.562,-4.8120013 0,0 3.613,-1.6529999 3.613,-1.6529999 z"
         style="fill:#000000;fill-opacity:1;fill-rule:nonzero;stroke:none;stroke-width:0.99999994"
         id="path4896-4-9"
         inkscape:connector-curvature="0" /><path
         d="m 273.43091,6.8735861 c 1.184,1.0390001 2.305,2.1559996 3.403,3.2850009 1.347,1.379 2.613,2.836 3.875,4.289 1.23,1.504 2.527,2.949 3.894,4.328001 1.004,1.031 2,2.078 3.043,3.069998 0.668,0.649001 1.43,1.188 2.11,1.821 0.402,0.211001 0.578,0.796001 1.019,0.925001 0,0 -3.351,2.184 -3.351,2.184 -0.395,-0.297 -0.668,-0.711 -1.055,-1.02 -0.676,-0.632 -1.418,-1.195001 -2.086,-1.839 -1.031,-1.008 -2.016,-2.063 -3.02,-3.098 -1.359,-1.398999 -2.652,-2.852 -3.894,-4.356001 -1.258,-1.452999 -2.527,-2.893999 -3.875,-4.260999 -1.098,-1.125 -2.211,-2.2500003 -3.438,-3.2350013 0,0 3.375,-2.0929996 3.375,-2.0929996 z"
         style="fill:#000000;fill-opacity:1;fill-rule:nonzero;stroke:none;stroke-width:0.99999994"
         id="path4894-8-1"
         inkscape:connector-curvature="0" /><path
         d="m 288.63791,6.9195861 c -0.863,1.6329996 -1.714,3.2700009 -2.621,4.8790009 -1.062,1.942 -2.277,3.789 -3.527,5.614 -1.234,1.718 -2.52,3.397999 -3.797,5.086 -1.066,1.382 -2.203,2.694999 -3.43,3.933 -0.746,0.753999 -1.613,1.367 -2.503,1.938001 -0.438,0.268999 -0.231,0.136 -0.633,0.402 0,0 -3.696,1.461 -3.696,1.461 0.391,-0.305001 0.18,-0.160002 0.629,-0.430001 0.914,-0.534999 1.789,-1.147999 2.571,-1.866999 1.242,-1.226001 2.41,-2.516001 3.484,-3.894002 1.273,-1.687999 2.563,-3.372 3.813,-5.078999 1.253,-1.812 2.476,-3.644 3.535,-5.578 0.894,-1.586 1.734,-3.195 2.562,-4.8120013 0,0 3.613,-1.6529996 3.613,-1.6529996 z"
         style="fill:#000000;fill-opacity:1;fill-rule:nonzero;stroke:none;stroke-width:0.99999994"
         id="path4896-0-7"
         inkscape:connector-curvature="0" /><path
         d="m 309.77141,6.8735857 c 1.184,1.0390002 2.305,2.1559997 3.403,3.2850013 1.347,1.379 2.613,2.836 3.875,4.289 1.23,1.504 2.527,2.949 3.894,4.328 1.004,1.031 2,2.078 3.043,3.069998 0.668,0.649002 1.43,1.188 2.11,1.821 0.402,0.211002 0.578,0.796002 1.019,0.925002 0,0 -3.351,2.184 -3.351,2.184 -0.395,-0.297 -0.668,-0.711 -1.055,-1.02 -0.676,-0.632001 -1.418,-1.195002 -2.086,-1.839 -1.031,-1.008 -2.016,-2.063001 -3.02,-3.098001 -1.359,-1.398999 -2.652,-2.852 -3.894,-4.356 -1.258,-1.452999 -2.527,-2.893999 -3.875,-4.260999 -1.098,-1.125 -2.211,-2.2500006 -3.438,-3.2350016 0,0 3.375,-2.0929997 3.375,-2.0929997 z"
         style="fill:#000000;fill-opacity:1;fill-rule:nonzero;stroke:none;stroke-width:0.99999994"
         id="path4894-8-1-9"
         inkscape:connector-curvature="0" /><path
         d="m 324.97841,6.9195857 c -0.863,1.6329997 -1.714,3.2700013 -2.621,4.8790013 -1.062,1.942 -2.277,3.789 -3.527,5.613999 -1.234,1.718 -2.52,3.397999 -3.797,5.086 -1.066,1.382001 -2.203,2.694999 -3.43,3.933 -0.746,0.753999 -1.613,1.367001 -2.503,1.938001 -0.438,0.268999 -0.231,0.136 -0.633,0.402 0,0 -3.696,1.461 -3.696,1.461 0.391,-0.305001 0.18,-0.160002 0.629,-0.430001 0.914,-0.534999 1.789,-1.147999 2.571,-1.866999 1.242,-1.226 2.41,-2.516 3.484,-3.894002 1.273,-1.687998 2.563,-3.372 3.813,-5.078999 1.253,-1.811999 2.476,-3.643999 3.535,-5.577999 0.894,-1.586 1.734,-3.195 2.562,-4.8120017 0,0 3.613,-1.6529996 3.613,-1.6529996 z"
         style="fill:#000000;fill-opacity:1;fill-rule:nonzero;stroke:none;stroke-width:0.99999994"
         id="path4896-0-7-5"
         inkscape:connector-curvature="0" /><path
         d="m 12.809063,14.170468 c 0.668,1.344 1.313,2.699 1.891,4.086 0.578,1.285 1.152,2.574001 1.723,3.867001 0.429,0.925999 0.773,1.891 1.273,2.780999 -0.101,-0.011 0.195,0.242 0.242,0.160001 0.032,-0.05 0.059,-0.195 0.008,-0.168 -1.121,0.555 -2.16,1.266 -3.293,1.800999 -0.082,0.039 0.051,-0.179 0.07,-0.273 0.024,-0.102 0.043,-0.203 0.067,-0.309 0.242,-1.077999 0.676,-2.097 1.105,-3.112999 0.762,-1.77 1.925999,-3.324 3.120999,-4.824001 1.008,-1.203 2.024001,-2.414 3.168,-3.496 0.598001,-0.563 1.086,-0.942 1.719,-1.461 1.317,-1.055 2.731,-1.981 4.151999,-2.891 0,0 3.668001,-1.4219995 3.668001,-1.4219995 -1.448998,0.883 -2.862999,1.8319995 -4.210999,2.8629995 -0.483998,0.387 -1.291999,1.016 -1.745999,1.426 -1.155999,1.059 -2.167999,2.266 -3.183,3.457 -1.183999,1.461 -2.335999,2.981 -3.117,4.703 -0.403,0.993 -0.847999,1.977 -1.093999,3.028 -0.02,0.097 -0.047,0.199001 -0.063,0.301001 -0.019,0.105 0.039,0.252999 -0.047,0.319999 -1.663999,1.262 -2.858999,3.445001 -4.010999,1.879001 -0.489,-0.910001 -0.84,-1.887 -1.262,-2.832 -0.562,-1.297 -1.141,-2.586 -1.711,-3.879 -0.57,-1.371001 -1.191,-2.727001 -1.9180005,-4.020001 0,0 3.4490005,-1.984 3.4490005,-1.984 z"
         style="fill:#000000;fill-opacity:1;fill-rule:nonzero;stroke:none;stroke-width:0.99999994"
         id="path102"
         inkscape:connector-curvature="0" /><path
         d="m 12.189866,97.142662 c 0.668001,1.344 1.313,2.699 1.891001,4.085998 0.577999,1.285 1.152,2.574 1.723,3.867 0.429,0.926 0.772999,1.891 1.272999,2.781 -0.101,-0.011 0.195,0.242 0.242001,0.16 0.032,-0.05 0.059,-0.195 0.008,-0.168 -1.120999,0.555 -2.159999,1.266 -3.293,1.801 -0.082,0.039 0.051,-0.179 0.07,-0.273 0.024,-0.102 0.043,-0.203 0.067,-0.309 0.242,-1.078 0.676,-2.097 1.105,-3.113 0.762,-1.77 1.925998,-3.324 3.120999,-4.824 1.008,-1.202998 2.024001,-2.413998 3.168,-3.495998 0.598001,-0.563 1.086,-0.942 1.719,-1.461 1.316999,-1.055 2.731,-1.981 4.151999,-2.891 0,0 3.668001,-1.422 3.668001,-1.422 -1.448996,0.883 -2.862997,1.832 -4.210997,2.863 -0.483998,0.387 -1.292,1.016 -1.745999,1.426 -1.155999,1.059 -2.167999,2.266 -3.183,3.457 -1.183999,1.460998 -2.335999,2.980998 -3.117,4.702998 -0.403,0.993 -0.847999,1.977 -1.093999,3.028 -0.02,0.097 -0.047,0.199 -0.063,0.301 -0.019,0.105 0.039,0.253 -0.047,0.32 -1.663998,1.262 -2.858998,3.445 -4.010998,1.879 -0.489,-0.91 -0.84,-1.887 -1.262,-2.832 -0.562,-1.297 -1.141001,-2.586 -1.711001,-3.879 -0.569999,-1.371 -1.1909993,-2.727 -1.9180003,-4.019998 0,0 3.4490003,-1.984 3.4490003,-1.984 z"
         style="fill:#000000;fill-opacity:1;fill-rule:nonzero;stroke:none;stroke-width:0.99999994"
         id="path102-6"
         inkscape:connector-curvature="0" /></g><path
       style="fill:#000000;fill-opacity:0;stroke:none;stroke-width:0.52499998;stroke-miterlimit:4;stroke-dasharray:none;stroke-opacity:1"
       id="path4662"
       d="m 18.836636,11.424132 c 0.09535,-0.04237 0.192386,-0.08114 0.286049,-0.127126 0.203188,-0.09976 0.402239,-0.207729 0.602836,-0.312597 0.09387,-0.04907 0.37067,-0.205185 0.279009,-0.152098 -2.147289,1.243619 -2.419177,1.417264 -1.610836,0.912906 0.34703,-0.210715 0.626415,-0.474359 0.782528,-0.85103 0.0065,-0.015 0.0041,-0.05029 0.01956,-0.04499 0.02134,0.0073 0.01893,0.04093 0.02839,0.06139 0.711507,-0.331513 1.408926,-0.695112 2.134521,-0.9945391 0.04808,-0.01985 -0.04618,0.09328 -0.06653,0.1411511 -0.05588,0.131511 -0.103359,0.266428 -0.154855,0.399713 -0.237215,0.727683 -0.538499,1.432871 -0.86223,2.125708 -0.563807,1.158335 -1.093634,2.331344 -1.573803,3.526698 -0.606958,1.515267 -1.18149,3.04158 -1.733611,4.577455 -0.507739,1.306373 -1.031086,2.609149 -1.65039,3.86713 -0.451602,0.89456 -0.975569,1.742565 -1.605206,2.521809 -0.958059,1.136724 -2.312848,1.69884 -3.59321,2.433894 -0.4170577,0.16992 -0.8637323,0.337046 -1.308808,0.197909 -0.3363479,-0.173774 -0.4385871,-0.504239 -0.4950433,-0.85322 -0.032452,-0.394617 -0.041829,-0.792621 -0.014079,-1.187709 0.062103,-0.480789 0.3552108,-0.844653 0.6589416,-1.200156 0.719578,-0.822724 1.7535837,-1.15866 2.7200287,-1.704132 0,0 -1.9364133,1.535349 -1.9364133,1.535349 v 0 c 4.1203633,-2.40271 2.0431793,-1.3338 1.4840523,-0.792648 -0.278916,0.33264 -0.605691,0.625938 -0.714692,1.064871 -0.0576,0.372956 -0.02264,0.755322 -0.01035,1.131183 0.02862,0.247365 0.05716,0.520121 0.336528,0.593541 0.420058,0.02801 0.823486,-0.144568 1.194134,-0.325068 -3.6282919,2.122266 -1.759446,1.122365 -1.079637,0.562701 0.234263,-0.192859 0.296848,-0.27492 0.510644,-0.502167 0.656463,-0.755233 1.185559,-1.595856 1.651571,-2.480631 0.639113,-1.246348 1.156284,-2.55011 1.678446,-3.848765 0.560126,-1.533674 1.123316,-3.065127 1.727678,-4.58229 0.464999,-1.196507 0.982294,-2.370327 1.538094,-3.527549 0.323877,-0.678686 0.627627,-1.375525 0.842106,-2.09657 0.03109,-0.08112 0.200634,-0.562813 0.201069,-0.563081 0.508104,-0.311751 2.255343,-2.1488721 2.319567,-1.0773231 -0.154923,0.4122071 -0.343848,0.7615781 -0.738558,0.9978661 -1.193463,0.812092 -2.482739,1.469618 -3.7676,2.122031 0,0 1.920083,-1.549612 1.920083,-1.549612 z"
       inkscape:connector-curvature="0" /><path
       style="fill:#000000;fill-opacity:1;stroke:none;stroke-width:0.52499998;stroke-miterlimit:4;stroke-dasharray:none;stroke-opacity:1"
       id="path4700"
       d="m 16.348948,97.668821 c -0.01735,0.346635 -0.0218,0.693637 -0.03755,1.04043 -0.02337,0.61221 -0.06104,1.223722 -0.09112,1.835609 -0.03801,0.75305 -0.08339,1.50568 -0.140699,2.25751 -0.07533,0.80866 -0.153543,1.61688 -0.240903,2.42432 -0.08643,0.83161 -0.276164,1.64479 -0.503399,2.44763 -0.143561,0.49267 -0.310425,0.97919 -0.518375,1.44868 -0.121035,0.27326 -0.180234,0.38123 -0.314771,0.64608 -0.24912,0.47113 -0.523282,0.93088 -0.853186,1.35055 -0.05635,0.0717 -0.116624,0.14019 -0.174936,0.21028 -0.200726,0.22211 -0.416355,0.44103 -0.677395,0.59309 -1.543704,0.89921 -1.044408,0.67539 -1.753271,0.98352 -0.229563,0.0913 -0.472801,0.12648 -0.717624,0.14176 -0.02514,7.5e-4 -0.05028,0.002 -0.07542,0.002 0,0 1.386704,-1.01787 1.386704,-1.01787 v 0 c 0.02303,-7.5e-4 0.04605,-0.003 0.06908,-0.004 0.22817,-0.0227 0.451539,-0.0737 0.659602,-0.17322 0.590666,-0.29157 0.173969,-0.0901 -1.134389,0.67465 -0.05746,0.0336 0.116752,-0.064 0.173072,-0.0995 0.202234,-0.12732 0.384677,-0.28079 0.546389,-0.45686 0.0614,-0.0678 0.125136,-0.1336 0.184185,-0.20347 0.345048,-0.40835 0.625892,-0.86556 0.883564,-1.33242 0.351738,-0.66321 0.659072,-1.3494 0.863503,-2.07381 0.09728,-0.32675 0.142874,-0.46602 0.22509,-0.79857 0.131982,-0.53385 0.2206,-1.07709 0.285206,-1.62294 0.103399,-0.80337 0.165675,-1.61102 0.241882,-2.41728 0.05741,-0.74772 0.100584,-1.4964 0.13005,-2.24574 0.01984,-0.60604 0.05608,-1.21158 0.06071,-1.818049 0.004,-0.336233 0.01045,-0.673118 -0.0139,-1.00881 0,0 1.537894,-0.783593 1.537894,-0.783593 z"
       inkscape:connector-curvature="0" /><path
       style="fill:#000000;fill-opacity:1;stroke:none;stroke-width:0.52499998;stroke-miterlimit:4;stroke-dasharray:none;stroke-opacity:1"
       id="path4702"
       d="m 10.861687,98.973183 c -0.103785,-0.201825 -0.138198,-0.42507 -0.164668,-0.64764 -0.01835,-0.244567 -0.03957,-0.49239 0.0041,-0.735712 0.01065,-0.0594 0.02695,-0.117675 0.04043,-0.17652 0.122157,-0.408825 0.325576,-0.784643 0.55617,-1.14117 0.253124,-0.365198 0.574619,-0.67743 0.934724,-0.93663 0.08071,-0.05813 0.165038,-0.111008 0.247557,-0.166515 0.740565,-0.45075 1.483011,-0.906 2.281476,-1.247333 0.334087,-0.142822 0.676708,-0.256335 1.022778,-0.365602 0.745561,-0.230685 1.517335,-0.356513 2.290441,-0.449865 0.652605,-0.06458 1.309515,-0.102173 1.965453,-0.07892 0.12996,0.0045 0.25969,0.01432 0.389535,0.02145 0.480795,0.03923 0.962203,0.101828 1.427529,0.233235 0.246283,0.06952 0.369753,0.12225 0.607148,0.212393 0.349543,0.14868 0.688615,0.33291 0.980362,0.578595 0.168796,0.142147 0.224934,0.212917 0.374838,0.374812 0.302409,0.360398 0.549563,0.766838 0.736245,1.198665 0.03898,0.09016 0.07246,0.182603 0.108702,0.273908 0.161846,0.457545 0.267305,0.937965 0.28974,1.423762 0.0044,0.0965 0.002,0.1932 0.0028,0.2898 -0.01611,0.534263 -0.136972,1.059533 -0.335595,1.555035 -0.04301,0.107303 -0.09342,0.211485 -0.140137,0.317228 -0.270798,0.556071 -0.614015,1.076181 -1.024886,1.538961 -0.08525,0.096 -0.17629,0.18675 -0.264436,0.28012 -0.934178,0.92921 -2.137304,1.50561 -3.269394,2.14882 -0.413958,0.20645 -0.848379,0.37048 -1.299569,0.47393 -0.237766,0.0545 -0.337771,0.0656 -0.574607,0.10172 -0.377869,0.039 -0.759612,0.0874 -1.139029,0.0457 -0.186705,-0.0127 -0.340233,-0.0971 -0.460783,-0.23617 -0.08311,-0.10296 -0.119639,-0.22167 -0.111882,-0.35244 0.0054,-0.02 0.0081,-0.041 0.01623,-0.06 0.0089,-0.0211 0.01481,-0.0476 0.03447,-0.0593 1.287345,-0.76365 1.067505,-0.86124 1.925448,-0.91683 0.441534,-0.0242 0.881491,0.0263 1.31496,0.10599 0.485674,0.10434 0.94083,0.30842 1.368496,0.55677 0.281889,0.17955 0.549531,0.38931 0.75581,0.65484 0.03918,0.0505 0.07382,0.10425 0.110733,0.15636 0.22251,0.32697 0.403225,0.6806 0.595369,1.02591 0.214248,0.40242 0.405876,0.8159 0.618876,1.21905 0.153167,0.27236 0.289722,0.55385 0.45711,0.81803 0.111425,0.17584 0.130269,0.19666 0.251583,0.36481 0.181655,0.2253 0.367055,0.44922 0.581913,0.6441 0.128867,0.1169 0.200624,0.16755 0.338526,0.27351 0.234339,0.16398 0.488141,0.30171 0.762819,0.38478 0.163262,0.0494 0.230963,0.056 0.39836,0.0854 0.341559,0.0464 0.679752,-0.0134 1.000188,-0.13407 0.07289,-0.0275 0.143545,-0.0605 0.215319,-0.0908 0.51268,-0.25827 1.533692,-0.8047 -0.741209,0.4476 -0.07938,0.0437 0.152757,-0.0976 0.227037,-0.14949 0.190076,-0.13278 0.261689,-0.19629 0.4422,-0.34272 0.07054,-0.0636 0.141083,-0.12723 0.211623,-0.19086 0,0 1.52632,-0.62583 1.52632,-0.62583 v 0 c -0.06902,0.0663 -0.138048,0.13263 -0.207072,0.19893 -0.173407,0.14793 -0.251424,0.21921 -0.433266,0.35574 -0.717635,0.5388 -1.521023,0.96195 -2.335558,1.33526 -0.07589,0.0277 -0.150711,0.0584 -0.227673,0.0829 -0.341841,0.10883 -0.699168,0.13901 -1.052493,0.0713 -0.179113,-0.0398 -0.238789,-0.0474 -0.412618,-0.10915 -0.283335,-0.10073 -0.543935,-0.25381 -0.787502,-0.42848 -0.361005,-0.28443 -0.671487,-0.58751 -0.945013,-0.95884 -0.127376,-0.17874 -0.14009,-0.19062 -0.256164,-0.37744 -0.16664,-0.26822 -0.305229,-0.55202 -0.460419,-0.82677 -0.213545,-0.40125 -0.407006,-0.81249 -0.624603,-1.21158 -0.190115,-0.33921 -0.375737,-0.68282 -0.593007,-1.00542 -0.0347,-0.0478 -0.06744,-0.0971 -0.104076,-0.14339 -0.196022,-0.24785 -0.446951,-0.44658 -0.71297,-0.61411 -0.415737,-0.23576 -0.855855,-0.43001 -1.330005,-0.51167 -0.434697,-0.0671 -0.87562,-0.10505 -1.314308,-0.0496 -0.102526,0.0154 -0.171811,0.0214 -0.269516,0.0518 -0.0323,0.0101 -0.123225,0.0552 -0.09417,0.0379 0.465297,-0.27754 0.939975,-0.53925 1.403886,-0.8191 0.02597,-0.0157 -0.101952,0.0131 -0.08909,0.0186 -0.06473,0.0572 -0.02902,0.13506 0.01828,0.19342 0.103015,0.1007 0.231745,0.13334 0.374014,0.14295 0.358771,0.0246 0.719323,-0.004 1.075354,-0.0505 0.231485,-0.0381 0.319427,-0.0477 0.551694,-0.10659 0.438452,-0.11109 0.858833,-0.28272 1.260311,-0.48979 -0.34811,0.20547 -0.696528,0.41041 -1.044326,0.61641 -0.113589,0.0673 0.229466,-0.13073 0.341697,-0.20025 0.434607,-0.2692 0.847674,-0.57709 1.218185,-0.92969 0.08927,-0.0901 0.181567,-0.17734 0.267819,-0.27036 0.413161,-0.44556 0.75651,-0.95101 1.031284,-1.49235 0.0475,-0.10165 0.09895,-0.201561 0.142503,-0.304971 0.20016,-0.475245 0.326012,-0.979898 0.346635,-1.49595 8.25e-4,-0.09289 0.0053,-0.185835 0.0025,-0.2787 -0.0139,-0.470318 -0.109588,-0.937658 -0.264408,-1.38096 -0.03476,-0.08815 -0.06664,-0.17748 -0.104261,-0.264443 -0.180024,-0.416122 -0.421486,-0.805912 -0.717339,-1.14942 -0.149436,-0.156412 -0.195153,-0.213532 -0.361401,-0.351067 -0.28125,-0.232665 -0.601766,-0.41109 -0.939389,-0.547778 -0.242646,-0.09038 -0.337214,-0.13167 -0.58905,-0.200557 -0.455522,-0.124598 -0.925966,-0.184388 -1.396048,-0.21813 -0.128095,-0.006 -0.256099,-0.01417 -0.384284,-0.0174 -0.65168,-0.01628 -1.304053,0.0261 -1.951624,0.09616 -0.770119,0.102473 -1.538447,0.235313 -2.27826,0.479055 -0.458914,0.15462 -0.892497,0.319868 -1.327789,0.533648 -0.09841,0.0483 -0.386581,0.20655 -0.293036,0.14937 0.372925,-0.227955 0.754536,-0.44139 1.131804,-0.662078 -0.08248,0.05152 -0.166755,0.100313 -0.247455,0.154598 -0.357892,0.240742 -0.682966,0.532252 -0.941707,0.87825 -0.04306,0.06277 -0.08808,0.124282 -0.12919,0.18837 -0.179047,0.279105 -0.317589,0.582195 -0.432796,0.892477 -0.01457,0.05288 -0.03188,0.105083 -0.0437,0.158648 -0.05041,0.22839 -0.03205,0.46176 -0.01465,0.692692 0.02099,0.19866 0.04389,0.403995 0.154194,0.57612 0,0 -1.497199,0.861113 -1.497199,0.861113 z"
       inkscape:connector-curvature="0" /><path
       style="fill:#000000;fill-opacity:1;stroke:none;stroke-width:0.52499998;stroke-miterlimit:4;stroke-dasharray:none;stroke-opacity:1"
       id="path4740"
       d="m 14.626253,14.780796 c 0.554063,-1.041355 1.113251,-1.123902 2.290288,-1.807047 0.336044,-0.08626 0.649775,0.02049 0.955745,0.15559 0.317182,0.142583 0.618018,0.322126 0.944532,0.442488 0.311096,0.110406 0.627441,0.181486 0.955162,0.217507 0.341207,0.05377 0.667857,-0.02609 0.991436,-0.128721 0.05533,-0.02383 0.110031,-0.04922 0.166014,-0.07149 0.197702,-0.07865 0.151281,-0.04519 0.341706,-0.137661 0.05345,-0.02596 0.208759,-0.113591 0.157297,-0.08388 -1.527339,0.881769 -1.762258,1.032598 -1.197286,0.67671 0.237204,-0.174159 0.45967,-0.367043 0.594708,-0.631665 0.08363,-0.203531 0.09937,-0.415649 0.03824,-0.626348 -0.07761,-0.180315 -0.247866,-0.272541 -0.440228,-0.257646 0.06104,-0.107411 -0.283079,0.151874 -0.22164,0.117534 0.477014,-0.266613 0.941737,-0.554979 1.420803,-0.817887 0.03271,-0.01796 -0.05441,0.05146 -0.07756,0.08072 -0.02531,0.032 -0.04481,0.06819 -0.06722,0.102285 -0.148764,0.259786 -0.257304,0.539205 -0.377786,0.812446 -0.196252,0.390886 -0.345691,0.802886 -0.483438,1.217303 -0.209911,0.612849 -0.363295,1.242487 -0.529886,1.867935 -0.252335,0.887859 -0.400242,1.799479 -0.603585,2.698622 -0.283716,1.073885 -0.614577,2.13531 -0.964325,3.189387 -0.335798,1.012247 -0.772786,1.985711 -1.29019,2.917158 -0.327148,0.571965 -0.732192,1.075755 -1.262095,1.467639 -0.843088,0.55026 -1.50358,1.071546 -2.458806,1.117026 -0.324174,0.0297 -0.450602,-0.117336 -0.643492,-0.342105 -0.165476,-0.199626 -0.232069,-0.440841 -0.269102,-0.691851 -0.03505,-0.253329 -0.03325,-0.49692 0.05879,-0.736974 0.377019,-0.556125 1.509353,-0.93981 1.805551,-1.091796 0.03578,-0.01837 0.479486,-0.07742 0.53575,-0.08599 0.604482,-0.102345 1.067134,-0.0079 1.648771,0.150674 0.834146,0.293085 1.648438,0.64077 2.458477,0.99456 1.022139,0.483473 2.060842,0.932978 3.126056,1.31271 1.034606,0.39063 2.126125,0.528428 3.221453,0.605228 0.678429,0.02572 1.363539,-0.01358 2.02597,-0.17178 0.368552,-0.08804 0.585206,-0.179813 0.940081,-0.310493 0.544082,-0.173002 2.576146,-1.35087 0.240985,-0.0531 0,0 1.587708,-0.617535 1.587708,-0.617535 v 0 c -1.032777,0.611685 -2.039499,1.29726 -3.171411,1.717958 -0.394925,0.135202 -0.548364,0.201045 -0.957377,0.287977 -0.672288,0.142898 -1.363723,0.172335 -2.048272,0.135443 -1.104287,-0.089 -2.201649,-0.245565 -3.242389,-0.646418 -1.067583,-0.386917 -2.108856,-0.840945 -3.139768,-1.316527 -0.808506,-0.347265 -1.620789,-0.693165 -2.45934,-0.961665 -0.566295,-0.13767 -1.041816,-0.198203 -1.620228,-0.08215 -0.09634,0.01755 -0.275621,0.04852 -0.373117,0.07223 -0.05028,0.01223 -0.193129,0.0702 -0.149219,0.04282 2.309628,-1.44015 1.707553,-0.969608 1.163832,-0.70071 -0.137276,0.197115 -0.130545,0.40953 -0.105164,0.641752 0.02448,0.219525 0.06966,0.430763 0.218327,0.60318 0.186249,0.21252 0.26158,0.235418 0.551964,0.207428 0.784743,-0.08338 1.703129,-0.76644 -0.559342,0.55296 0.560115,-0.348705 0.974029,-0.84483 1.316851,-1.405215 0.532407,-0.9189 0.975636,-1.886364 1.316807,-2.892936 0.349651,-1.047561 0.672889,-2.104404 0.962131,-3.170265 0.207798,-0.896443 0.344745,-1.807981 0.586903,-2.69677 0.162942,-0.625934 0.312815,-1.255874 0.513984,-1.870948 0.131346,-0.417685 0.270567,-0.838176 0.466743,-1.229921 0.123598,-0.274487 0.226193,-0.557238 0.367065,-0.823649 0.33077,-0.717028 1.187109,-1.220142 1.967006,-1.209927 0.244232,0.0627 0.442591,0.190898 0.546336,0.429879 0.08175,0.243383 0.08826,0.489194 0.01559,0.737126 -0.107099,0.30802 -0.313801,0.518926 -0.560519,0.726613 -0.756016,0.54716 -1.580223,1.020677 -2.467959,1.313 -0.34266,0.0856 -0.682424,0.140361 -1.034932,0.07361 -0.335479,-0.04899 -0.661667,-0.13289 -0.978947,-0.253754 -0.321478,-0.135205 -0.626533,-0.306298 -0.947551,-0.443175 -0.287689,-0.10843 -0.573764,-0.181611 -0.863528,-0.03283 2.660076,-1.57047 1.433775,-0.959738 1.042848,-0.551718 -0.155785,0.162597 -0.280779,0.351222 -0.387945,0.548422 0,0 -1.588251,0.718576 -1.588251,0.718576 z"
       inkscape:connector-curvature="0" /></g></svg>