<?xml version="1.0" encoding="UTF-8" standalone="no"?>
<!-- Created with Inkscape (http://www.inkscape.org/) -->

<svg
   xmlns:dc="http://purl.org/dc/elements/1.1/"
   xmlns:cc="http://creativecommons.org/ns#"
   xmlns:rdf="http://www.w3.org/1999/02/22-rdf-syntax-ns#"
   xmlns:svg="http://www.w3.org/2000/svg"
   xmlns="http://www.w3.org/2000/svg"
   xmlns:sodipodi="http://sodipodi.sourceforge.net/DTD/sodipodi-0.dtd"
   xmlns:inkscape="http://www.inkscape.org/namespaces/inkscape"
   version="1.1"
   id="svg2"
   xml:space="preserve"
   width="482.47729"
   height="161.10918"
   viewBox="0 0 482.47729 161.10918"
   sodipodi:docname="pixelknown.svg"
   inkscape:version="0.92.5 (2060ec1f9f, 2020-04-08)"><metadata
     id="metadata8"><rdf:RDF><cc:Work
         rdf:about=""><dc:format>image/svg+xml</dc:format><dc:type
           rdf:resource="http://purl.org/dc/dcmitype/StillImage" /><dc:title></dc:title></cc:Work></rdf:RDF></metadata><defs
     id="defs6" /><sodipodi:namedview
     pagecolor="#ffffff"
     bordercolor="#666666"
     borderopacity="1"
     objecttolerance="10"
     gridtolerance="10"
     guidetolerance="10"
     inkscape:pageopacity="0"
     inkscape:pageshadow="2"
     inkscape:window-width="2560"
     inkscape:window-height="1017"
     id="namedview4"
     showgrid="false"
     inkscape:zoom="3.1928326"
     inkscape:cx="171.91104"
     inkscape:cy="97.496079"
     inkscape:window-x="-8"
     inkscape:window-y="-8"
     inkscape:window-maximized="1"
     inkscape:current-layer="g10" /><g
     id="g10"
     inkscape:groupmode="layer"
     inkscape:label="pixelknown"
     transform="matrix(1.3333333,0,0,1.3333333,0,2.0277293e-6)"><g
       id="g12"
       transform="translate(27.240431)"><g
         id="g14"><path
           d="M 37.5,0.375 H 74.621 V 37.5 H 37.5 Z"
           style="fill:none;stroke:#000000;stroke-width:0.75;stroke-linecap:butt;stroke-linejoin:miter;stroke-miterlimit:4;stroke-dasharray:none;stroke-opacity:1"
           id="path16"
           inkscape:connector-curvature="0" /></g><g
         id="g18"><path
           d="m 74.621,0.375 h 37.125 V 37.5 H 74.621 Z"
           style="fill:none;stroke:#000000;stroke-width:0.75;stroke-linecap:butt;stroke-linejoin:miter;stroke-miterlimit:4;stroke-dasharray:none;stroke-opacity:1"
           id="path20"
           inkscape:connector-curvature="0" /></g><g
         id="g22"><path
           d="m 148.867,0.375 h 37.125 V 37.5 h -37.125 z"
           style="fill:none;stroke:#000000;stroke-width:0.75;stroke-linecap:butt;stroke-linejoin:miter;stroke-miterlimit:4;stroke-dasharray:none;stroke-opacity:1"
           id="path24"
           inkscape:connector-curvature="0" /></g><g
         id="g26"><path
           d="m 111.746,0.375 h 37.121 V 37.5 h -37.121 z"
           style="fill:none;stroke:#000000;stroke-width:0.75;stroke-linecap:butt;stroke-linejoin:miter;stroke-miterlimit:4;stroke-dasharray:none;stroke-opacity:1"
           id="path28"
           inkscape:connector-curvature="0" /></g><g
         id="g30"><path
           d="m 260.238,0.375 h 37.121 V 37.5 h -37.121 z"
           style="fill:none;stroke:#000000;stroke-width:0.75;stroke-linecap:butt;stroke-linejoin:miter;stroke-miterlimit:4;stroke-dasharray:none;stroke-opacity:1"
           id="path32"
           inkscape:connector-curvature="0" /></g><g
         id="g34"><path
           d="m 223.113,0.375 h 37.125 V 37.5 h -37.125 z"
           style="fill:none;stroke:#000000;stroke-width:0.75;stroke-linecap:butt;stroke-linejoin:miter;stroke-miterlimit:4;stroke-dasharray:none;stroke-opacity:1"
           id="path36"
           inkscape:connector-curvature="0" /></g><g
         id="g38"><path
           d="m 185.992,0.375 h 37.121 V 37.5 h -37.121 z"
           style="fill:none;stroke:#000000;stroke-width:0.75;stroke-linecap:butt;stroke-linejoin:miter;stroke-miterlimit:4;stroke-dasharray:none;stroke-opacity:1"
           id="path40"
           inkscape:connector-curvature="0" /></g><g
         id="g42"><path
           d="m 297.359,0.375 h 37.125 V 37.5 h -37.125 z"
           style="fill:none;stroke:#000000;stroke-width:0.75;stroke-linecap:butt;stroke-linejoin:miter;stroke-miterlimit:4;stroke-dasharray:none;stroke-opacity:1"
           id="path44"
           inkscape:connector-curvature="0" /></g><g
         id="g46"><path
           d="M 0.375,0.375 H 37.5 V 37.5 H 0.375 Z"
           style="fill:none;stroke:#000000;stroke-width:0.75;stroke-linecap:butt;stroke-linejoin:miter;stroke-miterlimit:4;stroke-dasharray:none;stroke-opacity:1"
           id="path48"
           inkscape:connector-curvature="0" /></g><g
         id="g50"><path
           d="m 37.5,83.332 h 37.121 v 37.125 H 37.5 Z"
           style="fill:none;stroke:#000000;stroke-width:0.75;stroke-linecap:butt;stroke-linejoin:miter;stroke-miterlimit:4;stroke-dasharray:none;stroke-opacity:1"
           id="path52"
           inkscape:connector-curvature="0" /></g><path
         d="m 74.621,83.332 h 37.125 v 37.125 H 74.621 Z"
         style="fill:#000000;fill-opacity:0.17676799;fill-rule:nonzero;stroke:none"
         id="path54"
         inkscape:connector-curvature="0" /><g
         id="g56"><path
           d="m 74.621,83.332 h 37.125 v 37.125 H 74.621 Z"
           style="fill:none;stroke:#000000;stroke-width:0.75;stroke-linecap:butt;stroke-linejoin:miter;stroke-miterlimit:4;stroke-dasharray:none;stroke-opacity:1"
           id="path58"
           inkscape:connector-curvature="0" /></g><path
         d="m 148.867,83.332 h 37.125 v 37.125 h -37.125 z"
         style="fill:#000000;fill-opacity:0.17676799;fill-rule:nonzero;stroke:none"
         id="path60"
         inkscape:connector-curvature="0" /><g
         id="g62"><path
           d="m 148.867,83.332 h 37.125 v 37.125 h -37.125 z"
           style="fill:none;stroke:#000000;stroke-width:0.75;stroke-linecap:butt;stroke-linejoin:miter;stroke-miterlimit:4;stroke-dasharray:none;stroke-opacity:1"
           id="path64"
           inkscape:connector-curvature="0" /></g><path
         d="m 111.746,83.332 h 37.121 v 37.125 h -37.121 z"
         style="fill:#000000;fill-opacity:0.17676799;fill-rule:nonzero;stroke:none"
         id="path66"
         inkscape:connector-curvature="0" /><g
         id="g68"><path
           d="m 111.746,83.332 h 37.121 v 37.125 h -37.121 z"
           style="fill:none;stroke:#000000;stroke-width:0.75;stroke-linecap:butt;stroke-linejoin:miter;stroke-miterlimit:4;stroke-dasharray:none;stroke-opacity:1"
           id="path70"
           inkscape:connector-curvature="0" /></g><path
         d="m 260.238,83.332 h 37.121 v 37.125 h -37.121 z"
         style="fill:#000000;fill-opacity:0.17676799;fill-rule:nonzero;stroke:none"
         id="path72"
         inkscape:connector-curvature="0" /><g
         id="g74"><path
           d="m 260.238,83.332 h 37.121 v 37.125 h -37.121 z"
           style="fill:none;stroke:#000000;stroke-width:0.75;stroke-linecap:butt;stroke-linejoin:miter;stroke-miterlimit:4;stroke-dasharray:none;stroke-opacity:1"
           id="path76"
           inkscape:connector-curvature="0" /></g><path
         d="m 223.113,83.332 h 37.125 v 37.125 h -37.125 z"
         style="fill:#000000;fill-opacity:0.17676799;fill-rule:nonzero;stroke:none"
         id="path78"
         inkscape:connector-curvature="0" /><g
         id="g80"><path
           d="m 223.113,83.332 h 37.125 v 37.125 h -37.125 z"
           style="fill:none;stroke:#000000;stroke-width:0.75;stroke-linecap:butt;stroke-linejoin:miter;stroke-miterlimit:4;stroke-dasharray:none;stroke-opacity:1"
           id="path82"
           inkscape:connector-curvature="0" /></g><path
         d="m 185.992,83.332 h 37.121 v 37.125 h -37.121 z"
         style="fill:#000000;fill-opacity:0.17676799;fill-rule:nonzero;stroke:none"
         id="path84"
         inkscape:connector-curvature="0" /><g
         id="g86"><path
           d="m 185.992,83.332 h 37.121 v 37.125 h -37.121 z"
           style="fill:none;stroke:#000000;stroke-width:0.75;stroke-linecap:butt;stroke-linejoin:miter;stroke-miterlimit:4;stroke-dasharray:none;stroke-opacity:1"
           id="path88"
           inkscape:connector-curvature="0" /></g><path
         d="m 297.359,83.332 h 37.125 v 37.125 h -37.125 z"
         style="fill:#000000;fill-opacity:0.17676799;fill-rule:nonzero;stroke:none"
         id="path90"
         inkscape:connector-curvature="0" /><g
         id="g92"><path
           d="m 297.359,83.332 h 37.125 v 37.125 h -37.125 z"
           style="fill:none;stroke:#000000;stroke-width:0.75;stroke-linecap:butt;stroke-linejoin:miter;stroke-miterlimit:4;stroke-dasharray:none;stroke-opacity:1"
           id="path94"
           inkscape:connector-curvature="0" /></g><path
         d="M 0.375,83.332 H 37.5 v 37.125 H 0.375 Z"
         style="fill:#000000;fill-opacity:0.17676799;fill-rule:nonzero;stroke:none"
         id="path96"
         inkscape:connector-curvature="0" /><g
         id="g98"><path
           d="M 0.375,83.332 H 37.5 v 37.125 H 0.375 Z"
           style="fill:none;stroke:#000000;stroke-width:0.75;stroke-linecap:butt;stroke-linejoin:miter;stroke-miterlimit:4;stroke-dasharray:none;stroke-opacity:1"
           id="path100"
           inkscape:connector-curvature="0" /></g><path
         d="m 13.402,15.129 c 0.668,1.344 1.313,2.699 1.891,4.086 0.578,1.285 1.152,2.574 1.723,3.867 0.429,0.926 0.773,1.891 1.273,2.781 -0.101,-0.011 0.195,0.242 0.242,0.16 0.032,-0.05 0.059,-0.195 0.008,-0.168 -1.121,0.555 -2.16,1.266 -3.293,1.801 -0.082,0.039 0.051,-0.179 0.07,-0.273 0.024,-0.102 0.043,-0.203 0.067,-0.309 0.242,-1.078 0.676,-2.097 1.105,-3.113 0.762,-1.77 1.926,-3.324 3.121,-4.824 1.008,-1.203 2.024,-2.414 3.168,-3.496 0.598,-0.563 1.086,-0.942 1.719,-1.461 1.317,-1.055 2.731,-1.981 4.152,-2.891 0,0 3.668,-1.422 3.668,-1.422 -1.449,0.883 -2.863,1.832 -4.211,2.863 -0.484,0.387 -1.292,1.016 -1.746,1.426 -1.156,1.059 -2.168,2.266 -3.183,3.457 -1.184,1.461 -2.336,2.981 -3.117,4.703 -0.403,0.993 -0.848,1.977 -1.094,3.028 -0.02,0.097 -0.047,0.199 -0.063,0.301 -0.019,0.105 0.039,0.253 -0.047,0.32 -1.664,1.262 -2.859,3.445 -4.011,1.879 -0.489,-0.91 -0.84,-1.887 -1.262,-2.832 -0.562,-1.297 -1.141,-2.586 -1.711,-3.879 -0.57,-1.371 -1.191,-2.727 -1.918,-4.02 0,0 3.449,-1.984 3.449,-1.984 z"
         style="fill:#000000;fill-opacity:1;fill-rule:nonzero;stroke:none"
         id="path102"
         inkscape:connector-curvature="0" /><path
         d="m 48.785,15.316 c 0.668,1.34 1.313,2.7 1.891,4.082 0.578,1.29 1.152,2.579 1.722,3.868 0.426,0.929 0.77,1.894 1.274,2.785 -0.102,-0.012 0.195,0.242 0.242,0.16 0.031,-0.051 0.059,-0.195 0.008,-0.172 -1.121,0.559 -2.164,1.266 -3.293,1.805 -0.082,0.039 0.051,-0.184 0.07,-0.274 0.024,-0.101 0.043,-0.207 0.067,-0.308 0.242,-1.078 0.675,-2.098 1.105,-3.114 0.762,-1.773 1.926,-3.324 3.117,-4.824 1.012,-1.207 2.024,-2.414 3.172,-3.496 0.598,-0.566 1.086,-0.941 1.719,-1.461 1.316,-1.058 2.73,-1.98 4.148,-2.89 0,0 3.672,-1.422 3.672,-1.422 -1.449,0.883 -2.863,1.832 -4.211,2.863 -0.484,0.387 -1.293,1.012 -1.746,1.426 -1.16,1.058 -2.168,2.265 -3.183,3.457 -1.184,1.461 -2.336,2.98 -3.118,4.703 -0.402,0.992 -0.847,1.976 -1.093,3.027 -0.02,0.098 -0.047,0.199 -0.067,0.301 -0.015,0.106 0.043,0.254 -0.043,0.32 -1.664,1.262 -2.859,3.442 -4.011,1.879 -0.489,-0.914 -0.84,-1.886 -1.262,-2.832 -0.567,-1.297 -1.145,-2.586 -1.715,-3.883 -0.566,-1.367 -1.187,-2.722 -1.914,-4.019 0,0 3.449,-1.981 3.449,-1.981 z"
         style="fill:#000000;fill-opacity:1;fill-rule:nonzero;stroke:none"
         id="path104"
         inkscape:connector-curvature="0" /><path
         d="m 85.75,15.852 c 0.668,1.343 1.313,2.699 1.891,4.082 0.578,1.289 1.148,2.578 1.722,3.867 0.426,0.929 0.77,1.894 1.274,2.785 -0.102,-0.012 0.191,0.242 0.242,0.16 0.027,-0.051 0.055,-0.195 0.008,-0.168 -1.121,0.555 -2.164,1.262 -3.293,1.801 -0.082,0.039 0.051,-0.184 0.07,-0.274 0.024,-0.101 0.043,-0.207 0.066,-0.308 0.239,-1.078 0.676,-2.098 1.106,-3.113 0.758,-1.77 1.926,-3.325 3.117,-4.825 1.012,-1.203 2.024,-2.414 3.172,-3.496 0.598,-0.562 1.082,-0.941 1.719,-1.461 1.316,-1.058 2.73,-1.98 4.148,-2.89 0,0 3.672,-1.422 3.672,-1.422 -1.449,0.883 -2.863,1.832 -4.215,2.863 -0.484,0.387 -1.289,1.012 -1.742,1.426 -1.16,1.059 -2.168,2.266 -3.184,3.457 -1.183,1.461 -2.335,2.98 -3.117,4.703 -0.406,0.992 -0.851,1.977 -1.093,3.027 -0.02,0.098 -0.047,0.2 -0.067,0.301 -0.019,0.106 0.043,0.254 -0.043,0.321 -1.668,1.261 -2.859,3.441 -4.012,1.878 -0.492,-0.914 -0.839,-1.886 -1.261,-2.832 -0.567,-1.296 -1.145,-2.586 -1.715,-3.882 -0.567,-1.368 -1.188,-2.723 -1.914,-4.016 0,0 3.449,-1.984 3.449,-1.984 z"
         style="fill:#000000;fill-opacity:1;fill-rule:nonzero;stroke:none"
         id="path106"
         inkscape:connector-curvature="0" /><path
         d="m 122.715,16.117 c 0.668,1.344 1.312,2.699 1.89,4.086 0.579,1.289 1.149,2.578 1.723,3.867 0.426,0.926 0.77,1.891 1.274,2.785 -0.102,-0.011 0.191,0.243 0.242,0.157 0.027,-0.047 0.054,-0.192 0.004,-0.168 -1.118,0.558 -2.16,1.265 -3.289,1.801 -0.086,0.043 0.05,-0.18 0.07,-0.27 0.023,-0.105 0.043,-0.207 0.062,-0.309 0.243,-1.082 0.68,-2.097 1.11,-3.113 0.758,-1.773 1.922,-3.328 3.117,-4.824 1.012,-1.207 2.023,-2.418 3.172,-3.496 0.598,-0.567 1.082,-0.945 1.719,-1.461 1.316,-1.059 2.726,-1.981 4.148,-2.891 0,0 3.672,-1.426 3.672,-1.426 -1.449,0.887 -2.863,1.836 -4.215,2.868 -0.484,0.382 -1.289,1.011 -1.742,1.425 -1.16,1.059 -2.168,2.262 -3.184,3.457 -1.183,1.461 -2.336,2.981 -3.117,4.7 -0.406,0.996 -0.851,1.976 -1.094,3.027 -0.023,0.102 -0.047,0.199 -0.066,0.301 -0.02,0.109 0.043,0.258 -0.043,0.324 -1.668,1.262 -2.859,3.441 -4.012,1.875 -0.492,-0.91 -0.84,-1.887 -1.265,-2.828 -0.563,-1.297 -1.141,-2.59 -1.711,-3.883 -0.567,-1.371 -1.188,-2.726 -1.914,-4.019 0,0 3.449,-1.985 3.449,-1.985 z"
         style="fill:#000000;fill-opacity:1;fill-rule:nonzero;stroke:none"
         id="path108"
         inkscape:connector-curvature="0" /><path
         d="m 159.141,16.652 c 0.668,1.344 1.312,2.703 1.89,4.086 0.578,1.289 1.153,2.578 1.723,3.867 0.43,0.93 0.773,1.895 1.277,2.786 -0.101,-0.012 0.192,0.242 0.242,0.156 0.028,-0.047 0.055,-0.192 0.004,-0.168 -1.121,0.559 -2.16,1.266 -3.289,1.801 -0.086,0.043 0.047,-0.18 0.071,-0.27 0.023,-0.101 0.043,-0.207 0.062,-0.308 0.242,-1.079 0.68,-2.098 1.106,-3.114 0.761,-1.773 1.925,-3.324 3.121,-4.824 1.007,-1.207 2.023,-2.414 3.168,-3.496 0.601,-0.566 1.086,-0.941 1.718,-1.461 1.317,-1.059 2.731,-1.98 4.153,-2.891 0,0 3.672,-1.421 3.672,-1.421 -1.454,0.882 -2.864,1.832 -4.215,2.863 -0.485,0.387 -1.289,1.012 -1.742,1.426 -1.161,1.058 -2.168,2.265 -3.184,3.457 -1.184,1.461 -2.34,2.98 -3.117,4.699 -0.406,0.996 -0.852,1.98 -1.094,3.027 -0.023,0.102 -0.051,0.203 -0.066,0.305 -0.02,0.105 0.039,0.254 -0.047,0.32 -1.664,1.262 -2.856,3.442 -4.008,1.879 -0.492,-0.914 -0.84,-1.891 -1.266,-2.832 -0.562,-1.297 -1.14,-2.586 -1.711,-3.883 -0.57,-1.371 -1.187,-2.726 -1.918,-4.019 0,0 3.45,-1.985 3.45,-1.985 z"
         style="fill:#000000;fill-opacity:1;fill-rule:nonzero;stroke:none"
         id="path110"
         inkscape:connector-curvature="0" /><path
         d="m 197.445,16.652 c 0.668,1.344 1.313,2.703 1.891,4.086 0.578,1.289 1.152,2.578 1.723,3.867 0.429,0.93 0.773,1.895 1.273,2.786 -0.102,-0.012 0.195,0.242 0.242,0.156 0.031,-0.047 0.059,-0.192 0.008,-0.168 -1.121,0.559 -2.16,1.266 -3.293,1.801 -0.082,0.043 0.051,-0.18 0.07,-0.27 0.024,-0.101 0.043,-0.207 0.067,-0.308 0.242,-1.079 0.676,-2.098 1.105,-3.114 0.762,-1.773 1.926,-3.324 3.121,-4.824 1.008,-1.207 2.024,-2.414 3.168,-3.496 0.598,-0.566 1.086,-0.941 1.719,-1.461 1.316,-1.059 2.731,-1.98 4.152,-2.891 0,0 3.668,-1.421 3.668,-1.421 -1.449,0.882 -2.863,1.832 -4.211,2.863 -0.484,0.387 -1.293,1.012 -1.746,1.426 -1.156,1.058 -2.168,2.265 -3.183,3.457 -1.184,1.461 -2.336,2.98 -3.117,4.699 -0.403,0.996 -0.848,1.98 -1.094,3.027 -0.02,0.102 -0.047,0.203 -0.063,0.305 -0.019,0.105 0.039,0.254 -0.047,0.32 -1.664,1.262 -2.855,3.442 -4.011,1.879 -0.489,-0.914 -0.84,-1.891 -1.262,-2.832 -0.562,-1.297 -1.141,-2.586 -1.711,-3.883 -0.57,-1.371 -1.191,-2.726 -1.918,-4.019 0,0 3.449,-1.985 3.449,-1.985 z"
         style="fill:#000000;fill-opacity:1;fill-rule:nonzero;stroke:none"
         id="path112"
         inkscape:connector-curvature="0" /><path
         d="m 233.605,16.652 c 0.668,1.344 1.313,2.703 1.891,4.086 0.578,1.289 1.152,2.578 1.723,3.867 0.429,0.93 0.773,1.895 1.273,2.786 -0.101,-0.012 0.196,0.242 0.242,0.156 0.032,-0.047 0.059,-0.192 0.008,-0.168 -1.121,0.559 -2.16,1.266 -3.289,1.801 -0.086,0.043 0.047,-0.18 0.07,-0.27 0.024,-0.101 0.043,-0.207 0.063,-0.308 0.242,-1.079 0.68,-2.098 1.105,-3.114 0.762,-1.773 1.926,-3.324 3.122,-4.824 1.007,-1.207 2.023,-2.414 3.167,-3.496 0.602,-0.566 1.086,-0.941 1.719,-1.461 1.317,-1.059 2.731,-1.98 4.153,-2.891 0,0 3.668,-1.421 3.668,-1.421 -1.45,0.882 -2.86,1.832 -4.211,2.863 -0.485,0.387 -1.289,1.012 -1.743,1.426 -1.16,1.058 -2.171,2.265 -3.183,3.457 -1.184,1.461 -2.34,2.98 -3.121,4.699 -0.403,0.996 -0.848,1.98 -1.09,3.027 -0.024,0.102 -0.051,0.203 -0.067,0.305 -0.019,0.105 0.04,0.254 -0.046,0.32 -1.664,1.262 -2.856,3.442 -4.008,1.879 -0.492,-0.914 -0.84,-1.891 -1.266,-2.832 -0.562,-1.297 -1.14,-2.586 -1.711,-3.883 -0.57,-1.371 -1.191,-2.726 -1.918,-4.019 0,0 3.449,-1.985 3.449,-1.985 z"
         style="fill:#000000;fill-opacity:1;fill-rule:nonzero;stroke:none"
         id="path114"
         inkscape:connector-curvature="0" /><path
         d="m 270.57,16.387 c 0.668,1.343 1.313,2.699 1.891,4.086 0.578,1.285 1.152,2.574 1.723,3.867 0.429,0.926 0.773,1.89 1.273,2.781 -0.102,-0.012 0.195,0.242 0.242,0.16 0.031,-0.051 0.059,-0.195 0.008,-0.168 -1.121,0.555 -2.16,1.266 -3.293,1.801 -0.082,0.039 0.051,-0.18 0.07,-0.273 0.024,-0.102 0.043,-0.203 0.067,-0.309 0.242,-1.078 0.676,-2.098 1.105,-3.113 0.762,-1.77 1.926,-3.324 3.121,-4.821 1.008,-1.207 2.024,-2.418 3.168,-3.5 0.598,-0.562 1.086,-0.941 1.719,-1.457 1.316,-1.058 2.731,-1.984 4.152,-2.89 0,0 3.668,-1.426 3.668,-1.426 -1.449,0.883 -2.863,1.832 -4.211,2.863 -0.484,0.387 -1.293,1.016 -1.746,1.426 -1.156,1.059 -2.168,2.266 -3.183,3.457 -1.184,1.461 -2.336,2.981 -3.117,4.703 -0.403,0.992 -0.848,1.977 -1.094,3.028 -0.02,0.101 -0.047,0.199 -0.063,0.3 -0.019,0.106 0.039,0.254 -0.047,0.321 -1.664,1.261 -2.855,3.445 -4.011,1.879 -0.489,-0.911 -0.84,-1.887 -1.262,-2.829 -0.562,-1.3 -1.141,-2.589 -1.711,-3.882 -0.57,-1.371 -1.191,-2.727 -1.918,-4.02 0,0 3.449,-1.984 3.449,-1.984 z"
         style="fill:#000000;fill-opacity:1;fill-rule:nonzero;stroke:none"
         id="path116"
         inkscape:connector-curvature="0" /><path
         d="m 307.805,16.117 c 0.668,1.344 1.312,2.699 1.886,4.086 0.579,1.289 1.153,2.578 1.727,3.867 0.426,0.926 0.77,1.891 1.273,2.785 -0.101,-0.011 0.192,0.243 0.243,0.157 0.027,-0.047 0.054,-0.192 0.004,-0.168 -1.118,0.558 -2.161,1.265 -3.29,1.801 -0.085,0.043 0.047,-0.18 0.071,-0.27 0.023,-0.105 0.043,-0.207 0.062,-0.309 0.242,-1.082 0.68,-2.097 1.106,-3.113 0.761,-1.773 1.926,-3.328 3.121,-4.824 1.008,-1.207 2.023,-2.418 3.172,-3.496 0.597,-0.567 1.082,-0.945 1.715,-1.461 1.316,-1.059 2.73,-1.981 4.152,-2.891 0,0 3.672,-1.426 3.672,-1.426 -1.453,0.887 -2.864,1.836 -4.215,2.868 -0.484,0.382 -1.289,1.011 -1.742,1.425 -1.16,1.059 -2.168,2.262 -3.184,3.457 -1.183,1.461 -2.34,2.981 -3.117,4.7 -0.406,0.996 -0.852,1.976 -1.094,3.027 -0.023,0.102 -0.047,0.199 -0.066,0.301 -0.02,0.109 0.039,0.258 -0.047,0.324 -1.664,1.262 -2.856,3.441 -4.008,1.875 -0.492,-0.91 -0.84,-1.887 -1.266,-2.828 -0.562,-1.297 -1.14,-2.59 -1.71,-3.883 -0.571,-1.371 -1.188,-2.726 -1.915,-4.019 0,0 3.446,-1.985 3.446,-1.985 z"
         style="fill:#000000;fill-opacity:1;fill-rule:nonzero;stroke:none"
         id="path118"
         inkscape:connector-curvature="0" /><path
         d="m 10.914,91.512 c 1.184,1.039 2.305,2.156 3.402,3.289 1.348,1.375 2.61,2.832 3.872,4.289 1.234,1.5 2.527,2.949 3.894,4.328 1.008,1.031 2,2.074 3.043,3.07 0.672,0.645 1.434,1.184 2.109,1.821 0.407,0.211 0.579,0.796 1.02,0.925 0,0 -3.352,2.184 -3.352,2.184 -0.39,-0.297 -0.668,-0.715 -1.054,-1.02 -0.676,-0.636 -1.418,-1.195 -2.082,-1.843 -1.032,-1.008 -2.016,-2.063 -3.02,-3.094 -1.359,-1.398 -2.656,-2.852 -3.894,-4.359 -1.258,-1.45 -2.528,-2.891 -3.875,-4.262 -1.102,-1.121 -2.215,-2.246 -3.438,-3.235 0,0 3.375,-2.093 3.375,-2.093 z"
         style="fill:#000000;fill-opacity:1;fill-rule:nonzero;stroke:none"
         id="path120"
         inkscape:connector-curvature="0" /><path
         d="m 26.117,91.563 c -0.859,1.632 -1.715,3.265 -2.621,4.875 -1.062,1.941 -2.273,3.789 -3.523,5.613 -1.235,1.722 -2.524,3.402 -3.801,5.09 -1.063,1.379 -2.203,2.691 -3.426,3.929 -0.746,0.758 -1.613,1.371 -2.504,1.942 -0.441,0.269 -0.23,0.133 -0.633,0.398 0,0 -3.699,1.465 -3.699,1.465 0.391,-0.309 0.184,-0.16 0.629,-0.434 0.918,-0.531 1.793,-1.148 2.57,-1.863 1.246,-1.226 2.411,-2.519 3.485,-3.898 1.277,-1.688 2.562,-3.367 3.816,-5.075 1.25,-1.812 2.477,-3.644 3.535,-5.582 0.891,-1.582 1.735,-3.191 2.559,-4.808 0,0 3.613,-1.652 3.613,-1.652 z"
         style="fill:#000000;fill-opacity:1;fill-rule:nonzero;stroke:none"
         id="path122"
         inkscape:connector-curvature="0" /><path
         d="m 84.465,90.801 c 1.183,1.039 2.305,2.156 3.402,3.289 1.348,1.375 2.61,2.832 3.871,4.289 1.235,1.5 2.528,2.949 3.895,4.328 1.008,1.031 2,2.074 3.043,3.07 0.672,0.645 1.433,1.184 2.109,1.821 0.406,0.211 0.578,0.797 1.02,0.925 0,0 -3.352,2.18 -3.352,2.18 -0.39,-0.293 -0.668,-0.711 -1.055,-1.015 -0.675,-0.637 -1.418,-1.196 -2.082,-1.844 -1.031,-1.008 -2.015,-2.063 -3.019,-3.094 -1.359,-1.398 -2.656,-2.852 -3.895,-4.359 -1.257,-1.45 -2.527,-2.891 -3.879,-4.262 -1.097,-1.121 -2.21,-2.246 -3.433,-3.234 0,0 3.375,-2.094 3.375,-2.094 z"
         style="fill:#000000;fill-opacity:1;fill-rule:nonzero;stroke:none"
         id="path124"
         inkscape:connector-curvature="0" /><path
         d="m 99.668,90.852 c -0.859,1.632 -1.715,3.265 -2.621,4.875 -1.063,1.941 -2.274,3.789 -3.524,5.613 -1.234,1.719 -2.523,3.402 -3.8,5.09 -1.063,1.379 -2.203,2.691 -3.426,3.929 -0.746,0.758 -1.613,1.371 -2.504,1.942 -0.441,0.269 -0.23,0.133 -0.633,0.398 0,0 -3.699,1.465 -3.699,1.465 0.391,-0.309 0.184,-0.16 0.629,-0.434 0.918,-0.531 1.793,-1.148 2.57,-1.863 1.246,-1.226 2.41,-2.519 3.485,-3.898 1.277,-1.688 2.562,-3.367 3.816,-5.074 1.25,-1.813 2.477,-3.645 3.535,-5.582 0.891,-1.583 1.734,-3.192 2.559,-4.809 0,0 3.613,-1.652 3.613,-1.652 z"
         style="fill:#000000;fill-opacity:1;fill-rule:nonzero;stroke:none"
         id="path126"
         inkscape:connector-curvature="0" /><path
         d="m 123.035,90.801 c 1.184,1.039 2.305,2.156 3.403,3.289 1.347,1.375 2.609,2.832 3.875,4.289 1.23,1.5 2.523,2.949 3.89,4.328 1.008,1.031 2.004,2.074 3.047,3.07 0.668,0.645 1.43,1.184 2.109,1.821 0.403,0.211 0.575,0.797 1.016,0.925 0,0 -3.352,2.18 -3.352,2.18 -0.39,-0.293 -0.668,-0.711 -1.05,-1.015 -0.676,-0.637 -1.422,-1.196 -2.086,-1.844 -1.032,-1.008 -2.016,-2.063 -3.02,-3.094 -1.359,-1.398 -2.656,-2.852 -3.894,-4.359 -1.258,-1.45 -2.528,-2.891 -3.875,-4.262 -1.102,-1.121 -2.211,-2.246 -3.438,-3.234 0,0 3.375,-2.094 3.375,-2.094 z"
         style="fill:#000000;fill-opacity:1;fill-rule:nonzero;stroke:none"
         id="path128"
         inkscape:connector-curvature="0" /><path
         d="m 138.242,90.852 c -0.863,1.632 -1.719,3.265 -2.625,4.875 -1.058,1.941 -2.273,3.789 -3.523,5.613 -1.235,1.719 -2.524,3.402 -3.801,5.09 -1.063,1.379 -2.203,2.691 -3.426,3.929 -0.746,0.758 -1.613,1.371 -2.504,1.942 -0.441,0.269 -0.23,0.133 -0.633,0.398 0,0 -3.699,1.465 -3.699,1.465 0.395,-0.309 0.184,-0.16 0.633,-0.434 0.914,-0.531 1.789,-1.148 2.57,-1.863 1.243,-1.226 2.407,-2.519 3.481,-3.898 1.277,-1.688 2.562,-3.367 3.816,-5.074 1.25,-1.813 2.477,-3.645 3.535,-5.582 0.895,-1.583 1.735,-3.192 2.563,-4.809 0,0 3.613,-1.652 3.613,-1.652 z"
         style="fill:#000000;fill-opacity:1;fill-rule:nonzero;stroke:none"
         id="path130"
         inkscape:connector-curvature="0" /><path
         d="m 159.195,90.266 c 1.184,1.039 2.305,2.156 3.403,3.289 1.347,1.375 2.613,2.832 3.875,4.285 1.23,1.504 2.523,2.953 3.894,4.332 1.004,1.031 2,2.074 3.043,3.066 0.668,0.649 1.43,1.188 2.11,1.825 0.402,0.21 0.578,0.796 1.015,0.921 0,0 -3.351,2.184 -3.351,2.184 -0.391,-0.293 -0.664,-0.711 -1.051,-1.016 -0.676,-0.636 -1.418,-1.195 -2.086,-1.843 -1.031,-1.008 -2.016,-2.063 -3.02,-3.098 -1.359,-1.395 -2.656,-2.852 -3.894,-4.356 -1.258,-1.449 -2.528,-2.89 -3.875,-4.261 -1.102,-1.121 -2.211,-2.246 -3.438,-3.235 0,0 3.375,-2.093 3.375,-2.093 z"
         style="fill:#000000;fill-opacity:1;fill-rule:nonzero;stroke:none"
         id="path132"
         inkscape:connector-curvature="0" /><path
         d="m 174.402,90.316 c -0.863,1.629 -1.718,3.266 -2.621,4.875 -1.062,1.942 -2.277,3.789 -3.527,5.614 -1.234,1.718 -2.52,3.402 -3.797,5.09 -1.066,1.378 -2.207,2.691 -3.43,3.929 -0.746,0.758 -1.613,1.371 -2.504,1.942 -0.441,0.265 -0.23,0.132 -0.632,0.398 0,0 -3.696,1.461 -3.696,1.461 0.391,-0.305 0.18,-0.16 0.629,-0.43 0.914,-0.531 1.789,-1.148 2.571,-1.863 1.242,-1.227 2.406,-2.519 3.48,-3.898 1.277,-1.688 2.566,-3.368 3.816,-5.075 1.25,-1.816 2.477,-3.644 3.536,-5.582 0.894,-1.582 1.734,-3.191 2.562,-4.812 0,0 3.613,-1.649 3.613,-1.649 z"
         style="fill:#000000;fill-opacity:1;fill-rule:nonzero;stroke:none"
         id="path134"
         inkscape:connector-curvature="0" /><path
         d="m 198.84,89.996 c 1.183,1.043 2.305,2.156 3.402,3.289 1.348,1.379 2.61,2.832 3.871,4.289 1.235,1.504 2.528,2.949 3.895,4.328 1.008,1.032 2,2.078 3.043,3.071 0.672,0.648 1.433,1.183 2.109,1.82 0.406,0.211 0.578,0.797 1.02,0.926 0,0 -3.352,2.183 -3.352,2.183 -0.39,-0.297 -0.668,-0.714 -1.055,-1.019 -0.675,-0.637 -1.418,-1.195 -2.082,-1.84 -1.031,-1.008 -2.015,-2.063 -3.019,-3.098 -1.359,-1.398 -2.656,-2.851 -3.895,-4.359 -1.257,-1.449 -2.527,-2.891 -3.879,-4.258 -1.097,-1.125 -2.21,-2.25 -3.433,-3.234 0,0 3.375,-2.098 3.375,-2.098 z"
         style="fill:#000000;fill-opacity:1;fill-rule:nonzero;stroke:none"
         id="path136"
         inkscape:connector-curvature="0" /><path
         d="m 214.043,90.047 c -0.859,1.633 -1.715,3.269 -2.621,4.875 -1.063,1.945 -2.274,3.793 -3.524,5.617 -1.234,1.719 -2.523,3.399 -3.8,5.086 -1.063,1.379 -2.203,2.691 -3.426,3.934 -0.746,0.754 -1.613,1.367 -2.504,1.937 -0.441,0.27 -0.23,0.133 -0.633,0.402 0,0 -3.699,1.461 -3.699,1.461 0.391,-0.304 0.184,-0.16 0.629,-0.433 0.918,-0.531 1.793,-1.145 2.57,-1.863 1.246,-1.227 2.41,-2.52 3.485,-3.899 1.277,-1.687 2.562,-3.367 3.816,-5.074 1.25,-1.813 2.477,-3.645 3.535,-5.578 0.891,-1.586 1.734,-3.196 2.559,-4.813 0,0 3.613,-1.652 3.613,-1.652 z"
         style="fill:#000000;fill-opacity:1;fill-rule:nonzero;stroke:none"
         id="path138"
         inkscape:connector-curvature="0" /><path
         d="m 235.07,90.563 c 1.184,1.042 2.305,2.156 3.403,3.289 1.347,1.378 2.613,2.836 3.875,4.289 1.23,1.504 2.527,2.949 3.894,4.328 1.004,1.031 2,2.078 3.043,3.07 0.668,0.649 1.43,1.188 2.11,1.82 0.402,0.211 0.578,0.797 1.019,0.926 0,0 -3.351,2.184 -3.351,2.184 -0.395,-0.297 -0.668,-0.711 -1.055,-1.02 -0.676,-0.633 -1.418,-1.195 -2.086,-1.84 -1.031,-1.007 -2.016,-2.062 -3.02,-3.097 -1.359,-1.399 -2.656,-2.852 -3.894,-4.356 -1.258,-1.453 -2.528,-2.894 -3.875,-4.261 -1.098,-1.125 -2.211,-2.25 -3.438,-3.235 0,0 3.375,-2.097 3.375,-2.097 z"
         style="fill:#000000;fill-opacity:1;fill-rule:nonzero;stroke:none"
         id="path140"
         inkscape:connector-curvature="0" /><path
         d="m 250.277,90.613 c -0.863,1.633 -1.714,3.27 -2.621,4.879 -1.062,1.942 -2.277,3.789 -3.527,5.613 -1.234,1.719 -2.52,3.399 -3.797,5.086 -1.066,1.383 -2.203,2.696 -3.43,3.934 -0.746,0.754 -1.613,1.367 -2.504,1.938 -0.441,0.269 -0.23,0.136 -0.632,0.402 0,0 -3.696,1.461 -3.696,1.461 0.391,-0.305 0.18,-0.16 0.629,-0.434 0.914,-0.531 1.789,-1.144 2.571,-1.863 1.242,-1.227 2.41,-2.52 3.484,-3.895 1.273,-1.691 2.562,-3.371 3.812,-5.078 1.25,-1.812 2.477,-3.644 3.536,-5.578 0.894,-1.586 1.734,-3.195 2.562,-4.812 0,0 3.613,-1.653 3.613,-1.653 z"
         style="fill:#000000;fill-opacity:1;fill-rule:nonzero;stroke:none"
         id="path142"
         inkscape:connector-curvature="0" /><path
         d="m 270.867,90.184 c 1.184,1.043 2.305,2.156 3.403,3.289 1.347,1.379 2.613,2.836 3.875,4.289 1.23,1.504 2.527,2.949 3.894,4.328 1.008,1.031 2,2.078 3.043,3.07 0.668,0.649 1.43,1.188 2.109,1.82 0.403,0.211 0.579,0.797 1.02,0.926 0,0 -3.352,2.184 -3.352,2.184 -0.394,-0.297 -0.668,-0.711 -1.054,-1.02 -0.676,-0.632 -1.418,-1.195 -2.086,-1.84 -1.031,-1.007 -2.016,-2.062 -3.02,-3.097 -1.359,-1.399 -2.652,-2.852 -3.894,-4.356 -1.258,-1.453 -2.528,-2.894 -3.875,-4.261 -1.098,-1.125 -2.211,-2.25 -3.438,-3.235 0,0 3.375,-2.097 3.375,-2.097 z"
         style="fill:#000000;fill-opacity:1;fill-rule:nonzero;stroke:none"
         id="path144"
         inkscape:connector-curvature="0" /><path
         d="m 286.074,90.234 c -0.863,1.633 -1.715,3.27 -2.621,4.879 -1.062,1.942 -2.277,3.789 -3.527,5.614 -1.235,1.718 -2.52,3.398 -3.797,5.086 -1.066,1.382 -2.203,2.695 -3.43,3.933 -0.746,0.754 -1.613,1.367 -2.504,1.938 -0.437,0.269 -0.23,0.136 -0.632,0.402 0,0 -3.696,1.461 -3.696,1.461 0.391,-0.305 0.184,-0.16 0.629,-0.434 0.914,-0.531 1.789,-1.144 2.57,-1.863 1.243,-1.227 2.411,-2.516 3.485,-3.895 1.277,-1.687 2.562,-3.371 3.812,-5.078 1.254,-1.812 2.481,-3.644 3.535,-5.578 0.895,-1.586 1.735,-3.195 2.563,-4.812 0,0 3.613,-1.653 3.613,-1.653 z"
         style="fill:#000000;fill-opacity:1;fill-rule:nonzero;stroke:none"
         id="path146"
         inkscape:connector-curvature="0" /><path
         d="m 309.316,89.809 c 1.184,1.039 2.305,2.156 3.403,3.285 1.347,1.379 2.613,2.836 3.875,4.289 1.23,1.504 2.527,2.949 3.894,4.328 1.004,1.031 2,2.078 3.043,3.07 0.668,0.649 1.43,1.188 2.11,1.821 0.402,0.211 0.578,0.796 1.019,0.925 0,0 -3.351,2.184 -3.351,2.184 -0.395,-0.297 -0.668,-0.711 -1.055,-1.02 -0.676,-0.632 -1.418,-1.195 -2.086,-1.839 -1.031,-1.008 -2.016,-2.063 -3.02,-3.098 -1.359,-1.399 -2.652,-2.852 -3.894,-4.356 -1.258,-1.453 -2.527,-2.894 -3.875,-4.261 -1.098,-1.125 -2.211,-2.25 -3.438,-3.235 0,0 3.375,-2.093 3.375,-2.093 z"
         style="fill:#000000;fill-opacity:1;fill-rule:nonzero;stroke:none"
         id="path148"
         inkscape:connector-curvature="0" /><path
         d="m 324.523,89.855 c -0.863,1.633 -1.714,3.27 -2.621,4.879 -1.062,1.942 -2.277,3.789 -3.527,5.614 -1.234,1.718 -2.52,3.398 -3.797,5.086 -1.066,1.382 -2.203,2.695 -3.43,3.933 -0.746,0.754 -1.613,1.367 -2.503,1.938 -0.438,0.269 -0.231,0.136 -0.633,0.402 0,0 -3.696,1.461 -3.696,1.461 0.391,-0.305 0.18,-0.16 0.629,-0.43 0.914,-0.535 1.789,-1.148 2.571,-1.867 1.242,-1.226 2.41,-2.516 3.484,-3.894 1.273,-1.688 2.563,-3.372 3.813,-5.079 1.253,-1.812 2.476,-3.644 3.535,-5.578 0.894,-1.586 1.734,-3.195 2.562,-4.812 0,0 3.613,-1.653 3.613,-1.653 z"
         style="fill:#000000;fill-opacity:1;fill-rule:nonzero;stroke:none"
         id="path150"
         inkscape:connector-curvature="0" /><path
         d="m 49.266,97.332 c 0.668,1.344 1.312,2.699 1.89,4.086 0.578,1.289 1.153,2.578 1.723,3.867 0.43,0.926 0.773,1.891 1.273,2.785 -0.097,-0.011 0.196,0.239 0.246,0.157 0.028,-0.047 0.055,-0.192 0.004,-0.168 -1.121,0.558 -2.16,1.265 -3.289,1.8 -0.086,0.039 0.047,-0.179 0.071,-0.273 0.023,-0.102 0.043,-0.203 0.062,-0.305 0.242,-1.082 0.68,-2.101 1.106,-3.113 0.761,-1.773 1.925,-3.328 3.121,-4.824 1.007,-1.207 2.023,-2.418 3.168,-3.496 0.601,-0.567 1.086,-0.946 1.718,-1.461 1.317,-1.059 2.731,-1.981 4.153,-2.891 0,0 3.672,-1.426 3.672,-1.426 -1.454,0.887 -2.864,1.836 -4.215,2.868 -0.485,0.382 -1.289,1.011 -1.742,1.425 -1.161,1.059 -2.168,2.262 -3.184,3.457 -1.184,1.461 -2.34,2.977 -3.117,4.7 -0.406,0.996 -0.852,1.976 -1.094,3.027 -0.023,0.101 -0.051,0.199 -0.066,0.301 -0.02,0.105 0.039,0.257 -0.047,0.32 -1.664,1.262 -2.856,3.445 -4.008,1.879 -0.492,-0.91 -0.84,-1.887 -1.266,-2.828 -0.562,-1.297 -1.14,-2.59 -1.711,-3.883 -0.57,-1.371 -1.187,-2.727 -1.918,-4.02 0,0 3.45,-1.984 3.45,-1.984 z"
         style="fill:#000000;fill-opacity:1;fill-rule:nonzero;stroke:none"
         id="path152"
         inkscape:connector-curvature="0" /></g><path
       style="fill:#000000;fill-opacity:0;stroke:none;stroke-width:0.52499998;stroke-miterlimit:4;stroke-dasharray:none;stroke-opacity:1"
       id="path4662"
       d="m 11.603169,10.663812 c 0.09535,-0.04237 0.192386,-0.08114 0.286049,-0.127125 0.203188,-0.09976 0.402239,-0.207729 0.602836,-0.312597 0.09387,-0.04907 0.37067,-0.205186 0.279009,-0.152099 -2.147288,1.24362 -2.419177,1.417264 -1.610836,0.912906 0.34703,-0.210715 0.626415,-0.474359 0.782528,-0.85103 0.0065,-0.015 0.0041,-0.05029 0.01956,-0.04499 0.02134,0.0073 0.01893,0.04093 0.02839,0.06139 0.711506,-0.331513 1.408926,-0.6951115 2.13452,-0.9945385 0.04808,-0.019845 -0.04618,0.093277 -0.06653,0.1411507 -0.05588,0.131511 -0.103359,0.2664285 -0.154856,0.3997133 -0.237208,0.7276835 -0.538492,1.4328715 -0.862224,2.1257085 -0.563806,1.158335 -1.093633,2.331344 -1.573802,3.526698 -0.606958,1.515267 -1.18149,3.04158 -1.733611,4.577455 -0.5077388,1.306373 -1.0310858,2.609149 -1.65039,3.867131 -0.451602,0.894559 -0.9755691,1.742565 -1.6052061,2.521809 -0.9580594,1.136724 -2.3128482,1.698839 -3.5932103,2.433894 -0.4170574,0.16992 -0.8637319,0.337045 -1.3088077,0.197908 -0.3363478,-0.173773 -0.438587,-0.504238 -0.4950433,-0.853219 -0.032452,-0.394618 -0.041829,-0.792621 -0.014079,-1.187709 0.062103,-0.480789 0.3552108,-0.844653 0.6589416,-1.200156 0.719578,-0.822725 1.7535838,-1.15866 2.7200291,-1.704132 0,0 -1.9364137,1.535348 -1.9364137,1.535348 v 0 c 4.1203633,-2.40271 2.0431795,-1.333799 1.4840521,-0.792647 -0.2789161,0.332639 -0.6056904,0.625937 -0.7146922,1.06487 -0.057598,0.372956 -0.022639,0.755323 -0.01035,1.131184 0.028616,0.247365 0.057164,0.52012 0.3365282,0.59354 0.4200582,0.02801 0.8234858,-0.144568 1.1941339,-0.325068 -3.6282916,2.122267 -1.759446,1.122365 -1.0796366,0.562702 0.2342626,-0.19286 0.2968478,-0.27492 0.5106436,-0.502167 0.6564637,-0.755234 1.1855595,-1.595857 1.651571,-2.480631 0.6391137,-1.246349 1.1562841,-2.550111 1.6784468,-3.848766 0.5601255,-1.533674 1.1233156,-3.065127 1.7276776,-4.58229 0.4649992,-1.196507 0.982294,-2.370327 1.538094,-3.527549 0.323876,-0.678686 0.627627,-1.375525 0.842105,-2.09657 0.03109,-0.08112 0.200634,-0.562813 0.20107,-0.563081 0.508104,-0.311751 2.255343,-2.1488723 2.319566,-1.0773233 -0.154922,0.4122075 -0.343848,0.7615785 -0.738558,0.9978663 -1.193462,0.812092 -2.482738,1.469618 -3.7675993,2.122031 0,0 1.9200823,-1.549612 1.9200823,-1.549612 z"
       inkscape:connector-curvature="0" /><path
       style="fill:#000000;fill-opacity:1;stroke:none;stroke-width:0.52499998;stroke-miterlimit:4;stroke-dasharray:none;stroke-opacity:1"
       id="path4700"
       d="m 9.1154815,96.908499 c -0.017355,0.346635 -0.021795,0.693637 -0.037545,1.04043 -0.02337,0.61221 -0.061042,1.223722 -0.091119,1.83561 -0.03801,0.753051 -0.083395,1.505681 -0.1406985,2.257511 -0.07533,0.80866 -0.1535438,1.61688 -0.240903,2.42432 -0.086434,0.83161 -0.2761643,1.64479 -0.5033993,2.44763 -0.1435612,0.49267 -0.310425,0.97919 -0.5183752,1.44868 -0.1210351,0.27326 -0.1802345,0.38123 -0.3147713,0.64608 -0.2491197,0.47113 -0.5232815,0.93088 -0.8531856,1.35055 -0.056349,0.0717 -0.1166244,0.14019 -0.1749366,0.21028 -0.2007255,0.22211 -0.4163545,0.44103 -0.6773946,0.59309 -1.5437042,0.89921 -1.0444083,0.67539 -1.7532713,0.98352 -0.2295623,0.0913 -0.4728003,0.12648 -0.7176234,0.14176 -0.025141,7.5e-4 -0.050283,0.002 -0.075424,0.002 0,0 1.3867038,-1.01787 1.3867038,-1.01787 v 0 c 0.023026,-0.001 0.046054,-0.003 0.06908,-0.004 0.2281696,-0.0227 0.4515391,-0.0737 0.6596023,-0.17322 0.5906658,-0.29156 0.173969,-0.0901 -1.1343891,0.67466 -0.057457,0.0336 0.116752,-0.064 0.1730721,-0.0995 0.2022334,-0.12732 0.3846767,-0.28078 0.5463881,-0.45685 0.061395,-0.0678 0.1251365,-0.13361 0.1841859,-0.20348 0.3450477,-0.40834 0.6258913,-0.86555 0.8835637,-1.33242 0.3517375,-0.66321 0.659072,-1.3494 0.8635026,-2.07381 0.097279,-0.32674 0.1428739,-0.46602 0.2250905,-0.79857 0.1319817,-0.53384 0.2205997,-1.07709 0.2852055,-1.62293 0.1033995,-0.80338 0.1656748,-1.61102 0.2418819,-2.41729 0.05741,-0.74771 0.1005847,-1.4964 0.1300499,-2.24574 0.019837,-0.606034 0.056077,-1.211576 0.060705,-1.818041 0.00405,-0.336233 0.010448,-0.673118 -0.013897,-1.00881 0,0 1.5378938,-0.783593 1.5378938,-0.783593 z"
       inkscape:connector-curvature="0" /><path
       style="fill:#000000;fill-opacity:1;stroke:none;stroke-width:0.52499998;stroke-miterlimit:4;stroke-dasharray:none;stroke-opacity:1"
       id="path4702"
       d="m 3.6282202,98.212861 c -0.1037849,-0.201825 -0.1381977,-0.42507 -0.1646673,-0.64764 -0.018349,-0.244567 -0.03957,-0.49239 0.00407,-0.735712 0.010655,-0.0594 0.02695,-0.117675 0.040426,-0.17652 0.1221568,-0.408825 0.3255752,-0.784643 0.55617,-1.14117 0.2531238,-0.365198 0.5746189,-0.67743 0.9347237,-0.93663 0.080715,-0.05813 0.1650381,-0.111008 0.2475571,-0.166516 0.7405646,-0.45075 1.4830109,-0.906 2.2814753,-1.247332 0.3340875,-0.142823 0.6767085,-0.256335 1.022778,-0.365603 0.7455607,-0.230685 1.517335,-0.356512 2.290442,-0.449865 0.652604,-0.06457 1.309514,-0.102172 1.965452,-0.07892 0.12996,0.0045 0.25969,0.01432 0.389535,0.02145 0.480795,0.03923 0.962203,0.101827 1.427529,0.233235 0.246283,0.06952 0.369753,0.12225 0.607148,0.212392 0.349543,0.14868 0.688615,0.33291 0.980362,0.578595 0.168796,0.142148 0.224934,0.212918 0.374838,0.374813 0.302409,0.360397 0.549563,0.766837 0.736245,1.198665 0.03898,0.09016 0.07246,0.182603 0.108702,0.273908 0.161846,0.457545 0.267305,0.937965 0.28974,1.423762 0.0044,0.0965 0.002,0.1932 0.0028,0.2898 -0.01611,0.534263 -0.136973,1.059533 -0.335595,1.555035 -0.04301,0.107303 -0.09342,0.211485 -0.140137,0.317228 -0.270799,0.556072 -0.614015,1.076182 -1.024886,1.538964 -0.08525,0.096 -0.176291,0.18675 -0.264436,0.28012 -0.934178,0.92921 -2.137304,1.50561 -3.269394,2.14882 -0.413959,0.20645 -0.84838,0.37048 -1.299569,0.47393 -0.237767,0.0545 -0.337771,0.0656 -0.574607,0.10172 -0.377869,0.039 -0.759612,0.0874 -1.1390285,0.0457 -0.186705,-0.0127 -0.3402338,-0.0971 -0.4607835,-0.23617 -0.083113,-0.10296 -0.1196393,-0.22168 -0.111882,-0.35245 0.0054,-0.02 0.00813,-0.041 0.01623,-0.06 0.00894,-0.0211 0.014805,-0.0476 0.03447,-0.0593 1.287345,-0.76364 1.067505,-0.86124 1.925448,-0.91682 0.441533,-0.0242 0.881491,0.0263 1.314959,0.10599 0.485675,0.10434 0.94083,0.30841 1.368497,0.55676 0.281889,0.17955 0.549531,0.38931 0.75581,0.65484 0.03918,0.0505 0.07382,0.10425 0.110732,0.15637 0.22251,0.32696 0.403226,0.68059 0.59537,1.0259 0.214248,0.40242 0.405876,0.8159 0.618876,1.21905 0.153166,0.27236 0.289722,0.55385 0.45711,0.81803 0.111425,0.17585 0.130269,0.19667 0.251583,0.36482 0.181655,0.22529 0.367055,0.44921 0.581913,0.64409 0.128866,0.1169 0.200624,0.16755 0.338526,0.27351 0.234339,0.16398 0.488141,0.30171 0.762819,0.38479 0.163261,0.0494 0.230962,0.056 0.398359,0.0854 0.34156,0.0464 0.679752,-0.0134 1.000188,-0.13407 0.07289,-0.0275 0.143546,-0.0605 0.21532,-0.0908 0.51268,-0.25828 1.533692,-0.80471 -0.741209,0.44759 -0.07938,0.0437 0.152757,-0.0976 0.227037,-0.14948 0.190075,-0.13279 0.261689,-0.1963 0.4422,-0.34272 0.07054,-0.0636 0.141082,-0.12724 0.211623,-0.19086 0,0 1.52632,-0.62584 1.52632,-0.62584 v 0 c -0.06902,0.0663 -0.138048,0.13263 -0.207072,0.19894 -0.173407,0.14793 -0.251424,0.2192 -0.433266,0.35573 -0.717635,0.53881 -1.521023,0.96195 -2.335558,1.33527 -0.07589,0.0277 -0.150711,0.0584 -0.227673,0.0829 -0.341841,0.10883 -0.699168,0.13901 -1.052493,0.0713 -0.179113,-0.0398 -0.23879,-0.0474 -0.412619,-0.10915 -0.283335,-0.10073 -0.543934,-0.25381 -0.787501,-0.42848 -0.361005,-0.28443 -0.671487,-0.58751 -0.945013,-0.95884 -0.127376,-0.17874 -0.14009,-0.19062 -0.256165,-0.37744 -0.166639,-0.26822 -0.305229,-0.55202 -0.460419,-0.82677 -0.213544,-0.40125 -0.407005,-0.81249 -0.624603,-1.21158 -0.190114,-0.33921 -0.375736,-0.68282 -0.593007,-1.00542 -0.0347,-0.0478 -0.06744,-0.0971 -0.104076,-0.14339 -0.196021,-0.24785 -0.44695,-0.44658 -0.712969,-0.61411 -0.415737,-0.23576 -0.855855,-0.43001 -1.330005,-0.51167 -0.434697,-0.0671 -0.87562,-0.10505 -1.3143077,-0.0496 -0.1025258,0.0154 -0.1718115,0.0214 -0.2695163,0.0518 -0.032295,0.0101 -0.123225,0.0552 -0.094171,0.0379 0.4652971,-0.27755 0.939976,-0.53925 1.403887,-0.81911 0.02597,-0.0157 -0.101952,0.0131 -0.08909,0.0186 -0.06473,0.0572 -0.02902,0.13506 0.01828,0.19343 0.103015,0.10069 0.231745,0.13333 0.374014,0.14295 0.358771,0.0246 0.719323,-0.004 1.075354,-0.0505 0.231485,-0.0381 0.319427,-0.0477 0.551694,-0.10659 0.438452,-0.11109 0.858833,-0.28272 1.26031,-0.48979 -0.348109,0.20547 -0.696528,0.41041 -1.044325,0.61641 -0.113589,0.0673 0.229465,-0.13073 0.341697,-0.20025 0.434607,-0.2692 0.847674,-0.57709 1.218185,-0.92969 0.08927,-0.0901 0.181567,-0.17734 0.267819,-0.27036 0.413161,-0.44556 0.75651,-0.951009 1.031284,-1.492352 0.0475,-0.101655 0.09895,-0.201562 0.142503,-0.304972 0.20016,-0.475245 0.326012,-0.979898 0.346635,-1.49595 8.25e-4,-0.09289 0.0053,-0.185835 0.0025,-0.2787 -0.0139,-0.470318 -0.109588,-0.937658 -0.264408,-1.38096 -0.03476,-0.08815 -0.06664,-0.17748 -0.104261,-0.264443 -0.180024,-0.416122 -0.421486,-0.805912 -0.717339,-1.14942 -0.149436,-0.156413 -0.195153,-0.213533 -0.361401,-0.351068 -0.28125,-0.232665 -0.601766,-0.41109 -0.939389,-0.547777 -0.242646,-0.09038 -0.337214,-0.13167 -0.58905,-0.200558 -0.455522,-0.124597 -0.925966,-0.184387 -1.396048,-0.21813 -0.128095,-0.006 -0.256099,-0.01417 -0.384284,-0.0174 -0.65168,-0.01628 -1.304053,0.0261 -1.9516232,0.09616 -0.7701195,0.102472 -1.5384473,0.235312 -2.2782609,0.479055 -0.4589134,0.15462 -0.8924968,0.319867 -1.3277891,0.533647 -0.098409,0.0483 -0.3865808,0.20655 -0.293036,0.14937 0.3729249,-0.227955 0.754536,-0.44139 1.131804,-0.662077 -0.082485,0.05152 -0.1667541,0.100312 -0.2474551,0.154597 -0.3578913,0.240743 -0.6829657,0.532253 -0.9417061,0.878251 -0.043064,0.06277 -0.088081,0.124282 -0.1291908,0.18837 -0.1790463,0.279105 -0.3175884,0.582195 -0.4327953,0.892477 -0.014566,0.05288 -0.031876,0.105083 -0.043698,0.158648 -0.05041,0.22839 -0.032049,0.46176 -0.014649,0.692692 0.020989,0.19866 0.043889,0.403995 0.1541937,0.57612 0,0 -1.4971985,0.861113 -1.4971985,0.861113 z"
       inkscape:connector-curvature="0" /><path
       style="fill:#000000;fill-opacity:1;stroke:none;stroke-width:0.52499998;stroke-miterlimit:4;stroke-dasharray:none;stroke-opacity:1"
       id="path4740"
       d="m 7.3927867,14.020476 c 0.554063,-1.041355 1.113251,-1.123902 2.290288,-1.807047 0.3360433,-0.08626 0.6497743,0.02049 0.9557443,0.155591 0.317183,0.142582 0.618018,0.322125 0.944532,0.442487 0.311096,0.110406 0.627441,0.181486 0.955162,0.217507 0.341207,0.05377 0.667857,-0.02609 0.991436,-0.128721 0.05533,-0.02383 0.110031,-0.04922 0.166014,-0.07149 0.197702,-0.07865 0.151281,-0.04519 0.341706,-0.137661 0.05345,-0.02596 0.208759,-0.113591 0.157297,-0.08388 -1.527339,0.88177 -1.762258,1.032598 -1.197286,0.676711 0.237204,-0.17416 0.45967,-0.367044 0.594708,-0.631666 0.08363,-0.203531 0.09937,-0.415649 0.03824,-0.626348 -0.07761,-0.180315 -0.247866,-0.272541 -0.440228,-0.257646 0.06104,-0.107411 -0.283079,0.151874 -0.22164,0.117534 0.477014,-0.266613 0.941737,-0.554979 1.420803,-0.817887 0.03271,-0.01796 -0.05441,0.05146 -0.07756,0.08072 -0.02531,0.032 -0.04481,0.06819 -0.06722,0.102285 -0.148764,0.259786 -0.257304,0.539205 -0.377786,0.812446 -0.196252,0.390887 -0.345691,0.802886 -0.483438,1.217303 -0.209911,0.612849 -0.363295,1.242488 -0.529886,1.867935 -0.252335,0.887859 -0.400242,1.79948 -0.603585,2.698622 -0.283716,1.073885 -0.614577,2.13531 -0.964325,3.189387 -0.335797,1.012247 -0.772786,1.985711 -1.2901893,2.917159 -0.327148,0.571965 -0.732192,1.075755 -1.262095,1.467638 -0.843088,0.55026 -1.50358,1.071547 -2.458806,1.117027 -0.324174,0.0297 -0.450602,-0.117337 -0.643492,-0.342105 -0.165476,-0.199627 -0.232069,-0.440842 -0.269102,-0.691852 -0.03505,-0.253328 -0.03325,-0.49692 0.05879,-0.736973 0.377019,-0.556125 1.509353,-0.93981 1.805551,-1.091797 0.03578,-0.01837 0.479486,-0.07742 0.53575,-0.08599 0.604482,-0.102345 1.067134,-0.0079 1.648771,0.150675 0.8341453,0.293085 1.6484373,0.64077 2.4584763,0.99456 1.022139,0.483473 2.060842,0.932978 3.126056,1.31271 1.034606,0.39063 2.126125,0.528428 3.221453,0.605228 0.678429,0.02572 1.363539,-0.01358 2.02597,-0.17178 0.368552,-0.08804 0.585206,-0.179813 0.940081,-0.310493 0.544082,-0.173002 2.576146,-1.35087 0.240985,-0.0531 0,0 1.587708,-0.617535 1.587708,-0.617535 v 0 c -1.032777,0.611685 -2.039499,1.29726 -3.171411,1.717958 -0.394925,0.135202 -0.548364,0.201045 -0.957377,0.287977 -0.672288,0.142898 -1.363723,0.172335 -2.048272,0.135443 -1.104287,-0.089 -2.201649,-0.245565 -3.242389,-0.646418 -1.067583,-0.386917 -2.108856,-0.840945 -3.139767,-1.316527 -0.8085063,-0.347265 -1.6207893,-0.693165 -2.4593403,-0.961665 -0.566295,-0.13767 -1.041816,-0.198203 -1.620228,-0.08215 -0.09634,0.01755 -0.275621,0.04852 -0.373117,0.07223 -0.05028,0.01223 -0.193129,0.0702 -0.149219,0.04282 2.309628,-1.44015 1.707553,-0.969607 1.163832,-0.70071 -0.137276,0.197115 -0.130545,0.40953 -0.105164,0.641753 0.02448,0.219525 0.06966,0.430762 0.218327,0.60318 0.186249,0.21252 0.26158,0.235417 0.551964,0.207427 0.784743,-0.08338 1.703129,-0.76644 -0.559342,0.55296 0.560115,-0.348705 0.974029,-0.84483 1.316851,-1.405215 0.532407,-0.9189 0.975636,-1.886363 1.316807,-2.892935 0.3496513,-1.047561 0.6728893,-2.104405 0.9621313,-3.170265 0.207798,-0.896444 0.344744,-1.807981 0.586902,-2.696771 0.162942,-0.625933 0.312815,-1.255874 0.513984,-1.870948 0.131346,-0.417685 0.270567,-0.838176 0.466743,-1.229921 0.123598,-0.274487 0.226193,-0.557238 0.367065,-0.823649 0.33077,-0.717028 1.187109,-1.220142 1.967006,-1.209927 0.244232,0.0627 0.442591,0.190898 0.546336,0.429879 0.08175,0.243383 0.08826,0.489194 0.01559,0.737126 -0.107099,0.30802 -0.313801,0.518926 -0.560519,0.726613 -0.756016,0.54716 -1.580223,1.020677 -2.467959,1.313 -0.34266,0.0856 -0.682424,0.140361 -1.034932,0.07361 -0.335481,-0.04899 -0.66167,-0.132891 -0.97895,-0.253755 -0.3214773,-0.135205 -0.6265323,-0.306298 -0.9475503,-0.443175 -0.287689,-0.10843 -0.573764,-0.181611 -0.863529,-0.03283 2.6600763,-1.57047 1.433776,-0.959738 1.042849,-0.551718 -0.155785,0.162597 -0.280779,0.351222 -0.387945,0.548422 0,0 -1.588252,0.718576 -1.588252,0.718576 z"
       inkscape:connector-curvature="0" /></g></svg>