<?xml version="1.0" encoding="UTF-8" standalone="no"?>
<!-- Created with Inkscape (http://www.inkscape.org/) -->

<svg
   xmlns:dc="http://purl.org/dc/elements/1.1/"
   xmlns:cc="http://creativecommons.org/ns#"
   xmlns:rdf="http://www.w3.org/1999/02/22-rdf-syntax-ns#"
   xmlns:svg="http://www.w3.org/2000/svg"
   xmlns="http://www.w3.org/2000/svg"
   xmlns:sodipodi="http://sodipodi.sourceforge.net/DTD/sodipodi-0.dtd"
   xmlns:inkscape="http://www.inkscape.org/namespaces/inkscape"
   version="1.1"
   id="svg4742"
   xml:space="preserve"
   width="430.99506"
   height="123.14711"
   viewBox="0 0 474.09456 135.46182"
   sodipodi:docname="translate.svg"
   inkscape:version="0.92.5 (2060ec1f9f, 2020-04-08)"><metadata
     id="metadata4748"><rdf:RDF><cc:Work
         rdf:about=""><dc:format>image/svg+xml</dc:format><dc:type
           rdf:resource="http://purl.org/dc/dcmitype/StillImage" /><dc:title></dc:title></cc:Work></rdf:RDF></metadata><defs
     id="defs4746" /><sodipodi:namedview
     pagecolor="#ffffff"
     bordercolor="#666666"
     borderopacity="1"
     objecttolerance="10"
     gridtolerance="10"
     guidetolerance="10"
     inkscape:pageopacity="0"
     inkscape:pageshadow="2"
     inkscape:window-width="2560"
     inkscape:window-height="1017"
     id="namedview4744"
     showgrid="false"
     inkscape:zoom="2.1412063"
     inkscape:cx="216.35896"
     inkscape:cy="114.62619"
     inkscape:window-x="-8"
     inkscape:window-y="-8"
     inkscape:window-maximized="1"
     inkscape:current-layer="g4750"
     scale-x="1.1"
     fit-margin-top="0"
     fit-margin-left="0"
     fit-margin-right="0"
     fit-margin-bottom="0" /><g
     id="g4750"
     inkscape:groupmode="layer"
     inkscape:label="allclosed"
     transform="matrix(1.3333333,0,0,1.3333333,-13.849877,-17.295356)"><g
       id="g4752"
       transform="translate(38.529684)"><g
         id="g4792"
         transform="translate(-7.4303457,-43.343683)"><path
           d="m 37.5,83.332 h 37.121 v 37.125 H 37.5 Z"
           style="fill:none;stroke:#000000;stroke-width:0.75;stroke-linecap:butt;stroke-linejoin:miter;stroke-miterlimit:4;stroke-dasharray:none;stroke-opacity:1"
           id="path4794"
           inkscape:connector-curvature="0" /></g><g
         id="g4798"
         transform="translate(-7.4303457,-43.343683)"><path
           d="m 74.621,83.332 h 37.125 v 37.125 H 74.621 Z"
           style="fill:none;stroke:#000000;stroke-width:0.75;stroke-linecap:butt;stroke-linejoin:miter;stroke-miterlimit:4;stroke-dasharray:none;stroke-opacity:1"
           id="path4800"
           inkscape:connector-curvature="0" /></g><g
         id="g4804"
         transform="translate(-7.4303457,-43.343683)"><path
           d="m 148.867,83.332 h 37.125 v 37.125 h -37.125 z"
           style="fill:none;stroke:#000000;stroke-width:0.75;stroke-linecap:butt;stroke-linejoin:miter;stroke-miterlimit:4;stroke-dasharray:none;stroke-opacity:1"
           id="path4806"
           inkscape:connector-curvature="0" /></g><path
         d="m 104.31565,39.988317 h 37.121 v 37.125 h -37.121 z"
         style="fill:#000000;fill-opacity:0.17676799;fill-rule:nonzero;stroke:none"
         id="path4808"
         inkscape:connector-curvature="0" /><g
         id="g4810"
         transform="translate(-7.4303457,-43.343683)"><path
           d="m 111.746,83.332 h 37.121 v 37.125 h -37.121 z"
           style="fill:none;stroke:#000000;stroke-width:0.75;stroke-linecap:butt;stroke-linejoin:miter;stroke-miterlimit:4;stroke-dasharray:none;stroke-opacity:1"
           id="path4812"
           inkscape:connector-curvature="0" /></g><path
         d="m 252.80765,39.988317 h 37.121 v 37.125 h -37.121 z"
         style="fill:#000000;fill-opacity:0.17676799;fill-rule:nonzero;stroke:none"
         id="path4814"
         inkscape:connector-curvature="0" /><g
         id="g4816"
         transform="translate(-7.4303457,-43.343683)"><path
           d="m 260.238,83.332 h 37.121 v 37.125 h -37.121 z"
           style="fill:none;stroke:#000000;stroke-width:0.75;stroke-linecap:butt;stroke-linejoin:miter;stroke-miterlimit:4;stroke-dasharray:none;stroke-opacity:1"
           id="path4818"
           inkscape:connector-curvature="0" /></g><path
         d="m 215.68265,39.988317 h 37.125 v 37.125 h -37.125 z"
         style="fill:#000000;fill-opacity:0.17676799;fill-rule:nonzero;stroke:none"
         id="path4820"
         inkscape:connector-curvature="0" /><g
         id="g4822"
         transform="translate(-7.4303457,-43.343683)"><path
           d="m 223.113,83.332 h 37.125 v 37.125 h -37.125 z"
           style="fill:none;stroke:#000000;stroke-width:0.75;stroke-linecap:butt;stroke-linejoin:miter;stroke-miterlimit:4;stroke-dasharray:none;stroke-opacity:1"
           id="path4824"
           inkscape:connector-curvature="0" /></g><path
         d="m 178.56165,39.988317 h 37.121 v 37.125 h -37.121 z"
         style="fill:#000000;fill-opacity:0.17676799;fill-rule:nonzero;stroke:none"
         id="path4826"
         inkscape:connector-curvature="0" /><g
         id="g4828"
         transform="translate(-7.4303457,-43.343683)"><path
           d="m 185.992,83.332 h 37.121 v 37.125 h -37.121 z"
           style="fill:none;stroke:#000000;stroke-width:0.75;stroke-linecap:butt;stroke-linejoin:miter;stroke-miterlimit:4;stroke-dasharray:none;stroke-opacity:1"
           id="path4830"
           inkscape:connector-curvature="0" /></g><path
         d="m 289.92865,39.988317 h 37.125 v 37.125 h -37.125 z"
         style="fill:#000000;fill-opacity:0.17676799;fill-rule:nonzero;stroke:none"
         id="path4832"
         inkscape:connector-curvature="0" /><g
         id="g4834"
         transform="translate(-7.4303457,-43.343683)"><path
           d="m 297.359,83.332 h 37.125 v 37.125 h -37.125 z"
           style="fill:none;stroke:#000000;stroke-width:0.75;stroke-linecap:butt;stroke-linejoin:miter;stroke-miterlimit:4;stroke-dasharray:none;stroke-opacity:1"
           id="path4836"
           inkscape:connector-curvature="0" /></g><path
         d="M -7.0553457,39.988317 H 30.069654 v 37.125 H -7.0553457 Z"
         style="fill:#000000;fill-opacity:0.17676799;fill-rule:nonzero;stroke:none"
         id="path4838"
         inkscape:connector-curvature="0" /><g
         id="g4840"
         transform="translate(-7.4303457,-43.343683)"><path
           d="M 0.375,83.332 H 37.5 v 37.125 H 0.375 Z"
           style="fill:none;stroke:#000000;stroke-width:0.75;stroke-linecap:butt;stroke-linejoin:miter;stroke-miterlimit:4;stroke-dasharray:none;stroke-opacity:1"
           id="path4842"
           inkscape:connector-curvature="0" /></g><path
         d="m 3.4836543,48.168317 c 1.184,1.039 2.305,2.156 3.402,3.289 1.348,1.375 2.61,2.832 3.8719997,4.289 1.234,1.5 2.527,2.949 3.894,4.328 1.008,1.031 2,2.074 3.043,3.07 0.672,0.645 1.434,1.184 2.109,1.821 0.407,0.211 0.579,0.796 1.02,0.925 0,0 -3.352,2.184 -3.352,2.184 -0.39,-0.297 -0.668,-0.715 -1.054,-1.02 -0.676,-0.636 -1.418,-1.195 -2.082,-1.843 -1.032,-1.008 -2.016,-2.063 -3.02,-3.094 -1.3589997,-1.398 -2.6559997,-2.852 -3.8939997,-4.359 -1.258,-1.45 -2.528,-2.891 -3.875,-4.262 -1.102,-1.121 -2.215,-2.246 -3.43799998,-3.235 0,0 3.37499998,-2.093 3.37499998,-2.093 z"
         style="fill:#000000;fill-opacity:1;fill-rule:nonzero;stroke:none"
         id="path4862"
         inkscape:connector-curvature="0" /><path
         d="m 18.686654,48.219317 c -0.859,1.632 -1.715,3.265 -2.621,4.875 -1.062,1.941 -2.273,3.789 -3.523,5.613 -1.235,1.722 -2.524,3.402 -3.8009997,5.09 -1.063,1.379 -2.203,2.691 -3.426,3.929 -0.746,0.758 -1.613,1.371 -2.504,1.942 -0.441,0.269 -0.23,0.133 -0.633,0.398 0,0 -3.699,1.465 -3.699,1.465 0.391,-0.309 0.184,-0.16 0.62900002,-0.434 0.918,-0.531 1.793,-1.148 2.56999998,-1.863 1.246,-1.226 2.411,-2.519 3.485,-3.898 1.277,-1.688 2.562,-3.367 3.816,-5.075 1.2499997,-1.812 2.4769997,-3.644 3.5349997,-5.582 0.891,-1.582 1.735,-3.191 2.559,-4.808 0,0 3.613,-1.652 3.613,-1.652 z"
         style="fill:#000000;fill-opacity:1;fill-rule:nonzero;stroke:none"
         id="path4864"
         inkscape:connector-curvature="0" /><path
         d="m 115.60465,47.457317 c 1.184,1.039 2.305,2.156 3.403,3.289 1.347,1.375 2.609,2.832 3.875,4.289 1.23,1.5 2.523,2.949 3.89,4.328 1.008,1.031 2.004,2.074 3.047,3.07 0.668,0.645 1.43,1.184 2.109,1.821 0.403,0.211 0.575,0.797 1.016,0.925 0,0 -3.352,2.18 -3.352,2.18 -0.39,-0.293 -0.668,-0.711 -1.05,-1.015 -0.676,-0.637 -1.422,-1.196 -2.086,-1.844 -1.032,-1.008 -2.016,-2.063 -3.02,-3.094 -1.359,-1.398 -2.656,-2.852 -3.894,-4.359 -1.258,-1.45 -2.528,-2.891 -3.875,-4.262 -1.102,-1.121 -2.211,-2.246 -3.438,-3.234 0,0 3.375,-2.094 3.375,-2.094 z"
         style="fill:#000000;fill-opacity:1;fill-rule:nonzero;stroke:none"
         id="path4874"
         inkscape:connector-curvature="0" /><path
         d="m 130.81165,47.508317 c -0.863,1.632 -1.719,3.265 -2.625,4.875 -1.058,1.941 -2.273,3.789 -3.523,5.613 -1.235,1.719 -2.524,3.402 -3.801,5.09 -1.063,1.379 -2.203,2.691 -3.426,3.929 -0.746,0.758 -1.613,1.371 -2.504,1.942 -0.441,0.269 -0.23,0.133 -0.633,0.398 0,0 -3.699,1.465 -3.699,1.465 0.395,-0.309 0.184,-0.16 0.633,-0.434 0.914,-0.531 1.789,-1.148 2.57,-1.863 1.243,-1.226 2.407,-2.519 3.481,-3.898 1.277,-1.688 2.562,-3.367 3.816,-5.074 1.25,-1.813 2.477,-3.645 3.535,-5.582 0.895,-1.583 1.735,-3.192 2.563,-4.809 0,0 3.613,-1.652 3.613,-1.652 z"
         style="fill:#000000;fill-opacity:1;fill-rule:nonzero;stroke:none"
         id="path4876"
         inkscape:connector-curvature="0" /><path
         d="m 191.40965,46.652317 c 1.183,1.043 2.305,2.156 3.402,3.289 1.348,1.379 2.61,2.832 3.871,4.289 1.235,1.504 2.528,2.949 3.895,4.328 1.008,1.032 2,2.078 3.043,3.071 0.672,0.648 1.433,1.183 2.109,1.82 0.406,0.211 0.578,0.797 1.02,0.926 0,0 -3.352,2.183 -3.352,2.183 -0.39,-0.297 -0.668,-0.714 -1.055,-1.019 -0.675,-0.637 -1.418,-1.195 -2.082,-1.84 -1.031,-1.008 -2.015,-2.063 -3.019,-3.098 -1.359,-1.398 -2.656,-2.851 -3.895,-4.359 -1.257,-1.449 -2.527,-2.891 -3.879,-4.258 -1.097,-1.125 -2.21,-2.25 -3.433,-3.234 0,0 3.375,-2.098 3.375,-2.098 z"
         style="fill:#000000;fill-opacity:1;fill-rule:nonzero;stroke:none"
         id="path4882"
         inkscape:connector-curvature="0" /><path
         d="m 206.61265,46.703317 c -0.859,1.633 -1.715,3.269 -2.621,4.875 -1.063,1.945 -2.274,3.793 -3.524,5.617 -1.234,1.719 -2.523,3.399 -3.8,5.086 -1.063,1.379 -2.203,2.691 -3.426,3.934 -0.746,0.754 -1.613,1.367 -2.504,1.937 -0.441,0.27 -0.23,0.133 -0.633,0.402 0,0 -3.699,1.461 -3.699,1.461 0.391,-0.304 0.184,-0.16 0.629,-0.433 0.918,-0.531 1.793,-1.145 2.57,-1.863 1.246,-1.227 2.41,-2.52 3.485,-3.899 1.277,-1.687 2.562,-3.367 3.816,-5.074 1.25,-1.813 2.477,-3.645 3.535,-5.578 0.891,-1.586 1.734,-3.196 2.559,-4.813 0,0 3.613,-1.652 3.613,-1.652 z"
         style="fill:#000000;fill-opacity:1;fill-rule:nonzero;stroke:none"
         id="path4884"
         inkscape:connector-curvature="0" /><path
         d="m 227.63965,47.219317 c 1.184,1.042 2.305,2.156 3.403,3.289 1.347,1.378 2.613,2.836 3.875,4.289 1.23,1.504 2.527,2.949 3.894,4.328 1.004,1.031 2,2.078 3.043,3.07 0.668,0.649 1.43,1.188 2.11,1.82 0.402,0.211 0.578,0.797 1.019,0.926 0,0 -3.351,2.184 -3.351,2.184 -0.395,-0.297 -0.668,-0.711 -1.055,-1.02 -0.676,-0.633 -1.418,-1.195 -2.086,-1.84 -1.031,-1.007 -2.016,-2.062 -3.02,-3.097 -1.359,-1.399 -2.656,-2.852 -3.894,-4.356 -1.258,-1.453 -2.528,-2.894 -3.875,-4.261 -1.098,-1.125 -2.211,-2.25 -3.438,-3.235 0,0 3.375,-2.097 3.375,-2.097 z"
         style="fill:#000000;fill-opacity:1;fill-rule:nonzero;stroke:none"
         id="path4886"
         inkscape:connector-curvature="0" /><path
         d="m 242.84665,47.269317 c -0.863,1.633 -1.714,3.27 -2.621,4.879 -1.062,1.942 -2.277,3.789 -3.527,5.613 -1.234,1.719 -2.52,3.399 -3.797,5.086 -1.066,1.383 -2.203,2.696 -3.43,3.934 -0.746,0.754 -1.613,1.367 -2.504,1.938 -0.441,0.269 -0.23,0.136 -0.632,0.402 0,0 -3.696,1.461 -3.696,1.461 0.391,-0.305 0.18,-0.16 0.629,-0.434 0.914,-0.531 1.789,-1.144 2.571,-1.863 1.242,-1.227 2.41,-2.52 3.484,-3.895 1.273,-1.691 2.562,-3.371 3.812,-5.078 1.25,-1.812 2.477,-3.644 3.536,-5.578 0.894,-1.586 1.734,-3.195 2.562,-4.812 0,0 3.613,-1.653 3.613,-1.653 z"
         style="fill:#000000;fill-opacity:1;fill-rule:nonzero;stroke:none"
         id="path4888"
         inkscape:connector-curvature="0" /><path
         d="m 263.43665,46.840317 c 1.184,1.043 2.305,2.156 3.403,3.289 1.347,1.379 2.613,2.836 3.875,4.289 1.23,1.504 2.527,2.949 3.894,4.328 1.008,1.031 2,2.078 3.043,3.07 0.668,0.649 1.43,1.188 2.109,1.82 0.403,0.211 0.579,0.797 1.02,0.926 0,0 -3.352,2.184 -3.352,2.184 -0.394,-0.297 -0.668,-0.711 -1.054,-1.02 -0.676,-0.632 -1.418,-1.195 -2.086,-1.84 -1.031,-1.007 -2.016,-2.062 -3.02,-3.097 -1.359,-1.399 -2.652,-2.852 -3.894,-4.356 -1.258,-1.453 -2.528,-2.894 -3.875,-4.261 -1.098,-1.125 -2.211,-2.25 -3.438,-3.235 0,0 3.375,-2.097 3.375,-2.097 z"
         style="fill:#000000;fill-opacity:1;fill-rule:nonzero;stroke:none"
         id="path4890"
         inkscape:connector-curvature="0" /><path
         d="m 278.64365,46.890317 c -0.863,1.633 -1.715,3.27 -2.621,4.879 -1.062,1.942 -2.277,3.789 -3.527,5.614 -1.235,1.718 -2.52,3.398 -3.797,5.086 -1.066,1.382 -2.203,2.695 -3.43,3.933 -0.746,0.754 -1.613,1.367 -2.504,1.938 -0.437,0.269 -0.23,0.136 -0.632,0.402 0,0 -3.696,1.461 -3.696,1.461 0.391,-0.305 0.184,-0.16 0.629,-0.434 0.914,-0.531 1.789,-1.144 2.57,-1.863 1.243,-1.227 2.411,-2.516 3.485,-3.895 1.277,-1.687 2.562,-3.371 3.812,-5.078 1.254,-1.812 2.481,-3.644 3.535,-5.578 0.895,-1.586 1.735,-3.195 2.563,-4.812 0,0 3.613,-1.653 3.613,-1.653 z"
         style="fill:#000000;fill-opacity:1;fill-rule:nonzero;stroke:none"
         id="path4892"
         inkscape:connector-curvature="0" /><path
         d="m 301.88565,46.465317 c 1.184,1.039 2.305,2.156 3.403,3.285 1.347,1.379 2.613,2.836 3.875,4.289 1.23,1.504 2.527,2.949 3.894,4.328 1.004,1.031 2,2.078 3.043,3.07 0.668,0.649 1.43,1.188 2.11,1.821 0.402,0.211 0.578,0.796 1.019,0.925 0,0 -3.351,2.184 -3.351,2.184 -0.395,-0.297 -0.668,-0.711 -1.055,-1.02 -0.676,-0.632 -1.418,-1.195 -2.086,-1.839 -1.031,-1.008 -2.016,-2.063 -3.02,-3.098 -1.359,-1.399 -2.652,-2.852 -3.894,-4.356 -1.258,-1.453 -2.527,-2.894 -3.875,-4.261 -1.098,-1.125 -2.211,-2.25 -3.438,-3.235 0,0 3.375,-2.093 3.375,-2.093 z"
         style="fill:#000000;fill-opacity:1;fill-rule:nonzero;stroke:none"
         id="path4894"
         inkscape:connector-curvature="0" /><path
         d="m 317.09265,46.511317 c -0.863,1.633 -1.714,3.27 -2.621,4.879 -1.062,1.942 -2.277,3.789 -3.527,5.614 -1.234,1.718 -2.52,3.398 -3.797,5.086 -1.066,1.382 -2.203,2.695 -3.43,3.933 -0.746,0.754 -1.613,1.367 -2.503,1.938 -0.438,0.269 -0.231,0.136 -0.633,0.402 0,0 -3.696,1.461 -3.696,1.461 0.391,-0.305 0.18,-0.16 0.629,-0.43 0.914,-0.535 1.789,-1.148 2.571,-1.867 1.242,-1.226 2.41,-2.516 3.484,-3.894 1.273,-1.688 2.563,-3.372 3.813,-5.079 1.253,-1.812 2.476,-3.644 3.535,-5.578 0.894,-1.586 1.734,-3.195 2.562,-4.812 0,0 3.613,-1.653 3.613,-1.653 z"
         style="fill:#000000;fill-opacity:1;fill-rule:nonzero;stroke:none"
         id="path4896"
         inkscape:connector-curvature="0" /><path
         d="m 41.90975,54.166627 c 0.668,1.344 1.312,2.703 1.89,4.086 0.578,1.289004 1.153,2.578004 1.723,3.867004 0.43,0.93 0.773,1.895 1.277,2.786 -0.101,-0.012 0.192,0.242 0.242,0.156 0.028,-0.047 0.055,-0.192 0.004,-0.168 -1.121,0.559 -2.16,1.266 -3.289,1.801 -0.086,0.043 0.047,-0.18 0.071,-0.27 0.023,-0.101 0.043,-0.207 0.062,-0.308 0.242,-1.079 0.68,-2.098 1.106,-3.114 0.761,-1.773 1.925,-3.324 3.121,-4.824004 1.007,-1.207 2.023,-2.414 3.168001,-3.496 0.600999,-0.566 1.086,-0.941 1.717999,-1.461 1.317,-1.059 2.731,-1.98 4.153,-2.891 0,0 3.672,-1.421 3.672,-1.421 -1.454024,0.882 -2.864025,1.832 -4.215025,2.863 -0.485,0.387 -1.289,1.012 -1.742,1.426 -1.161,1.058 -2.168,2.265 -3.183999,3.457 -1.184001,1.461 -2.34,2.980004 -3.117,4.699004 -0.406001,0.996 -0.852001,1.98 -1.094001,3.027 -0.023,0.102 -0.051,0.203 -0.066,0.305 -0.02,0.105 0.039,0.254 -0.047,0.32 -1.664,1.262 -2.856,3.442 -4.008,1.879 -0.492,-0.914 -0.84,-1.891 -1.266,-2.832 -0.561973,-1.297 -1.139973,-2.586 -1.710973,-3.883 -0.57,-1.371004 -1.187,-2.726004 -1.918,-4.019004 0,0 3.45,-1.985 3.45,-1.985 z"
         style="fill:#000000;fill-opacity:1;fill-rule:nonzero;stroke:none;stroke-width:0.99999994"
         id="path4852-7"
         inkscape:connector-curvature="0" /><path
         d="m 80.547548,52.68056 c 0.668,1.344 1.312,2.703 1.89,4.085997 0.578,1.289 1.153,2.578 1.723,3.867 0.43,0.93 0.773,1.895 1.277,2.786 -0.101,-0.012 0.192,0.242 0.242,0.156 0.028,-0.047 0.055,-0.192 0.004,-0.168 -1.121,0.559 -2.16,1.266 -3.289,1.801 -0.086,0.043 0.047,-0.18 0.071,-0.27 0.023,-0.101 0.043,-0.207 0.062,-0.308 0.242,-1.079 0.68,-2.098 1.106,-3.114 0.761,-1.773 1.925,-3.324 3.121,-4.824 1.007,-1.206997 2.023,-2.413997 3.168001,-3.495997 0.600999,-0.566 1.086,-0.941 1.717999,-1.461 1.316996,-1.059003 2.730996,-1.980003 4.152996,-2.891003 0,0 3.672,-1.421 3.672,-1.421 -1.45402,0.882 -2.86402,1.832 -4.21502,2.863 -0.485,0.387 -1.289,1.012003 -1.742,1.426003 -1.161001,1.058 -2.168001,2.265 -3.184,3.457 -1.184001,1.461 -2.34,2.979997 -3.117,4.698997 -0.406001,0.996 -0.852001,1.98 -1.094001,3.027 -0.023,0.102 -0.051,0.203 -0.066,0.305 -0.02,0.105 0.039,0.254 -0.047,0.32 -1.664,1.262 -2.856,3.442 -4.008,1.879 -0.492,-0.914 -0.84,-1.891 -1.266,-2.832 -0.561973,-1.297 -1.139973,-2.586 -1.710973,-3.883 -0.57,-1.371 -1.187,-2.725997 -1.918,-4.018997 0,0 3.45,-1.985 3.45,-1.985 z"
         style="fill:#000000;fill-opacity:1;fill-rule:nonzero;stroke:none;stroke-width:0.99999994"
         id="path4852-4"
         inkscape:connector-curvature="0" /><path
         d="m 156.33707,53.91895 c 0.668,1.344 1.312,2.703 1.89,4.085997 0.578,1.289 1.153,2.578 1.723,3.867 0.43,0.93 0.773,1.895 1.277,2.786 -0.101,-0.012 0.192,0.242 0.242,0.156 0.028,-0.047 0.055,-0.192 0.004,-0.168 -1.121,0.559 -2.16,1.266 -3.289,1.801 -0.086,0.043 0.047,-0.18 0.071,-0.27 0.023,-0.101 0.043,-0.207 0.062,-0.308 0.242,-1.079 0.68,-2.098 1.106,-3.114 0.761,-1.773 1.925,-3.324 3.121,-4.824 1.007,-1.207 2.023,-2.413997 3.168,-3.495997 0.601,-0.566 1.086,-0.941 1.718,-1.461 1.317,-1.059 2.731,-1.98 4.153,-2.891 0,0 3.672,-1.421001 3.672,-1.421001 -1.45403,0.882001 -2.86403,1.832001 -4.21503,2.863001 -0.485,0.387 -1.289,1.012 -1.742,1.426 -1.161,1.058 -2.168,2.265 -3.184,3.457 -1.184,1.460997 -2.34,2.979997 -3.117,4.698997 -0.406,0.996 -0.852,1.98 -1.094,3.027 -0.023,0.102 -0.051,0.203 -0.066,0.305 -0.02,0.105 0.039,0.254 -0.047,0.32 -1.664,1.262 -2.856,3.442 -4.008,1.879 -0.492,-0.914 -0.84,-1.891 -1.266,-2.832 -0.56197,-1.297 -1.13997,-2.586 -1.71097,-3.883 -0.57,-1.371 -1.187,-2.726 -1.918,-4.018997 0,0 3.45,-1.985 3.45,-1.985 z"
         style="fill:#000000;fill-opacity:1;fill-rule:nonzero;stroke:none;stroke-width:0.99999994"
         id="path4852-76"
         inkscape:connector-curvature="0" /><path
         style="fill:#000000;fill-opacity:1;stroke:none;stroke-width:0.52499998;stroke-miterlimit:4;stroke-dasharray:none;stroke-opacity:1"
         id="path925"
         d="m 77.976324,20.120895 c -0.151537,-0.359555 -0.38271,-0.728376 -0.385635,-1.13369 -0.0094,-1.298048 2.793368,-2.128127 3.43782,-2.507148 1.172708,-0.22487 2.381798,-0.185537 3.571223,-0.187362 1.578975,-0.02255 3.155152,0.0027 4.726455,0.165359 0.84069,0.174425 1.7064,0.238671 2.539867,0.449192 0.07102,0.01793 0.802163,0.247599 0.897368,0.277379 0.643928,0.247015 1.16097,0.428485 1.533668,1.036237 0.322425,0.632707 -0.0076,1.102138 -0.46575,1.538362 -1.685806,1.134064 -3.484816,2.219934 -5.422433,2.88456 -0.448725,0.185749 -0.93,0.266752 -1.382828,0.440253 -0.128805,0.04935 -0.496815,0.238723 -0.377505,0.169495 2.908838,-1.68785 3.45177,-2.194848 2.554238,-1.387497 -0.163695,0.404096 0.606937,0.866706 0.868717,1.058803 0.917933,0.539902 1.80837,1.136944 2.642648,1.799595 0.851595,0.590503 1.58073,1.333152 2.342798,2.03077 0.630562,0.518882 1.006582,1.224396 1.21278,2.002622 0.05557,0.456128 -0.0387,1.022111 -0.473438,1.285523 -1.052272,0.637632 -2.125755,1.239594 -3.188633,1.859391 -0.902047,0.422942 -1.848682,0.652935 -2.826337,0.818931 -1.37109,0.165433 -2.75601,0.211024 -4.135208,0.157455 -1.434607,-0.05533 -2.81274,-0.420523 -4.168042,-0.867226 -0.693945,-0.263088 -0.356445,-0.135943 -1.012395,-0.381668 0,0 2.831002,-1.903955 2.831002,-1.903955 v 0 c 0.644813,0.247783 0.313298,0.122818 0.994785,0.374221 1.332953,0.430914 2.689305,0.770549 4.099403,0.796619 1.370977,0.02638 2.74914,-0.01463 4.106347,-0.224433 0.966811,-0.18831 1.910596,-0.458647 2.782718,-0.928484 -0.892012,0.523922 -1.7838,1.048231 -2.676038,1.571768 -0.07793,0.04573 0.158686,-0.08711 0.233116,-0.138338 0.277612,-0.191102 0.425602,-0.451773 0.412582,-0.791777 -0.148357,-0.730978 -0.529215,-1.351805 -1.102658,-1.831873 -0.746662,-0.698629 -1.467487,-1.433006 -2.312467,-2.015969 -0.846008,-0.648778 -1.737653,-1.235732 -2.6535,-1.781416 -0.512813,-0.378998 -1.099403,-0.80436 -1.127108,-1.499096 0.592958,-1.599716 3.431393,-2.111658 5.045805,-2.716198 0.444765,-0.171953 0.883103,-0.35294 1.311353,-0.563555 0.145927,-0.07177 0.57309,-0.307228 0.433493,-0.223817 -1.853086,1.1072 -3.494963,2.008444 -2.193871,1.291386 0.379605,-0.281478 0.892328,-0.564603 0.66951,-1.095722 -0.301245,-0.494731 -0.870997,-0.636307 -1.3827,-0.839999 -1.098345,-0.344143 -2.230005,-0.526321 -3.368422,-0.688979 -1.564823,-0.142676 -3.13323,-0.163108 -4.70397,-0.13811 -1.166498,0.01475 -2.402535,-0.06145 -3.513,0.343817 0.87486,-0.528947 1.74972,-1.057894 2.624587,-1.586841 -0.122272,0.0859 -0.311152,0.18093 -0.34977,0.350886 -0.0797,0.350752 0.205845,0.719321 0.32613,1.01847 0,0 -2.976705,1.712059 -2.976705,1.712059 z"
         inkscape:connector-curvature="0" /><path
         style="fill:#000000;fill-opacity:1;stroke:none;stroke-width:0.52499998;stroke-miterlimit:4;stroke-dasharray:none;stroke-opacity:1"
         id="path939"
         d="m 121.93924,15.652195 c -0.43287,1.453946 -0.88241,2.900611 -1.26906,4.3678 -0.33784,1.251077 -0.73993,2.481209 -0.98456,3.755346 -0.10967,0.645302 -0.22055,1.156755 0.4107,1.520304 0.6386,0.192022 1.32388,0.203199 1.98306,0.140709 0.86428,-0.144558 1.69607,-0.438291 2.46641,-0.854408 -0.23016,0.165952 0.84886,-0.480514 0.63688,-0.359968 -0.88419,0.502811 -1.76202,1.016775 -2.64757,1.517187 -0.0914,0.05167 0.17401,-0.118011 0.26485,-0.170749 3.19255,-1.853407 2.04932,-1.413014 3.45647,-1.934805 0,0 -2.69636,2.131996 -2.69636,2.131996 v 0 c -1.15567,0.574416 -0.44108,0.225786 2.43995,-1.439553 0.0913,-0.05276 -0.17871,0.111926 -0.26953,0.165481 -1.27183,0.750044 -2.53129,1.560086 -3.85701,2.226666 -0.81135,0.368212 -1.65732,0.670204 -2.55159,0.74708 -0.71816,0.01966 -1.47038,0.02025 -2.12321,-0.318475 -0.67362,-0.517524 -0.74505,-1.066749 -0.58464,-1.878828 0.24573,-1.289921 0.6517,-2.532249 1.00983,-3.793583 0.38504,-1.455766 0.81951,-2.8955 1.21857,-4.346784 0,0 3.09681,-1.475416 3.09681,-1.475416 z"
         inkscape:connector-curvature="0" /><path
         style="fill:#000000;fill-opacity:1;stroke:none;stroke-width:0.52499998;stroke-miterlimit:4;stroke-dasharray:none;stroke-opacity:1"
         id="path941"
         d="m 128.41962,15.712952 c -0.12518,1.842817 -0.39246,3.67251 -0.71419,5.490107 -0.39102,1.888603 -0.90783,3.751346 -1.45566,5.60016 -0.3635,1.181329 -0.70867,2.365898 -0.90457,3.587557 -0.0169,0.13673 -0.0337,0.27346 -0.0505,0.41019 0,0 -3.06693,1.516267 -3.06693,1.516267 v 0 c 0.0169,-0.14131 0.0338,-0.282621 0.0508,-0.423931 0.19347,-1.243541 0.53397,-2.450673 0.92213,-3.647021 0.56104,-1.839706 1.08388,-3.694933 1.49282,-5.574635 0.31957,-1.793746 0.60643,-3.603272 0.66637,-5.427033 0,0 3.05979,-1.531661 3.05979,-1.531661 z"
         inkscape:connector-curvature="0" /><path
         style="fill:#000000;fill-opacity:1;stroke:none;stroke-width:0.52499998;stroke-miterlimit:4;stroke-dasharray:none;stroke-opacity:1"
         id="path947"
         d="m 160.28945,17.569204 c 1.21452,-0.01263 2.42682,-0.123379 3.64098,-0.174295 1.11552,-0.140541 2.24468,-0.165438 3.35808,-0.316596 0.14163,-0.02131 0.28325,-0.04262 0.42488,-0.06393 0,0 -2.73889,2.048619 -2.73889,2.048619 v 0 c -0.1417,0.01829 -0.28339,0.03657 -0.42508,0.05485 -1.11654,0.111624 -2.23728,0.185514 -3.35508,0.283737 -1.22727,0.0586 -2.45237,0.169029 -3.68114,0.184679 0,0 2.77625,-2.017067 2.77625,-2.017067 z"
         inkscape:connector-curvature="0" /><path
         style="fill:#000000;fill-opacity:1;stroke:none;stroke-width:0.52499998;stroke-miterlimit:4;stroke-dasharray:none;stroke-opacity:1"
         id="path949"
         d="m 160.60332,18.087849 c -0.23329,1.078543 -0.56931,2.129499 -0.85151,3.195138 -0.005,0.310156 -0.58145,1.309549 -0.38573,1.568101 0.0232,0.03067 0.0691,0.03364 0.10375,0.05047 0.6826,0.133865 1.38627,0.08516 2.07782,0.14257 0.88628,0.06003 1.76468,0.26822 2.56665,0.651097 0.68039,0.390716 1.17408,0.744486 1.56179,1.438828 0.32289,0.673781 0.54437,1.394492 0.59247,2.141074 -0.0112,0.789242 -0.55105,1.240274 -1.14058,1.673371 -2.10906,1.460132 -3.88684,2.329572 -6.21427,2.997914 -1.31982,0.309005 -2.67633,0.395571 -4.02052,0.541525 -0.70183,0.07034 -1.40314,0.140134 -2.10858,0.117874 0,0 2.77003,-2.006782 2.77003,-2.006782 v 0 c 0.69151,-0.0037 1.37981,-0.066 2.06733,-0.138854 1.33258,-0.143013 2.68093,-0.225439 3.97791,-0.586977 0.62065,-0.192219 1.23351,-0.394915 1.83455,-0.64315 0.17719,-0.07318 0.68933,-0.332221 0.52702,-0.230222 -1.26011,0.791864 -3.53769,2.036832 -2.01417,1.200284 0.52543,-0.34448 1.14651,-0.687357 1.26575,-1.357653 0.011,-0.695591 -0.21608,-1.373469 -0.50782,-1.998545 -0.32727,-0.583819 -0.85992,-0.947363 -1.44654,-1.254396 -0.78756,-0.337797 -1.6315,-0.514964 -2.48754,-0.555824 -0.73877,-0.03557 -1.56002,0.05755 -2.22641,-0.311535 -0.0664,-0.07098 -0.14782,-0.130403 -0.19908,-0.212951 -0.34028,-0.547943 0.2458,-1.222698 0.33003,-1.757458 0.27725,-1.056096 0.62627,-2.092449 0.83753,-3.16548 0,0 3.09012,-1.498416 3.09012,-1.498416 z"
         inkscape:connector-curvature="0" /><path
         style="fill:#000000;fill-opacity:1;stroke:none;stroke-width:0.52499998;stroke-miterlimit:4;stroke-dasharray:none;stroke-opacity:1"
         id="path953"
         d="m 204.43263,14.031509 c -1.05911,1.076814 -1.9273,2.322054 -2.77754,3.564981 -0.95684,1.460854 -1.72305,3.032339 -2.36447,4.65341 -0.55468,1.314934 -0.85536,2.700614 -1.01552,4.112441 -0.11775,0.827082 -0.0413,1.598071 0.41253,2.304073 0.2775,0.29773 0.49828,0.680534 0.83809,0.915934 0.13277,0.09197 0.43244,0.221044 0.56948,0.284054 0.70908,0.280721 1.47262,0.300874 2.21681,0.172694 0.082,-0.02881 0.50674,-0.176157 0.59212,-0.213374 0.0909,-0.03961 0.35121,-0.183736 0.26515,-0.134571 -4.74327,2.709753 -3.0604,2.012202 -2.25685,1.115513 0.32939,-0.44986 0.41127,-0.989462 0.40247,-1.533802 -0.086,-0.592568 -0.46106,-1.084386 -0.83398,-1.533728 -0.50004,-0.620784 -1.16382,-0.986145 -1.90797,-1.230742 -0.43415,-0.104314 -0.21947,-0.06104 -0.6437,-0.131551 0,0 2.81518,-1.962757 2.81518,-1.962757 v 0 c 0.44044,0.100022 0.21765,0.04148 0.66788,0.177534 0.77893,0.303185 1.47515,0.728148 2.01141,1.383453 0.41573,0.510639 0.81676,1.063386 0.94369,1.722813 0.0488,0.60114 -0.0199,1.208015 -0.30005,1.750729 -0.95857,1.488308 -2.81701,2.245862 -4.5046,2.638906 -0.79942,0.05771 -1.59059,0.01264 -2.32878,-0.333181 -0.6834,-0.34601 -1.06198,-0.744938 -1.51011,-1.360485 -0.48452,-0.774448 -0.63306,-1.611405 -0.49731,-2.520427 0.15654,-1.440367 0.44095,-2.861947 1.00426,-4.204662 0.62687,-1.64474 1.39278,-3.23515 2.33606,-4.723903 0.83673,-1.245882 1.69101,-2.487882 2.70053,-3.602276 0,0 3.16522,-1.311076 3.16522,-1.311076 z"
         inkscape:connector-curvature="0" /><path
         style="fill:#000000;fill-opacity:1;stroke:none;stroke-width:0.52499998;stroke-miterlimit:4;stroke-dasharray:none;stroke-opacity:1"
         id="path955"
         d="m 226.89498,17.203649 c -0.54497,-0.392614 -1.29247,-0.773102 -1.44746,-1.482638 0.45927,-2.313439 3.26542,-2.072858 4.90031,-1.856903 1.35983,0.234449 2.71676,0.484781 4.07521,0.726949 1.25022,0.22158 2.51887,0.282226 3.78552,0.316431 0.84371,0.01771 1.68762,0.01246 2.53141,0.007 0.58699,-0.05563 0.95643,0.175994 1.17546,0.707802 0.20819,0.698123 0.002,1.360191 -0.22684,2.022323 -0.49989,1.435096 -1.25713,2.755766 -2.0316,4.056253 -1.07073,1.786045 -2.15967,3.561604 -3.27599,5.319571 -0.77808,1.213463 -1.49599,2.46477 -2.18887,3.728473 -0.32384,0.624507 -0.6513,1.246492 -0.88933,1.909445 0,0 -3.10631,1.457774 -3.10631,1.457774 v 0 c 0.21903,-0.694217 0.55656,-1.331799 0.89124,-1.976501 0.69775,-1.277939 1.42903,-2.539043 2.2146,-3.765057 1.12704,-1.752564 2.22243,-3.525699 3.29023,-5.314941 0.7632,-1.271277 1.50179,-2.56584 1.99858,-3.968577 0.21529,-0.581124 0.45865,-1.164156 0.31297,-1.792615 -0.15563,-0.454421 -0.5258,-0.360588 -0.94014,-0.366061 -0.83877,-0.0014 -1.6777,-0.0052 -2.51607,-0.03299 -1.27361,-0.04894 -2.54833,-0.127275 -3.80311,-0.365037 -1.35629,-0.249961 -2.71361,-0.497769 -4.07837,-0.697458 -0.48645,-0.04678 -0.51034,-0.05804 -0.98398,-0.0703 -0.12005,-0.0031 -0.2406,-0.01088 -0.36026,-7.4e-4 -0.0992,0.0084 -0.37685,0.110196 -0.29328,0.05614 2.63669,-1.705566 3.81155,-1.448349 2.59004,-1.6772 -0.17271,0.330354 1.02216,1.048069 1.25289,1.183781 0,0 -2.87685,1.875004 -2.87685,1.875004 z"
         inkscape:connector-curvature="0" /><path
         style="fill:#000000;fill-opacity:1;stroke:none;stroke-width:0.52499998;stroke-miterlimit:4;stroke-dasharray:none;stroke-opacity:1"
         id="path957"
         d="m 232.28623,24.527714 c 1.40316,-0.06922 2.80325,-0.15854 4.19922,-0.31916 1.65539,-0.192269 3.30717,-0.414848 4.95355,-0.673011 1.25015,-0.200699 2.49078,-0.452452 3.74739,-0.612078 0.13174,-0.01334 0.26348,-0.02668 0.39521,-0.04003 0,0 -2.74902,2.041805 -2.74902,2.041805 v 0 c -0.12832,0.01412 -0.25664,0.02823 -0.38496,0.04234 -1.24207,0.163274 -2.47055,0.407152 -3.70904,0.593808 -1.65085,0.250611 -3.306,0.474122 -4.965,0.663597 -1.41263,0.150905 -2.82983,0.226532 -4.24509,0.34479 0,0 2.75774,-2.042065 2.75774,-2.042065 z"
         inkscape:connector-curvature="0" /><path
         style="fill:#000000;fill-opacity:1;stroke:none;stroke-width:0.52499998;stroke-miterlimit:4;stroke-dasharray:none;stroke-opacity:1"
         id="path983"
         d="m 271.27449,22.958459 c -0.312,-1.048111 -0.57404,-2.103974 -0.7505,-3.183387 -0.11143,-0.74836 -0.19701,-1.501303 -0.11964,-2.256267 0.0772,-0.582384 0.38916,-1.021952 0.8438,-1.372571 2.59375,-1.65152 2.67906,-1.86548 4.90341,-1.912178 0.65538,-0.05518 1.18812,0.161307 1.60197,0.663216 0.33216,0.511776 0.34108,1.123665 0.36319,1.713129 0.0101,0.838683 -0.3553,1.588186 -0.71372,2.323916 -0.42272,0.919073 -0.98034,1.743136 -1.63982,2.505501 -0.87278,0.930263 -1.89169,1.701925 -2.90639,2.468009 -1.09562,0.793966 -2.21093,1.560517 -3.29797,2.366493 -0.92549,0.713882 -1.74645,1.542548 -2.36838,2.533438 -0.26331,0.502724 -0.51555,1.069915 -0.39736,1.646419 0.27583,0.617342 1.04279,0.686672 1.63444,0.778572 1.1317,0.120422 2.27219,0.114071 3.40886,0.115855 1.36364,-0.02589 2.69779,-0.307352 3.98185,-0.751154 0.58776,-0.213917 1.17648,-0.441287 1.73392,-0.727332 0.15714,-0.08063 0.61394,-0.34955 0.46013,-0.262746 -2.60449,1.469797 -3.24905,1.987551 -2.12652,1.131252 0.483,-0.439521 0.94536,-0.996425 0.99592,-1.679679 0.0105,-0.142208 -0.0122,-0.284931 -0.0184,-0.427396 -0.14011,-1.193552 -0.87008,-2.121279 -1.65821,-2.97422 -0.16849,-0.166912 -0.33697,-0.333823 -0.50547,-0.500735 0,0 2.88836,-1.771573 2.88836,-1.771573 v 0 c 0.17187,0.17074 0.34373,0.341479 0.51559,0.512218 0.83458,0.906799 1.6044,1.901728 1.79052,3.157557 0.0201,0.165979 0.0583,0.330758 0.0602,0.497935 0.009,0.742556 -0.40882,1.392226 -0.89939,1.909614 -1.65787,1.456522 -3.83622,2.456392 -5.91931,3.217407 -1.31257,0.409636 -2.67036,0.658136 -4.04965,0.665517 -1.15342,-0.007 -2.31301,0.0081 -3.45796,-0.152905 -0.74047,-0.147523 -1.53475,-0.342568 -1.86256,-1.102243 -0.1816,-0.656484 0.01,-1.295672 0.30095,-1.896844 0.59246,-1.043019 1.40868,-1.907718 2.33701,-2.664607 1.08123,-0.8156 2.19591,-1.582418 3.29865,-2.367734 1.01503,-0.743637 2.01891,-1.510122 2.91522,-2.39647 0.67047,-0.732965 1.26362,-1.507926 1.67199,-2.421973 0.35213,-0.68097 0.73061,-1.384209 0.77479,-2.164341 -0.0134,-0.506921 0.009,-1.055661 -0.25855,-1.50555 -0.37546,-0.416654 -0.88522,-0.451522 -1.42214,-0.415068 -0.35203,0.01309 -0.70576,0.02241 -1.05448,0.07768 -1.19919,0.190058 -2.74324,1.421635 2.12632,-1.432041 -0.4708,0.228461 -0.83813,0.571482 -0.9697,1.094761 -0.11289,0.727942 -0.0462,1.454345 0.0519,2.182653 0.15735,1.066012 0.40354,2.109073 0.74959,3.130622 0,0 -3.01252,1.647249 -3.01252,1.647249 z"
         inkscape:connector-curvature="0" /><path
         style="fill:#000000;fill-opacity:1;stroke:none;stroke-width:0.52499998;stroke-miterlimit:4;stroke-dasharray:none;stroke-opacity:1"
         id="path999"
         d="m 313.45822,14.390626 c 0.21244,1.348972 0.30537,2.710435 0.37093,4.073063 0.0136,1.437981 0.11706,2.871459 0.21264,4.305584 0.0898,1.085933 0.11032,2.160977 -0.0631,3.237507 -0.11466,0.843229 -0.46953,1.538936 -0.99585,2.192394 -1.01613,1.021927 -2.54811,1.625703 -3.7054,2.274407 -0.30623,0.171654 -0.6706,0.255764 -1.00759,0.337902 -0.70435,0.144387 -1.40627,0.186331 -2.11692,0.09195 -0.28259,-0.02947 -0.5551,-0.07459 -0.82903,-0.148259 0,0 2.82603,-1.95777 2.82603,-1.95777 v 0 c 0.2664,0.04931 0.53359,0.08965 0.80324,0.117589 0.68362,0.05732 1.36876,-0.02239 2.03263,-0.194512 0.32015,-0.105337 0.35322,-0.106576 0.65711,-0.244005 0.10509,-0.04752 0.40985,-0.211074 0.31087,-0.151878 -4.77303,2.854577 -3.09782,1.893354 -2.13094,1.206479 0.58435,-0.602213 0.94009,-1.185675 1.08422,-2.025726 0.20729,-1.093749 0.20914,-2.063921 0.11623,-3.174786 -0.0798,-1.438296 -0.19239,-2.874723 -0.20378,-4.315929 -0.0587,-1.342699 -0.13936,-2.688559 -0.38982,-4.011616 0,0 3.02859,-1.612393 3.02859,-1.612393 z"
         inkscape:connector-curvature="0" /><path
         style="fill:#000000;fill-opacity:1;stroke:none;stroke-width:0.52499998;stroke-miterlimit:4;stroke-dasharray:none;stroke-opacity:1"
         id="path1007"
         d="m 310.42969,16.00302 c -1.09671,0.125674 -2.15653,0.400755 -3.19761,0.757005 -1.11273,0.483465 -2.99786,1.56162 1.92583,-1.158697 0.0997,-0.05509 -0.18925,0.127027 -0.28033,0.195437 -0.22854,0.171644 -0.26757,0.220424 -0.47334,0.416803 -0.52375,0.534584 -0.83421,1.221669 -1.1343,1.896243 -0.32136,0.691003 -0.44687,1.435953 -0.51567,2.187899 -0.068,0.56777 -0.0306,1.124523 0.0608,1.685408 0.10058,0.490511 0.43481,0.737619 0.88502,0.89188 0.70873,0.17582 1.44184,0.185224 2.16756,0.19824 0.86865,0.07619 1.70725,-0.130278 2.55396,-0.285522 0.13363,-0.03553 0.26726,-0.07107 0.40089,-0.106609 0,0 -2.71965,2.076242 -2.71965,2.076242 v 0 c -0.13673,0.02981 -0.27345,0.05963 -0.41018,0.08944 -0.86061,0.156792 -1.71844,0.305941 -2.5981,0.231557 -0.75719,-0.02092 -1.52562,-0.0464 -2.24928,-0.294844 -0.52671,-0.248169 -0.92755,-0.601892 -1.06836,-1.189687 -0.0969,-0.58816 -0.16827,-1.168039 -0.0908,-1.765481 0.0616,-0.781296 0.1596,-1.564987 0.47358,-2.291502 0.29758,-0.698033 0.59374,-1.411758 1.0742,-2.00756 1.25774,-1.351972 2.98133,-2.210625 4.69622,-2.86449 1.0577,-0.338404 2.14241,-0.553086 3.23859,-0.728081 0,0 -2.73906,2.066316 -2.73906,2.066316 z"
         inkscape:connector-curvature="0" /><path
         style="fill:#000000;fill-opacity:1;stroke:none;stroke-width:0.52499998;stroke-miterlimit:4;stroke-dasharray:none;stroke-opacity:1"
         id="path1015"
         d="m 44.382556,15.989375 c 1.890352,-1.321176 3.880327,-2.499654 6.133972,-2.99384 0.827303,-0.102774 1.554623,0.120807 2.115593,0.737929 0.493365,0.6767 0.582742,1.505546 0.710362,2.307866 0.2085,1.124114 0.242468,2.263399 0.203445,3.402541 -0.006,1.303775 -0.384427,2.551016 -0.863062,3.750075 -0.45186,1.238574 -1.198178,2.320884 -1.982858,3.367167 -0.653115,0.847323 -1.498755,1.506816 -2.326665,2.171915 -1.553947,1.052189 -3.11571,2.206687 -4.907535,2.798942 -0.526162,0.134814 -1.060035,0.233574 -1.572757,0.02146 -0.471173,-0.292044 -0.61956,-0.765489 -0.622155,-1.292345 0.09435,-0.530275 0.447862,-1.044796 0.9198,-1.320333 1.063252,-0.620765 2.140245,-1.217679 3.210367,-1.826519 0.650235,-0.194373 1.305075,-0.173641 1.968728,-0.09442 0.857212,0.140243 1.558725,0.609168 2.226975,1.13432 0.792967,0.56415 1.495395,1.238896 2.234752,1.868077 0.723,0.631092 1.543665,1.134421 2.391075,1.578562 0.73989,0.471221 1.538386,0.76169 2.393528,0.933029 0.576923,0.07055 1.19187,0.220491 1.74075,-0.02631 -2.838607,1.589172 -3.66708,2.150547 -2.627002,1.453398 0,0 3.177832,-1.330101 3.177832,-1.330101 v 0 c -0.76209,1.219012 -0.0552,0.157315 -3.276345,1.97686 -0.6105,0.09434 -1.227068,-0.004 -1.828628,-0.122485 -0.866722,-0.21177 -1.678507,-0.542743 -2.439367,-1.013845 -0.860198,-0.466409 -1.69047,-0.996714 -2.42787,-1.643289 -0.73203,-0.629351 -1.440285,-1.28816 -2.227058,-1.851029 -0.642525,-0.478436 -1.314532,-0.892463 -2.132467,-0.9691 -0.633165,-0.04925 -1.272518,-0.02145 -1.85952,0.248512 0.890482,-0.521695 1.78224,-1.041233 2.671462,-1.565085 0.09003,-0.05303 -0.18648,0.09523 -0.273817,0.152597 -0.32745,0.215085 -0.602633,0.511191 -0.770843,0.865728 -0.03203,0.375573 -0.0077,0.747292 0.394898,0.904021 0.482542,0.08608 0.974107,-0.04189 1.430752,-0.197756 1.086368,-0.458639 2.683478,-1.470929 -2.013307,1.236856 -0.116505,0.06717 0.228997,-0.141074 0.344325,-0.210244 0.551632,-0.330859 0.161662,-0.08087 0.70104,-0.438974 0.835492,-0.646706 1.684462,-1.295356 2.376232,-2.099885 0.7923,-1.019266 1.564568,-2.068249 2.02377,-3.287159 0.48588,-1.161335 0.895748,-2.367237 0.910845,-3.640853 0.04485,-1.116928 0.02242,-2.232001 -0.185985,-3.334748 -0.12426,-0.730346 -0.176182,-1.500186 -0.62574,-2.120184 -0.511245,-0.50307 -1.206442,-0.603673 -1.895407,-0.456335 -0.540143,0.139212 -1.065488,0.295591 -1.580445,0.51372 -0.198338,0.08401 -0.76896,0.385572 -0.586778,0.270648 0.629528,-0.397134 3.48942,-2.091117 1.934325,-1.1156 0,0 -3.189217,1.256215 -3.189217,1.256215 z"
         inkscape:connector-curvature="0" /><path
         style="fill:#000000;fill-opacity:1;stroke:none;stroke-width:0.52499998;stroke-miterlimit:4;stroke-dasharray:none;stroke-opacity:1"
         id="path925-4"
         d="m 188.24218,85.52226 c -0.15154,-0.359555 -0.38271,-0.728376 -0.38563,-1.13369 -0.009,-1.298048 2.79336,-2.128127 3.43782,-2.507148 1.1727,-0.22487 2.38179,-0.185537 3.57122,-0.187362 1.57897,-0.02255 3.15515,0.0027 4.72646,0.165359 0.84069,0.174425 1.7064,0.238671 2.53986,0.449192 0.071,0.01793 0.80217,0.247599 0.89737,0.277379 0.64393,0.247015 1.16097,0.428485 1.53367,1.036237 0.32242,0.632707 -0.008,1.102138 -0.46575,1.538362 -1.68581,1.134065 -3.48482,2.219934 -5.42244,2.88456 -0.44872,0.18575 -0.93,0.266753 -1.38282,0.440253 -0.12881,0.04935 -0.49682,0.238723 -0.37751,0.169495 2.90884,-1.68785 3.45177,-2.194847 2.55424,-1.387496 -0.16369,0.404095 0.60694,0.866706 0.86872,1.058802 0.91793,0.539902 1.80837,1.136944 2.64265,1.799595 0.85159,0.590503 1.58073,1.333152 2.34279,2.03077 0.63057,0.518882 1.00659,1.224396 1.21278,2.002622 0.0556,0.456128 -0.0387,1.022111 -0.47343,1.285524 -1.05228,0.63763 -2.12576,1.23959 -3.18864,1.85939 -0.90204,0.42294 -1.84868,0.65294 -2.82633,0.81893 -1.3711,0.16543 -2.75602,0.21103 -4.13521,0.15746 -1.43461,-0.0553 -2.81274,-0.42053 -4.16805,-0.86723 -0.69394,-0.26309 -0.35644,-0.13594 -1.01239,-0.38167 0,0 2.831,-1.903953 2.831,-1.903953 v 0 c 0.64481,0.247783 0.3133,0.122818 0.99479,0.374223 1.33295,0.43091 2.6893,0.77055 4.0994,0.79662 1.37098,0.0264 2.74914,-0.0146 4.10635,-0.22444 0.96681,-0.18831 1.91059,-0.45864 2.78272,-0.92848 -0.89202,0.52392 -1.7838,1.04823 -2.67604,1.57177 -0.0779,0.0457 0.15868,-0.0871 0.23311,-0.13834 0.27762,-0.1911 0.42561,-0.45177 0.41259,-0.79178 -0.14836,-0.730975 -0.52922,-1.351802 -1.10266,-1.83187 -0.74666,-0.698629 -1.46749,-1.433006 -2.31247,-2.015969 -0.84601,-0.648778 -1.73765,-1.235732 -2.6535,-1.781416 -0.51281,-0.378997 -1.0994,-0.80436 -1.12711,-1.499096 0.59296,-1.599716 3.4314,-2.111657 5.04581,-2.716198 0.44476,-0.171953 0.8831,-0.35294 1.31135,-0.563555 0.14593,-0.07177 0.57309,-0.307228 0.43349,-0.223817 -1.85308,1.107201 -3.49496,2.008444 -2.19387,1.291386 0.37961,-0.281478 0.89233,-0.564603 0.66951,-1.095722 -0.30124,-0.494731 -0.87099,-0.636307 -1.3827,-0.839999 -1.09834,-0.344143 -2.23,-0.526321 -3.36842,-0.688979 -1.56482,-0.142676 -3.13323,-0.163108 -4.70397,-0.13811 -1.1665,0.01475 -2.40254,-0.06145 -3.513,0.343817 0.87486,-0.528947 1.74972,-1.057894 2.62459,-1.586841 -0.12228,0.0859 -0.31116,0.18093 -0.34977,0.350886 -0.0797,0.350752 0.20584,0.719321 0.32613,1.01847 0,0 -2.97671,1.712059 -2.97671,1.712059 z"
         inkscape:connector-curvature="0" /><path
         style="fill:#000000;fill-opacity:1;stroke:none;stroke-width:0.52499998;stroke-miterlimit:4;stroke-dasharray:none;stroke-opacity:1"
         id="path939-6"
         d="m 232.2051,81.548917 c -0.43287,1.453946 -0.88242,2.900611 -1.26906,4.3678 -0.33785,1.251078 -0.73994,2.48121 -0.98457,3.755346 -0.10967,0.645303 -0.22055,1.156755 0.4107,1.520304 0.63861,0.192022 1.32388,0.203199 1.98306,0.140709 0.86428,-0.144558 1.69608,-0.438291 2.46642,-0.854408 -0.23016,0.165953 0.84885,-0.480514 0.63687,-0.359968 -0.88419,0.502812 -1.76202,1.016775 -2.64756,1.517187 -0.0914,0.05167 0.174,-0.118011 0.26484,-0.170749 3.19255,-1.853407 2.04933,-1.413014 3.45648,-1.934805 0,0 -2.69637,2.131996 -2.69637,2.131996 v 0 c -1.15566,0.574416 -0.44108,0.225786 2.43996,-1.439553 0.0913,-0.05276 -0.17871,0.111927 -0.26954,0.165481 -1.27183,0.750044 -2.53129,1.560086 -3.85701,2.226666 -0.81135,0.368212 -1.65732,0.670204 -2.55159,0.74708 -0.71815,0.01966 -1.47037,0.02025 -2.1232,-0.318475 -0.67362,-0.517524 -0.74505,-1.066749 -0.58464,-1.878828 0.24573,-1.289921 0.65169,-2.532248 1.00983,-3.793583 0.38503,-1.455766 0.81951,-2.8955 1.21857,-4.346784 0,0 3.09681,-1.475416 3.09681,-1.475416 z"
         inkscape:connector-curvature="0" /><path
         style="fill:#000000;fill-opacity:1;stroke:none;stroke-width:0.52499998;stroke-miterlimit:4;stroke-dasharray:none;stroke-opacity:1"
         id="path941-5"
         d="m 238.68547,81.609674 c -0.12517,1.842817 -0.39246,3.67251 -0.71419,5.490108 -0.39102,1.888602 -0.90783,3.751345 -1.45566,5.600159 -0.3635,1.181329 -0.70866,2.365898 -0.90456,3.58756 -0.0169,0.13673 -0.0337,0.27346 -0.0505,0.41019 0,0 -3.06693,1.51626 -3.06693,1.51626 v 0 c 0.0169,-0.14131 0.0338,-0.28262 0.0508,-0.42393 0.19347,-1.24354 0.53397,-2.45067 0.92212,-3.647018 0.56105,-1.839706 1.08389,-3.694933 1.49282,-5.574634 0.31957,-1.793747 0.60643,-3.603273 0.66637,-5.427034 0,0 3.05979,-1.531661 3.05979,-1.531661 z"
         inkscape:connector-curvature="0" /><path
         style="fill:#000000;fill-opacity:1;stroke:none;stroke-width:0.52499998;stroke-miterlimit:4;stroke-dasharray:none;stroke-opacity:1"
         id="path947-5"
         d="m 268.82155,81.732178 c 1.21452,-0.01263 2.42682,-0.123379 3.64098,-0.174295 1.11552,-0.140541 2.24468,-0.165438 3.35808,-0.316596 0.14163,-0.02131 0.28325,-0.04262 0.42488,-0.06393 0,0 -2.7389,2.048619 -2.7389,2.048619 v 0 c -0.14169,0.01829 -0.28338,0.03657 -0.42507,0.05485 -1.11654,0.111624 -2.23728,0.185514 -3.35508,0.283737 -1.22727,0.0586 -2.45238,0.169029 -3.68114,0.184679 0,0 2.77625,-2.017067 2.77625,-2.017067 z"
         inkscape:connector-curvature="0" /><path
         style="fill:#000000;fill-opacity:1;stroke:none;stroke-width:0.52499998;stroke-miterlimit:4;stroke-dasharray:none;stroke-opacity:1"
         id="path949-6"
         d="m 269.13541,82.250823 c -0.23328,1.078543 -0.56931,2.129499 -0.8515,3.195138 -0.005,0.310157 -0.58145,1.30955 -0.38573,1.568102 0.0232,0.03067 0.0691,0.03364 0.10374,0.05047 0.68261,0.133865 1.38627,0.08516 2.07783,0.142569 0.88628,0.06003 1.76468,0.26822 2.56665,0.651097 0.68039,0.390716 1.17408,0.744486 1.56179,1.438829 0.32289,0.673781 0.54436,1.394492 0.59247,2.141074 -0.0112,0.789242 -0.55106,1.240273 -1.14059,1.67337 -2.10906,1.460134 -3.88683,2.329574 -6.21426,2.997914 -1.31981,0.30901 -2.67632,0.39557 -4.02051,0.54153 -0.70184,0.0703 -1.40315,0.14013 -2.10858,0.11787 0,0 2.77003,-2.00678 2.77003,-2.00678 v 0 c 0.6915,-0.004 1.37981,-0.066 2.06733,-0.13886 1.33256,-0.14301 2.68091,-0.22544 3.9779,-0.586974 0.62064,-0.192219 1.23351,-0.394915 1.83455,-0.643149 0.17719,-0.07318 0.68932,-0.332221 0.52702,-0.230223 -1.26012,0.791864 -3.53769,2.036836 -2.01417,1.200286 0.52542,-0.344482 1.14651,-0.687358 1.26575,-1.357654 0.011,-0.695591 -0.21608,-1.373469 -0.50783,-1.998545 -0.32727,-0.583819 -0.85992,-0.947363 -1.44654,-1.254396 -0.78756,-0.337797 -1.63149,-0.514964 -2.48754,-0.555824 -0.73875,-0.03557 -1.56,0.05755 -2.22639,-0.311535 -0.0664,-0.07098 -0.14783,-0.130403 -0.19908,-0.212951 -0.34028,-0.547943 0.2458,-1.222698 0.33003,-1.757459 0.27724,-1.056096 0.62626,-2.092449 0.83752,-3.165479 0,0 3.09011,-1.498416 3.09011,-1.498417 z"
         inkscape:connector-curvature="0" /><path
         style="fill:#000000;fill-opacity:1;stroke:none;stroke-width:0.52499998;stroke-miterlimit:4;stroke-dasharray:none;stroke-opacity:1"
         id="path953-1"
         d="m 312.96473,79.680553 c -1.05912,1.076814 -1.9273,2.322054 -2.77755,3.564981 -0.95683,1.460854 -1.72305,3.03234 -2.36446,4.653411 -0.55469,1.314933 -0.85536,2.700613 -1.01552,4.11244 -0.11775,0.827082 -0.0413,1.598071 0.41253,2.304073 0.2775,0.29773 0.49827,0.680534 0.83808,0.915934 0.13278,0.09197 0.43245,0.221044 0.56949,0.284054 0.70908,0.280717 1.47261,0.300877 2.21681,0.172697 0.082,-0.0288 0.50674,-0.17616 0.59212,-0.213377 0.0909,-0.03961 0.35121,-0.183736 0.26514,-0.134571 -4.74326,2.709758 -3.06039,2.012198 -2.25684,1.115518 0.32939,-0.44986 0.41127,-0.989467 0.40247,-1.533807 -0.086,-0.592568 -0.46106,-1.084386 -0.83399,-1.533728 -0.50004,-0.620784 -1.16382,-0.986145 -1.90797,-1.230742 -0.43414,-0.104314 -0.21946,-0.06104 -0.64369,-0.131551 0,0 2.81518,-1.962757 2.81518,-1.962757 v 0 c 0.44043,0.100022 0.21765,0.04148 0.66788,0.177534 0.77893,0.303185 1.47514,0.728148 2.01141,1.383453 0.41572,0.510639 0.81676,1.063386 0.94369,1.722813 0.0488,0.60114 -0.0199,1.208015 -0.30006,1.750729 -0.95856,1.488306 -2.817,2.245866 -4.50459,2.638906 -0.79942,0.0577 -1.59059,0.0126 -2.32878,-0.33318 -0.6834,-0.34601 -1.06198,-0.74494 -1.51011,-1.36049 -0.48452,-0.774444 -0.63306,-1.611401 -0.49731,-2.520423 0.15654,-1.440367 0.44095,-2.861947 1.00426,-4.204662 0.62687,-1.644739 1.39278,-3.23515 2.33606,-4.723903 0.83673,-1.245882 1.69101,-2.487882 2.70053,-3.602276 0,0 3.16522,-1.311076 3.16522,-1.311076 z"
         inkscape:connector-curvature="0" /><path
         style="fill:#000000;fill-opacity:1;stroke:none;stroke-width:0.52499998;stroke-miterlimit:4;stroke-dasharray:none;stroke-opacity:1"
         id="path1015-2"
         d="m 116.25829,82.629131 c 1.89036,-1.321176 3.88033,-2.499654 6.13398,-2.99384 0.8273,-0.102774 1.55462,0.120807 2.11559,0.737929 0.49336,0.6767 0.58274,1.505546 0.71036,2.307866 0.2085,1.124114 0.24247,2.263399 0.20345,3.402541 -0.006,1.303775 -0.38443,2.551016 -0.86307,3.750075 -0.45186,1.238575 -1.19817,2.320884 -1.98285,3.367167 -0.65312,0.847323 -1.49876,1.506816 -2.32667,2.171915 -1.55395,1.052189 -3.11571,2.206691 -4.90753,2.798941 -0.52617,0.13482 -1.06004,0.23358 -1.57276,0.0215 -0.47117,-0.29204 -0.61956,-0.76549 -0.62216,-1.29234 0.0943,-0.530279 0.44787,-1.0448 0.9198,-1.320337 1.06326,-0.620765 2.14025,-1.217679 3.21037,-1.826519 0.65024,-0.194373 1.30508,-0.173641 1.96873,-0.09442 0.85721,0.140243 1.55872,0.609168 2.22697,1.13432 0.79297,0.56415 1.4954,1.238896 2.23476,1.868076 0.723,0.63109 1.54366,1.13442 2.39107,1.57856 0.73989,0.47122 1.53839,0.76169 2.39353,0.93303 0.57692,0.0705 1.19187,0.22049 1.74075,-0.0263 -2.83861,1.589175 -3.66708,2.150555 -2.627,1.453405 0,0 3.17783,-1.330105 3.17783,-1.330105 v 0 c -0.76209,1.219015 -0.0552,0.15731 -3.27635,1.976865 -0.6105,0.0943 -1.22706,-0.004 -1.82862,-0.12249 -0.86673,-0.21177 -1.67851,-0.54274 -2.43937,-1.01384 -0.8602,-0.466415 -1.69047,-0.996725 -2.42787,-1.643295 -0.73203,-0.62935 -1.44029,-1.28816 -2.22706,-1.85103 -0.64252,-0.478437 -1.31453,-0.892464 -2.13247,-0.969101 -0.63316,-0.04925 -1.27251,-0.02145 -1.85952,0.248512 0.89049,-0.521695 1.78224,-1.041233 2.67147,-1.565085 0.09,-0.05303 -0.18648,0.09523 -0.27382,0.152597 -0.32745,0.215085 -0.60263,0.511191 -0.77084,0.865728 -0.032,0.375573 -0.008,0.747292 0.39489,0.904021 0.48255,0.08608 0.97411,-0.04189 1.43076,-0.197756 1.08636,-0.458639 2.68347,-1.470929 -2.01331,1.236854 -0.11651,0.0672 0.229,-0.14107 0.34432,-0.21024 0.55164,-0.33086 0.16167,-0.0809 0.70104,-0.43898 0.8355,-0.646702 1.68447,-1.295352 2.37624,-2.099881 0.7923,-1.019266 1.56456,-2.068249 2.02377,-3.287159 0.48588,-1.161335 0.89574,-2.367237 0.91084,-3.640853 0.0448,-1.116928 0.0224,-2.232001 -0.18598,-3.334748 -0.12426,-0.730346 -0.17619,-1.500186 -0.62574,-2.120184 -0.51125,-0.50307 -1.20645,-0.603673 -1.89541,-0.456335 -0.54014,0.139212 -1.06549,0.295591 -1.58045,0.51372 -0.19833,0.08401 -0.76896,0.385572 -0.58677,0.270648 0.62952,-0.397134 3.48942,-2.091117 1.93432,-1.1156 0,0 -3.18922,1.256215 -3.18922,1.256215 z"
         inkscape:connector-curvature="0" /><path
         style="fill:#000000;fill-opacity:1;stroke:none;stroke-width:0.52499998;stroke-miterlimit:4;stroke-dasharray:none;stroke-opacity:1"
         id="path1155"
         d="m 7.4785079,21.933651 c 1.0112582,-0.691114 1.9306752,-1.502426 2.8152571,-2.346493 0.621439,-0.615267 1.077787,-1.3526 1.515378,-2.10142 0.179721,-0.397188 0.530362,-0.828035 0.534333,-1.284591 1.050586,-0.420117 2.069021,-0.931852 3.151757,-1.260351 0.09565,-0.02902 0.01255,0.199559 0.01529,0.299478 0.0036,0.130384 0.0034,0.26085 0.0037,0.391283 0.0011,0.574935 -0.04107,1.130818 -0.104331,1.702369 -0.304355,1.910609 -0.698638,3.806913 -1.080382,5.703521 -0.410566,1.937122 -0.880441,3.861938 -1.378167,5.77844 -0.257901,0.895753 -0.522557,1.789381 -0.817545,2.673635 0,0 -3.0998629,1.453151 -3.0998629,1.453151 v 0 c 0.308571,-0.884982 0.599487,-1.775061 0.87119,-2.672358 0.5126919,-1.914048 1.0028109,-3.835824 1.4153129,-5.77411 0.377127,-1.878824 0.745689,-3.761985 1.046562,-5.654382 0.0631,-0.555963 0.106752,-1.091113 0.09776,-1.650455 -0.002,-0.125643 -0.0046,-0.251283 -0.0084,-0.376884 -0.0028,-0.09046 -0.08817,-0.223406 -0.01137,-0.27128 0.99469,-0.619981 2.068191,-1.103508 3.102286,-1.655263 -0.02226,-0.01093 -0.04575,-0.04594 -0.06677,-0.03279 -0.163511,0.10235 -0.311439,1.113036 -0.540369,1.24092 -0.45811,0.761932 -0.879882,1.542167 -1.497926,2.194396 -0.877755,0.848734 -1.781443,1.67343 -2.774409,2.386969 0,0 -3.1892156,1.256214 -3.1892156,1.256214 z"
         inkscape:connector-curvature="0" /><path
         style="fill:#000000;fill-opacity:1;stroke:none;stroke-width:0.52499998;stroke-miterlimit:4;stroke-dasharray:none;stroke-opacity:1"
         id="path1155-6"
         d="m 4.7424667,89.642053 c 1.011258,-0.691114 1.930675,-1.502426 2.815257,-2.346493 0.621439,-0.615267 1.077787,-1.3526 1.515378,-2.10142 0.179721,-0.397188 0.530362,-0.828035 0.534333,-1.284591 1.0505863,-0.420117 2.0690213,-0.931852 3.1517573,-1.260351 0.09565,-0.02902 0.01255,0.199559 0.01529,0.299478 0.0036,0.130384 0.0034,0.26085 0.0037,0.391283 0.0011,0.574935 -0.04107,1.130818 -0.104331,1.702369 -0.304355,1.910609 -0.698638,3.806913 -1.080382,5.703521 -0.410566,1.937122 -0.880441,3.861938 -1.378167,5.77844 -0.2579013,0.895753 -0.5225573,1.789381 -0.8175453,2.673635 0,0 -3.099863,1.453156 -3.099863,1.453156 v 0 c 0.308571,-0.884987 0.599487,-1.775066 0.87119,-2.672363 0.512692,-1.914048 1.002811,-3.835824 1.415313,-5.77411 0.377127,-1.878824 0.745689,-3.761985 1.046562,-5.654382 0.0631,-0.555963 0.106752,-1.091113 0.09776,-1.650455 -0.002,-0.125643 -0.0046,-0.251283 -0.0084,-0.376884 -0.0028,-0.09046 -0.08817,-0.223406 -0.01137,-0.27128 0.9946903,-0.619981 2.0681913,-1.103508 3.1022853,-1.655263 -0.02226,-0.01093 -0.04575,-0.04594 -0.06677,-0.03279 -0.163486,0.10235 -0.311414,1.113036 -0.540344,1.24092 -0.45811,0.761932 -0.879882,1.542167 -1.497926,2.194396 -0.8777553,0.848734 -1.7814433,1.67343 -2.7744093,2.386969 0,0 -3.189216,1.256214 -3.189216,1.256214 z"
         inkscape:connector-curvature="0" /></g><path
       style="fill:#000000;fill-opacity:1;stroke:none;stroke-width:0.52499998;stroke-miterlimit:4;stroke-dasharray:none;stroke-opacity:1"
       id="path1110"
       d="m 20.035396,19.367367 c -0.344588,1.289089 -0.701451,2.570712 -0.926863,3.886917 -0.211051,1.413874 -0.239121,2.845267 -0.259922,4.271923 -0.02739,0.911302 -0.0036,1.823702 0.409842,2.651188 0.284108,0.480117 0.806586,0.682081 1.346004,0.662238 1.093218,-0.345186 2.884893,-1.487139 -2.24205,1.343943 -0.07953,0.04392 0.153926,-0.09738 0.224339,-0.154797 0.216109,-0.176216 0.267221,-0.264393 0.447244,-0.486345 0,0 3.146503,-1.359516 3.146503,-1.359516 v 0 c -0.953086,1.429074 -2.638511,2.564822 -4.371861,2.657238 -0.63703,-0.106437 -1.206128,-0.381648 -1.53324,-0.966695 -0.429917,-0.884668 -0.502044,-1.836136 -0.451469,-2.811433 0.01939,-1.441844 0.04893,-2.888299 0.24304,-4.319203 0.203477,-1.32232 0.568178,-2.599248 0.87161,-3.900042 0,0 3.096823,-1.475416 3.096823,-1.475416 z"
       inkscape:connector-curvature="0" /><path
       style="fill:#000000;fill-opacity:1;stroke:none;stroke-width:0.52499998;stroke-miterlimit:4;stroke-dasharray:none;stroke-opacity:1"
       id="path1112"
       d="m 20.751034,13.214508 c -0.324726,1.066596 -0.653665,2.134377 -0.919359,3.21771 -0.100477,0.481068 -0.05665,0.246985 -0.133228,0.701922 0,0 -3.08064,1.507873 -3.08064,1.507873 v 0 c 0.07397,-0.474761 0.0308,-0.230938 0.13143,-0.731125 0.265119,-1.089768 0.627838,-2.151924 0.900513,-3.239901 0,0 3.101284,-1.456479 3.101284,-1.456479 z"
       inkscape:connector-curvature="0" /><path
       style="fill:#000000;fill-opacity:1;stroke:none;stroke-width:0.52499998;stroke-miterlimit:4;stroke-dasharray:none;stroke-opacity:1"
       id="path1126"
       d="m 21.568047,87.451538 c -0.148163,1.70907 -0.21965,3.422085 -0.401044,5.12859 -0.328729,2.666476 -0.968269,5.282011 -1.607932,7.887442 -0.610061,2.60769 -1.350949,5.18828 -2.192822,7.73076 -0.516643,1.39893 -1.063263,2.81913 -1.884117,4.07279 -0.909277,1.03118 -2.651061,2.8894 -3.870149,2.11141 -0.2174,-0.13874 -0.284724,-0.30034 -0.422142,-0.51346 -0.486991,-0.95993 -0.604967,-2.04586 -0.711851,-3.10197 -0.09444,-1.01404 -0.170737,-2.02794 0.07094,-3.02463 0.217037,-0.69729 0.719579,-1.16065 1.339423,-1.51226 1.123437,-0.63727 2.252456,-1.26464 3.378685,-1.89696 1.04407,-0.45338 2.160624,-0.61224 3.27221,-0.79849 1.042243,-0.11525 2.049045,-0.40294 3.042994,-0.72354 0.422476,-0.11822 0.838596,-0.20304 1.221783,-0.4212 0,0 -2.690628,2.1392 -2.690628,2.1392 v 0 c -0.405219,0.14902 -0.824232,0.24753 -1.236197,0.37619 -0.999982,0.30659 -2.019011,0.54229 -3.057659,0.67534 -1.102003,0.18554 -2.203263,0.39131 -3.21926,0.88153 0.826121,-0.48579 1.655361,-0.96632 2.47836,-1.45738 0.12932,-0.0772 -0.26551,0.14221 -0.397053,0.21552 -0.455776,0.254 -0.822382,0.56551 -1.041008,1.05279 -0.312155,0.95159 -0.227977,1.93437 -0.148381,2.92063 0.09561,1.00002 0.195264,2.02956 0.658954,2.93812 0.07756,0.10832 0.132275,0.25245 0.283562,0.27632 0.05354,0.008 0.207309,-0.05 0.161181,-0.0215 -5.1420822,3.17336 -3.138881,2.02183 -2.247834,1.2446 0.91405,-1.1874 1.434981,-2.64253 1.997496,-4.01548 0.8669,-2.53377 1.617663,-5.11182 2.232246,-7.71811 0.628231,-2.588754 1.267755,-5.183889 1.596609,-7.831449 0.169748,-1.69128 0.246512,-3.387068 0.322158,-5.084693 0,0 3.071479,-1.530082 3.071479,-1.530082 z"
       inkscape:connector-curvature="0" /><path
       style="fill:#000000;fill-opacity:1;stroke:none;stroke-width:0.52499998;stroke-miterlimit:4;stroke-dasharray:none;stroke-opacity:1"
       id="path1112-1"
       d="m 23.054071,82.231596 c -0.324726,1.066596 -0.653665,2.134377 -0.919359,3.21771 -0.100477,0.481068 -0.05665,0.246985 -0.133228,0.701922 0,0 -3.08064,1.507873 -3.08064,1.507873 v 0 c 0.07397,-0.474761 0.0308,-0.230938 0.13143,-0.731125 0.265119,-1.089768 0.627838,-2.151924 0.900513,-3.239901 0,0 3.101284,-1.456479 3.101284,-1.456479 z"
       inkscape:connector-curvature="0" /></g></svg>